<svg width="25" height="29" viewBox="0 0 25 29" fill="none" xmlns="http://www.w3.org/2000/svg">
<path id="Vector" d="M21.2617 2.31769H19.9377V0H17.4455V2.31769H7.47664V0H4.98442V2.31769H3.73832C1.67695 2.31769 0 4.01351 0 6.09808V25.2196C0 27.3042 1.67695 29 3.73832 29H21.2617C23.3231 29 25 27.3042 25 25.2196V6.09808C25 4.01351 23.3231 2.31769 21.2617 2.31769ZM22.5078 25.2196C22.5078 25.9143 21.9489 26.4797 21.5732 26.4797H4.04984C3.05109 26.4797 2.49221 25.9143 2.49221 25.2196V9.78302H22.5078V25.2196ZM14.0673 16.2327H5.54112V23.3376H14.0673V16.2327Z" fill="#E2097F"/>
</svg>
