<svg width="245" height="204" viewBox="0 0 245 204" fill="none" xmlns="http://www.w3.org/2000/svg">
<g id="Frame" clip-path="url(#clip0_200_3329)">
<g id="Group">
<g id="Floor">
<g id="Group_2">
<path id="Vector" d="M149.687 2.86572H102.458V52.3862H149.687V2.86572Z" fill="#E0E0E0"/>
<g id="Group_3">
<path id="Vector_2" d="M146.484 2.86572H99.2554V52.3862H146.484V2.86572Z" fill="#FAFAFA"/>
<path id="Vector_3" d="M146.502 52.3981H99.2437V2.84814H146.502V52.3981ZM99.2729 52.3686H146.472V2.8776H99.2729V52.3686Z" fill="#E0E0E0"/>
</g>
<path id="Vector_4" d="M140.142 9.52197H105.609V45.7302H140.142V9.52197Z" fill="white"/>
<path id="Vector_5" d="M105.609 45.9658C105.638 46.0012 105.31 46.3781 104.754 46.9613C104.204 47.5444 103.431 48.3396 102.558 49.1996C101.691 50.0596 100.889 50.8254 100.303 51.3732C99.712 51.9151 99.3372 52.2391 99.308 52.2096C99.2787 52.1802 99.6066 51.8032 100.157 51.22C100.708 50.6369 101.486 49.8417 102.359 48.9758C103.231 48.1099 104.028 47.3442 104.619 46.8023C105.211 46.2603 105.586 45.9364 105.615 45.9717L105.609 45.9658Z" fill="#E0E0E0"/>
<path id="Vector_6" d="M140.136 45.8775C140.171 45.848 140.546 46.1779 141.126 46.7316C141.706 47.2853 142.496 48.0687 143.351 48.9405C144.206 49.8123 144.967 50.6193 145.512 51.2083C146.051 51.8032 146.373 52.1802 146.344 52.2097C146.314 52.2391 145.94 51.9093 145.36 51.3556C144.78 50.8019 143.989 50.0184 143.129 49.1408C142.274 48.2631 141.507 47.462 140.968 46.8671C140.429 46.2722 140.107 45.8952 140.142 45.8657L140.136 45.8775Z" fill="#E0E0E0"/>
<path id="Vector_7" d="M140.042 9.61627C140.013 9.58092 140.341 9.20394 140.897 8.62079C141.448 8.03764 142.221 7.24244 143.093 6.38244C143.96 5.52245 144.762 4.7567 145.348 4.20889C145.939 3.66698 146.314 3.343 146.344 3.37246C146.373 3.40191 146.045 3.77889 145.494 4.36204C144.944 4.94519 144.165 5.74039 143.293 6.60628C142.42 7.47217 141.624 8.23792 141.032 8.77983C140.441 9.32175 140.066 9.64572 140.037 9.61037L140.042 9.61627Z" fill="#E0E0E0"/>
<path id="Vector_8" d="M105.51 9.70462C105.474 9.73407 105.1 9.40421 104.52 8.84462C103.94 8.29093 103.15 7.50751 102.295 6.63573C101.44 5.76395 100.678 4.95697 100.134 4.36793C99.5949 3.773 99.2729 3.39602 99.3021 3.36657C99.3314 3.33711 99.7062 3.66698 100.286 4.22067C100.866 4.77437 101.656 5.55779 102.517 6.43546C103.378 7.31312 104.139 8.11422 104.678 8.70915C105.217 9.30407 105.539 9.68106 105.504 9.71051L105.51 9.70462Z" fill="#E0E0E0"/>
<path id="Vector_9" d="M140.043 45.7242C140.043 45.7242 140.043 45.6653 140.037 45.5475C140.037 45.4238 140.037 45.2588 140.031 45.0409C140.031 44.5873 140.025 43.9335 140.013 43.0853C140.008 41.3712 139.996 38.8737 139.978 35.7046C139.961 29.3607 139.937 20.3307 139.908 9.51008L140.043 9.64556C129.988 9.64556 118.188 9.65734 105.609 9.66323L105.762 9.51008C105.756 22.7988 105.744 35.2334 105.738 45.7183L105.609 45.5887C115.928 45.6181 124.518 45.6417 130.544 45.6535C133.554 45.6712 135.92 45.6829 137.548 45.6888C138.35 45.6947 138.971 45.7006 139.399 45.7065C139.603 45.7065 139.762 45.7065 139.879 45.7124C139.984 45.7124 140.043 45.7124 140.043 45.7183C140.043 45.7183 139.996 45.7183 139.89 45.7242C139.779 45.7242 139.621 45.7242 139.428 45.7301C139 45.7301 138.391 45.736 137.601 45.7477C135.979 45.7536 133.624 45.7654 130.626 45.7831C124.583 45.8008 115.963 45.8243 105.609 45.8479H105.48V45.7183C105.475 35.2334 105.469 22.7988 105.457 9.51008V9.35693H105.609C118.182 9.36282 129.988 9.36871 140.043 9.3746H140.177V9.51008C140.148 20.3602 140.125 29.4255 140.107 35.7871C140.09 38.9443 140.078 41.4301 140.072 43.1383C140.066 43.9747 140.06 44.6168 140.054 45.0645C140.054 45.2765 140.054 45.4355 140.049 45.5534C140.049 45.6653 140.049 45.7183 140.043 45.7124V45.7242Z" fill="#E0E0E0"/>
<path id="Vector_10" d="M128.635 21.8271H117.11V33.4194H128.635V21.8271Z" fill="#EBEBEB"/>
</g>
<g id="Group_4">
<path id="Vector_11" d="M76.5224 62.7593V102.001H20.4861L18.4717 63.0302L76.5224 62.7593Z" fill="#E0E0E0"/>
<g id="Group_5">
<path id="Vector_12" d="M18.4717 63.0301L18.4717 101.918H74.5079V63.0301H18.4717Z" fill="#FAFAFA"/>
<path id="Vector_13" d="M74.7713 102.184H18.2021V62.7656H74.7713V102.19V102.184ZM18.735 101.648H74.2384V63.3017H18.735V101.654V101.648Z" fill="#E0E0E0"/>
</g>
<g id="Group_6">
<path id="Vector_14" d="M68.4353 67.8604H24.5386V97.0826H68.4353V67.8604Z" fill="white"/>
<path id="Vector_15" d="M68.4352 67.8605C68.4352 67.8605 68.3591 67.8605 68.2185 67.8664C68.0721 67.8664 67.8613 67.8664 67.5919 67.8723C67.0356 67.8723 66.2275 67.8782 65.1793 67.8899C63.0711 67.8958 60.0025 67.9076 56.1317 67.9253C48.3901 67.9429 37.4334 67.9606 24.5326 67.9901L24.6615 67.8605C24.6615 76.7903 24.6673 86.6803 24.6732 97.0827L24.5326 96.9472C41.0935 96.959 56.3601 96.9649 68.4294 96.9767L68.3181 97.0886C68.3415 88.1941 68.3649 80.9018 68.3767 75.8243C68.3884 73.2855 68.4001 71.3064 68.4059 69.9457C68.4059 69.2742 68.4176 68.7558 68.4176 68.4024C68.4176 68.0549 68.4294 67.8664 68.4294 67.8664C68.4294 67.8664 68.4352 68.0372 68.4411 68.3788C68.4411 68.7323 68.4469 69.2388 68.4528 69.9044C68.4586 71.2592 68.4703 73.2325 68.4821 75.7595C68.4938 80.8547 68.5172 88.1705 68.5406 97.0945V97.2064H68.4294C56.3601 97.2123 41.0935 97.2241 24.5326 97.2358H24.3921V97.0945C24.3921 86.692 24.3979 76.8021 24.4038 67.8723V67.7427H24.5326C37.4686 67.7662 48.4545 67.7898 56.2137 67.8075C60.0728 67.8193 63.1297 67.831 65.232 67.8428C66.2685 67.8487 67.0649 67.8546 67.6154 67.8605C67.8789 67.8605 68.078 67.8605 68.2244 67.8664C68.3591 67.8664 68.4235 67.8723 68.4235 67.8723L68.4352 67.8605Z" fill="#E0E0E0"/>
</g>
<path id="Vector_16" d="M18.4717 62.9243C18.4951 62.8948 18.864 63.1363 19.4379 63.5546C20.0118 63.9728 20.7907 64.5618 21.6339 65.2392C22.4772 65.9166 23.2209 66.5587 23.7421 67.0417C24.2633 67.5247 24.5678 67.8369 24.5444 67.8663C24.4917 67.9252 23.1448 66.8061 21.4641 65.4572C19.7776 64.1083 18.4248 62.9891 18.4775 62.9243H18.4717Z" fill="#E0E0E0"/>
<path id="Vector_17" d="M74.508 63.0302C74.5548 63.0891 73.2372 64.2201 71.5624 65.5572C69.8876 66.8943 68.488 67.9251 68.4412 67.8662C68.3943 67.8073 69.7119 66.6764 71.3926 65.3393C73.0674 64.008 74.467 62.9713 74.5138 63.0302H74.508Z" fill="#E0E0E0"/>
<g id="Group_7">
<path id="Vector_18" d="M74.4613 101.925C72.3765 100.228 70.2976 98.5319 68.2129 96.8296L74.4613 101.925Z" fill="white"/>
<path id="Vector_19" d="M68.2126 96.8294C68.2594 96.7705 69.7 97.8602 71.4217 99.268C73.1492 100.676 74.5078 101.866 74.461 101.925C74.4141 101.984 72.9735 100.894 71.2519 99.486C69.5244 98.0782 68.1658 96.8883 68.2126 96.8294Z" fill="#E0E0E0"/>
</g>
<path id="Vector_20" d="M18.4714 101.919C18.4246 101.86 19.7305 100.741 21.3877 99.4212C23.045 98.1017 24.427 97.0827 24.4797 97.1416C24.5266 97.2005 23.2207 98.3197 21.5634 99.6391C19.9062 100.959 18.5241 101.978 18.4714 101.919Z" fill="#E0E0E0"/>
<path id="Vector_21" d="M33.4453 76.967V86.751H61.0682V76.967H33.4453Z" fill="#E0E0E0"/>
</g>
<path id="Vector_22" d="M243.624 6.01123H190.323C190.293 6.01123 190.27 6.03479 190.27 6.06424V85.9202C190.27 85.9496 190.293 85.9732 190.323 85.9732H243.624" fill="#F5F5F5"/>
<path id="Vector_23" d="M244.245 86.5979H189.707C189.678 86.5979 189.655 86.5743 189.655 86.5449V5.44608C189.655 5.41663 189.678 5.39307 189.707 5.39307H244.245" fill="#EBEBEB"/>
<path id="Vector_24" d="M243.009 6.63574H190.943C190.914 6.63574 190.891 6.6593 190.891 6.68876V85.2959C190.891 85.3254 190.914 85.349 190.943 85.349H243.009" fill="#EBEBEB"/>
<path id="Vector_25" d="M238.342 10.9478H195.704C195.675 10.9478 195.651 10.9713 195.651 11.0008V80.9314C195.651 80.9609 195.675 80.9844 195.704 80.9844H238.342" fill="white"/>
<path id="Vector_26" d="M228.937 59.1016H205.009C205.009 59.1016 204.974 59.0839 204.974 59.0663V30.8395C204.974 30.8395 204.992 30.8042 205.009 30.8042H228.937" fill="#EBEBEB"/>
<path id="Vector_27" d="M216.967 37.3481C216.47 37.248 215.913 37.2833 215.398 37.4247C214.889 37.5837 214.367 37.8429 213.916 38.2022C213.009 38.9208 212.324 40.0047 212.048 41.1945C211.767 42.3844 211.931 43.639 212.505 44.7818C213.067 45.9186 214.01 46.867 215.088 47.4796C216.159 48.0922 217.412 48.3572 218.642 48.3101" fill="#E0E0E0"/>
<path id="Vector_28" d="M218.484 43.0562C217.448 43.9397 216.282 44.5229 215.082 44.8763C213.887 45.2239 212.657 45.3122 211.504 45.1532C210.35 44.9882 209.267 44.5641 208.388 43.9515C206.62 42.744 205.595 40.9062 205.413 39.2157C205.214 37.4898 205.841 36.0761 206.514 35.1513C207.205 34.2147 208.002 33.7317 208.552 33.5138C209.114 33.3017 209.431 33.3076 209.448 33.3606C209.472 33.4372 209.196 33.5609 208.74 33.8672C208.295 34.1794 207.662 34.7036 207.153 35.5813C206.655 36.4413 206.245 37.6901 206.503 39.0507C206.737 40.4055 207.662 41.8604 209.144 42.7735C210.596 43.7041 212.64 43.9398 214.596 43.2977C215.568 42.9855 216.534 42.4554 217.325 41.7426" fill="#E0E0E0"/>
<path id="Vector_29" d="M218.724 50.26C217.184 50.3365 215.556 50.0185 214.127 49.2056C212.71 48.4045 211.504 47.1911 210.742 45.6772C209.975 44.1811 209.729 42.361 210.133 40.7352C210.52 39.1154 211.439 37.6663 212.722 36.665C213.366 36.1643 214.098 35.7932 214.894 35.5635C215.697 35.3573 216.522 35.3161 217.336 35.4869" fill="#E0E0E0"/>
<path id="Vector_30" d="M244.216 120.691H215.72V113.11H244.216" fill="#EBEBEB"/>
<path id="Vector_31" d="M224.077 128.755C218.958 128.773 211.826 128.797 203.674 128.82H203.534V128.679C203.534 127.459 203.534 126.217 203.534 124.95C203.534 124.32 203.534 123.678 203.534 123.036C203.534 122.712 203.534 122.394 203.534 122.07V121.581V121.339V121.11V121.098C203.826 120.803 203.616 121.015 203.68 120.951C215.316 120.974 225.664 120.992 232.17 121.009" fill="#E0E0E0"/>
<path id="Vector_32" d="M232.164 121.186C225.658 121.198 215.31 121.221 203.674 121.245C203.739 121.18 203.528 121.392 203.815 121.098V121.581V122.07C203.815 122.394 203.815 122.718 203.815 123.036C203.815 123.678 203.815 124.314 203.815 124.95C203.815 126.216 203.815 127.459 203.815 128.679L203.674 128.537C211.785 128.561 218.888 128.584 223.977 128.602" fill="#E0E0E0"/>
<g id="Group_8">
<path id="Vector_33" d="M126.539 81.7973C126.539 81.7973 126.539 81.7502 126.533 81.6618C126.533 81.5617 126.533 81.4321 126.521 81.273C126.521 80.9137 126.509 80.4189 126.498 79.7828C126.486 78.4751 126.469 76.5902 126.451 74.2223L126.539 74.3106C120.033 74.3224 109.685 74.346 98.0492 74.3695C98.1137 74.3047 97.9028 74.5168 98.1898 74.2223V74.4638V74.7053V75.1942C98.1898 75.5181 98.1898 75.8421 98.1898 76.1602C98.1898 76.8022 98.1898 77.4384 98.1898 78.0746C98.1898 79.341 98.1898 80.5839 98.1898 81.8032L98.0492 81.6618C106.16 81.6854 113.263 81.7089 118.352 81.7266C120.888 81.7443 122.926 81.7561 124.343 81.7678C125.034 81.7737 125.578 81.7796 125.965 81.7855C126.141 81.7855 126.281 81.7914 126.387 81.7973C126.48 81.7973 126.533 81.8032 126.539 81.8091C126.539 81.8091 126.498 81.815 126.404 81.8209C126.299 81.8209 126.164 81.8209 126 81.8326C125.619 81.8326 125.086 81.8444 124.413 81.8503C123.002 81.8621 120.976 81.8739 118.452 81.8915C113.333 81.9092 106.201 81.9328 98.0492 81.9563H97.9087V81.815C97.9087 80.5957 97.9087 79.3528 97.9087 78.0864C97.9087 77.4561 97.9087 76.814 97.9087 76.172C97.9087 75.848 97.9087 75.5299 97.9087 75.206V74.717V74.4755V74.2458V74.234C98.2015 73.9395 97.9907 74.1516 98.0551 74.0868C109.691 74.1103 120.039 74.128 126.545 74.1457H126.632V74.234C126.609 76.6314 126.597 78.5281 126.586 79.8476C126.574 80.4778 126.568 80.9667 126.562 81.3202C126.562 81.4733 126.556 81.597 126.55 81.6913C126.55 81.7737 126.55 81.815 126.539 81.8091V81.7973Z" fill="#E0E0E0"/>
<path id="Vector_34" d="M130.398 74.2105C130.398 74.2105 130.392 74.1575 130.386 74.0691C130.386 73.9631 130.38 73.8276 130.374 73.6686C130.369 73.2975 130.357 72.7909 130.351 72.1488C130.339 70.8176 130.316 68.9445 130.292 66.6354L130.398 66.7415C125.965 66.7532 119.927 66.765 113.281 66.7827C113.152 66.9123 113.456 66.606 113.427 66.6354V66.8828V67.1302V67.625C113.427 67.9549 113.427 68.2847 113.427 68.6087C113.427 69.2626 113.427 69.9046 113.427 70.5408C113.427 71.8072 113.427 73.0383 113.427 74.2164L113.287 74.075C118.229 74.1044 122.481 74.1221 125.532 74.1398C127.037 74.1575 128.243 74.1692 129.098 74.181C129.496 74.1869 129.818 74.1928 130.058 74.1987C130.281 74.1987 130.398 74.2105 130.404 74.2164C130.404 74.2164 130.304 74.2281 130.093 74.234C129.859 74.234 129.549 74.2458 129.162 74.2517C128.313 74.2635 127.118 74.2753 125.625 74.2929C122.551 74.3106 118.264 74.3342 113.287 74.3577H113.146V74.2164C113.146 73.0383 113.146 71.8072 113.146 70.5408C113.146 69.9046 113.146 69.2626 113.146 68.6087C113.146 68.2847 113.146 67.9549 113.146 67.625V67.1302V66.8828V66.6472V66.6354C113.117 66.6649 113.421 66.3586 113.292 66.4882C119.939 66.5058 125.977 66.5176 130.41 66.5294H130.515V66.6354C130.492 68.968 130.474 70.8706 130.456 72.2136C130.445 72.8439 130.439 73.3446 130.433 73.7098C130.427 74.0514 130.415 74.2223 130.41 74.2164L130.398 74.2105Z" fill="#E0E0E0"/>
</g>
<g id="Group_9">
<path id="Vector_35" d="M30.5353 16.0722C30.5353 16.0722 30.5353 16.0251 30.5295 15.9367C30.5295 15.8366 30.5295 15.707 30.5178 15.548C30.5178 15.1886 30.5061 14.6938 30.4944 14.0577C30.4826 12.75 30.4651 10.8651 30.4475 8.49716L30.5353 8.58551C24.0293 8.5973 13.6817 8.62086 2.04581 8.64442C2.11023 8.57962 1.89941 8.79168 2.18636 8.49716V8.73866V8.98017V9.46907C2.18636 9.79304 2.18636 10.117 2.18636 10.4351C2.18636 11.0771 2.18636 11.7133 2.18636 12.3495C2.18636 13.6159 2.18636 14.8588 2.18636 16.0781L2.04581 15.9367C10.1564 15.9603 17.2598 15.9838 22.3486 16.0015C24.8843 16.0192 26.9222 16.031 28.3393 16.0427C29.0303 16.0486 29.575 16.0545 29.9615 16.0604C30.1371 16.0604 30.2777 16.0663 30.3831 16.0722C30.4768 16.0722 30.5295 16.0781 30.5353 16.084C30.5353 16.084 30.4944 16.0899 30.4007 16.0958C30.2952 16.0958 30.1606 16.0958 29.9966 16.1075C29.616 16.1075 29.0831 16.1193 28.4038 16.1252C26.9925 16.137 24.9663 16.1488 22.4423 16.1664C17.3242 16.1841 10.1915 16.2077 2.03996 16.2312H1.89941V16.0899C1.89941 14.8706 1.89941 13.6277 1.89941 12.3613C1.89941 11.731 1.89941 11.0889 1.89941 10.4469C1.89941 10.1229 1.89941 9.80482 1.89941 9.48085V8.99195V8.75045V8.52072V8.50894C2.19222 8.21442 1.9814 8.42647 2.04581 8.36168C13.6817 8.38524 24.0293 8.40291 30.5353 8.42058H30.6232V8.50894C30.5998 10.9063 30.5881 12.803 30.5763 14.1225C30.5646 14.7527 30.5588 15.2417 30.5529 15.5951C30.5529 15.7482 30.5471 15.8719 30.5412 15.9662C30.5412 16.0486 30.5412 16.0899 30.5295 16.084L30.5353 16.0722Z" fill="#E0E0E0"/>
<path id="Vector_36" d="M34.4003 8.49124C34.4003 8.49124 34.3945 8.43822 34.3886 8.34987C34.3886 8.24384 34.3827 8.10836 34.3769 7.94932C34.371 7.57823 34.3593 7.07165 34.3535 6.4296C34.3418 5.09837 34.3183 3.22523 34.2949 0.916199L34.4003 1.02223C29.9673 1.03401 23.9298 1.04579 17.2832 1.06346C17.1543 1.19305 17.4588 0.886747 17.4296 0.916199V1.1636V1.41099V1.90578C17.4296 2.23565 17.4296 2.56551 17.4296 2.88948C17.4296 3.54331 17.4296 4.18536 17.4296 4.82153C17.4296 6.08796 17.4296 7.31905 17.4296 8.49713L17.289 8.35576C22.2315 8.38521 26.483 8.40288 29.534 8.42055C31.039 8.43822 32.2453 8.45 33.1003 8.46178C33.4985 8.46767 33.8206 8.47356 34.0607 8.47945C34.2832 8.47945 34.4003 8.49124 34.4062 8.49713C34.4062 8.49713 34.3066 8.50891 34.0958 8.5148C33.8616 8.5148 33.5512 8.52658 33.1647 8.53247C32.3156 8.54425 31.1209 8.55603 29.6277 8.5737C26.5532 8.59137 22.2666 8.61493 17.289 8.63849H17.1485V8.49713C17.1485 7.31905 17.1485 6.08796 17.1485 4.82153C17.1485 4.18536 17.1485 3.54331 17.1485 2.88948C17.1485 2.56551 17.1485 2.23565 17.1485 1.90578V1.41099V1.1636V0.92798V0.916199C17.1192 0.945651 17.4237 0.639351 17.2949 0.76894C23.9415 0.786611 29.979 0.798392 34.412 0.810172H34.5174V0.916199C34.494 3.24879 34.4764 5.15139 34.4589 6.49439C34.4472 7.12467 34.4413 7.62535 34.4354 7.99055C34.4296 8.33219 34.4179 8.50302 34.412 8.49713L34.4003 8.49124Z" fill="#E0E0E0"/>
</g>
<g id="Group_10">
<path id="Vector_37" d="M29.2995 203.699C29.2995 203.699 29.2995 203.652 29.2937 203.563C29.2937 203.463 29.2937 203.333 29.2819 203.174C29.2819 202.815 29.2702 202.32 29.2585 201.684C29.2468 200.376 29.2292 198.492 29.2117 196.124L29.2995 196.212C22.7935 196.224 12.4459 196.247 0.809975 196.271C0.874391 196.206 0.663574 196.418 0.950519 196.124H0.956375V196.365V196.607V197.096C0.956375 197.419 0.956375 197.743 0.956375 198.062C0.956375 198.704 0.956375 199.34 0.956375 199.976C0.956375 201.242 0.956375 202.485 0.956375 203.705L0.815831 203.563C8.92642 203.587 16.0298 203.61 21.1187 203.628C23.6543 203.646 25.6922 203.657 27.1094 203.669C27.8004 203.675 28.345 203.681 28.7315 203.687C28.9072 203.687 29.0477 203.693 29.1531 203.699C29.2468 203.699 29.2995 203.705 29.3054 203.71C29.3054 203.71 29.2644 203.716 29.1707 203.722C29.0653 203.722 28.9306 203.722 28.7666 203.734C28.386 203.734 27.8531 203.746 27.1796 203.752C25.7683 203.763 23.7421 203.775 21.2182 203.793C16.1 203.811 8.96741 203.834 0.815831 203.858H0.663574V203.716C0.663574 202.497 0.663574 201.254 0.663574 199.988C0.663574 199.357 0.663574 198.715 0.663574 198.073C0.663574 197.749 0.663574 197.431 0.663574 197.107V196.618V196.377V196.147V196.135C0.956375 195.841 0.745558 196.053 0.809975 195.988C12.4459 196.012 22.7935 196.029 29.2995 196.047H29.3873V196.135C29.3639 198.533 29.3522 200.429 29.3405 201.749C29.3288 202.379 29.3229 202.868 29.3171 203.222C29.3171 203.375 29.3112 203.498 29.3054 203.593C29.3054 203.675 29.3054 203.716 29.2937 203.71L29.2995 203.699Z" fill="#E0E0E0"/>
<path id="Vector_38" d="M33.1645 196.118C33.1645 196.118 33.1586 196.065 33.1528 195.97C33.1528 195.864 33.1469 195.729 33.141 195.57C33.1352 195.199 33.1235 194.692 33.1176 194.05C33.1059 192.719 33.0825 190.846 33.0591 188.537L33.1645 188.643C28.7315 188.655 22.6939 188.666 16.0473 188.684C15.9185 188.814 16.223 188.507 16.1937 188.537V188.784V189.032V189.526C16.1937 189.856 16.1937 190.186 16.1937 190.51C16.1937 191.164 16.1937 191.806 16.1937 192.442C16.1937 193.709 16.1937 194.94 16.1937 196.118L16.0532 195.976C20.9957 196.006 25.2471 196.023 28.2981 196.041C29.8031 196.059 31.0095 196.071 31.8644 196.082C32.2626 196.088 32.5847 196.094 32.8248 196.1C33.0474 196.1 33.1645 196.112 33.1703 196.118C33.1703 196.118 33.0708 196.13 32.86 196.135C32.6257 196.135 32.3153 196.147 31.9289 196.153C31.0797 196.165 29.8851 196.177 28.3918 196.194C25.3174 196.212 21.0308 196.236 16.0532 196.259H15.9126V196.118C15.9126 194.94 15.9126 193.709 15.9126 192.442C15.9126 191.806 15.9126 191.164 15.9126 190.51C15.9126 190.186 15.9126 189.856 15.9126 189.526V189.032V188.784V188.549V188.537C15.8834 188.566 16.1879 188.26 16.059 188.39C22.7056 188.407 28.7432 188.419 33.1762 188.431H33.2816V188.537C33.2582 190.869 33.2406 192.772 33.223 194.115C33.2113 194.745 33.2055 195.246 33.1996 195.611C33.1938 195.953 33.182 196.124 33.1762 196.118H33.1645Z" fill="#E0E0E0"/>
</g>
<path id="&#38;lt;Path&#38;gt;" d="M242.833 195.305C242.833 198.987 191.997 201.973 129.291 201.973C66.5846 201.973 15.7485 198.987 15.7485 195.305C15.7485 191.624 66.5846 188.637 129.291 188.637C191.997 188.637 242.833 191.624 242.833 195.305Z" fill="#F5F5F5"/>
</g>
<g id="Character 2">
<g id="Character 3">
<g id="Group_11">
<g id="Group_12">
<path id="Vector_39" d="M117.532 73.439L111.664 93.5016L118.071 96.8238L123.072 80.0951L117.532 73.439Z" fill="#FFB570"/>
<path id="Vector_40" d="M124.062 65.5401C120.958 65.8758 118.241 68.6914 116.988 73.1033C115.734 77.5152 114.042 84.3775 114.042 84.3775C114.042 84.3775 117.45 88.1297 122.076 86.9929L124.056 65.5342L124.062 65.5401Z" fill="#E6E6E6"/>
<path id="Vector_41" d="M116.068 181.834L116.08 180.985C115.734 181.975 114.124 186.222 111.758 188.325C109.872 189.998 107.313 191.924 106.64 193.815C105.937 195.776 110.124 196.507 111.857 196.23C113.878 195.906 116.501 194.792 117.948 193.067C118.967 191.847 119.623 190.398 120.349 189.438C121.075 188.478 122.738 187.424 123.136 186.31C123.359 185.698 123.13 184.343 122.849 183.2C122.592 182.152 122.316 180.991 121.959 181.085C121.959 181.215 121.947 181.733 121.947 181.733C121.514 182.205 120.325 182.658 118.99 182.688C118.129 182.705 116.045 182.499 116.062 181.839L116.068 181.834Z" fill="#263238"/>
<path id="Vector_42" d="M110.054 189.803C110.639 189.297 111.225 188.802 111.758 188.325C113.415 186.852 114.698 184.337 115.435 182.617C115.857 181.633 116.085 180.585 116.103 179.513L116.156 176.138L122.328 175.849L121.953 181.722V181.869L121.918 181.881C121.613 183.106 118.861 186.334 117.298 188.443C116.249 189.856 114.264 191.647 111.922 191.918C109.702 192.177 108.584 191.459 110.048 189.798L110.054 189.803Z" fill="#FFA8A7"/>
<path id="Vector_43" d="M146.174 182.918L145.951 182.099C145.893 183.147 145.541 187.677 143.861 190.369C142.525 192.507 140.605 195.081 140.487 197.084C140.365 199.169 144.581 198.68 146.174 197.921C148.018 197.037 150.226 195.229 151.134 193.155C151.766 191.7 151.995 190.122 152.422 188.997C152.85 187.872 154.15 186.387 154.22 185.203C154.261 184.555 153.664 183.318 153.072 182.299C152.533 181.363 151.942 180.332 151.626 180.526C151.661 180.65 151.795 181.151 151.795 181.151C151.509 181.722 150.495 182.494 149.225 182.906C148.405 183.171 146.344 183.566 146.18 182.924L146.174 182.918Z" fill="#263238"/>
<path id="Vector_44" d="M142.631 192.266C143.047 191.612 143.474 190.97 143.855 190.363C145.032 188.484 145.559 185.704 145.787 183.842C145.916 182.782 145.84 181.704 145.559 180.673L144.663 177.422L150.337 175.843L151.79 181.139L151.831 181.28L151.807 181.304C151.86 182.564 150.127 186.44 149.207 188.908C148.592 190.563 147.193 192.837 145.026 193.768C142.97 194.645 141.694 194.274 142.637 192.26L142.631 192.266Z" fill="#FFA8A7"/>
<g id="Group_13">
<path id="Vector_45" d="M142.994 96.4587C146.261 100.676 146.853 105.035 146.138 117.37C145.424 129.704 145.201 140.018 145.383 140.707C145.565 141.396 148.217 147.063 149.195 151.64C150.337 157 150.618 176.863 150.618 176.863C150.618 176.863 148.516 179.26 144.932 178.382C144.932 178.382 135.469 146.392 134.549 143.611C133.63 140.837 127.815 111.615 127.815 111.615L128.699 95.1157L143 96.4528L142.994 96.4587Z" fill="#263238"/>
<path id="Vector_46" d="M118.03 110.648C118.527 104.952 119.74 95.086 119.74 95.086L134.216 94.2319C136.564 97.9075 135.539 104.022 134.901 109.547L126.62 142.15C126.79 143.711 128.219 147.022 126.62 155.415C124.834 164.787 122.375 177.133 122.375 177.133C122.375 177.133 119.259 178.576 116.138 177.257C116.138 177.257 114.938 147.563 115.705 139.458C116.536 130.682 117.684 114.548 118.024 110.648H118.03Z" fill="#263238"/>
<path id="Vector_47" d="M130.351 124.479L127.985 112.516C127.985 112.516 124.46 111.285 122.076 109.488C122.076 109.488 124.02 112.015 126.211 113.323L130.345 124.479H130.351Z" fill="#263238"/>
</g>
<path id="Vector_48" d="M118.071 63.7316H129.73C137.612 63.7316 143.995 57.3052 143.995 49.3826C143.995 42.1787 138.192 36.3413 131.03 36.3413C123.868 36.3413 118.065 42.1787 118.065 49.3826V63.7316H118.071Z" fill="#263238"/>
<path id="Vector_49" d="M141.823 65.9522C144.071 66.0641 145.729 66.4882 147.257 70.9354C148.785 75.3827 151.977 92.4471 150.905 94.226L143.796 91.2102L142.01 81.8386C137.993 78.3691 138.239 67.1951 141.823 65.9463V65.9522Z" fill="#FFB570"/>
<path id="Vector_50" d="M120.659 85.838C120.302 89.1602 118.973 101.453 118.973 101.453C129.882 107.308 143.422 103.433 145.489 101.018C143.615 94.8032 141.594 91.2689 140.048 89.6137L142.016 81.8502C142.016 81.8502 137.144 74.8407 141.829 65.958L136.043 65.4808L127.546 65.2275C125.514 65.3395 124.067 65.5397 124.067 65.5397C122.767 66.7649 120.712 70.1342 119.383 73.5565C118.528 75.7654 117.596 79.2938 120.659 85.838Z" fill="#F5F5F5"/>
<path id="Vector_51" d="M141.823 65.952C144.382 65.8048 145.916 66.4409 147.767 70.576C149.617 74.711 151.116 84.8072 151.116 84.8072C151.116 84.8072 149.547 88.0056 141.823 87.0985L140.634 80.089C140.634 80.089 137.226 72.8025 141.823 65.952Z" fill="#E6E6E6"/>
<path id="Vector_52" d="M141.02 85.7559C140.927 86.1388 138.368 89.5316 137.115 90.3386C135.861 91.1456 139.334 92.2471 139.826 94.2322C140.816 98.2494 137.94 102.585 128.172 102.85C125.871 102.915 125.771 103.403 126.96 104.116C135.639 105.548 143.902 102.856 145.483 101.012C143.609 94.7976 141.589 91.2634 140.043 89.6082L141.02 85.75V85.7559Z" fill="#E6E6E6"/>
<path id="Vector_53" d="M122.703 42.0198C121.333 42.8326 119.64 46.2962 119.81 53.559C119.951 59.7145 121.936 61.2342 122.931 61.6701C123.927 62.106 125.848 61.8409 127.716 61.5287V65.222C127.716 65.222 127.891 66.5532 128.875 67.1776C130.398 68.1377 132.202 67.7725 133.209 67.4073C135.44 66.6003 135.885 65.4929 135.885 65.4929L135.844 56.999C135.844 56.999 136.945 58.0711 138.807 56.4335C140.347 55.0787 140.863 52.7992 139.662 51.574C138.462 50.3488 136.248 50.6845 135.399 52.4281C135.399 52.4281 134.304 52.5164 133.209 50.4725C133.209 50.4725 133.244 44.9119 132.014 44.1874C128.108 41.8902 125.327 42.0139 122.703 42.0139V42.0198Z" fill="#FFB570"/>
<path id="Vector_54" d="M126.638 51.6209C126.614 52.0627 126.942 52.4397 127.364 52.4632C127.786 52.4809 128.149 52.1393 128.172 51.6975C128.196 51.2557 127.868 50.8787 127.446 50.8551C127.024 50.8375 126.661 51.1791 126.638 51.6209Z" fill="#263238"/>
<g id="Group_14" style="mix-blend-mode:multiply" opacity="0.5">
<path id="Vector_55" d="M126.433 57.2285L124.647 57.7999C124.793 58.3124 125.315 58.601 125.806 58.442C126.298 58.2829 126.579 57.741 126.433 57.2227V57.2285Z" fill="#F28F8F"/>
</g>
<path id="Vector_56" d="M120.759 49.2119L122.316 48.128C122.029 47.6804 121.455 47.5626 121.022 47.863C120.595 48.1634 120.472 48.7701 120.759 49.2178V49.2119Z" fill="#263238"/>
<path id="Vector_57" d="M127.715 48.9053L129.484 49.5886C129.689 49.0997 129.466 48.5518 128.974 48.3634C128.488 48.1749 127.92 48.4164 127.715 48.9053Z" fill="#263238"/>
<path id="Vector_58" d="M120.413 51.45C120.39 51.8918 120.718 52.2688 121.139 52.2923C121.561 52.31 121.924 51.9684 121.948 51.5266C121.971 51.0848 121.643 50.7078 121.221 50.6842C120.8 50.6666 120.437 51.0082 120.413 51.45Z" fill="#263238"/>
<g id="Group_15" style="mix-blend-mode:multiply" opacity="0.5">
<path id="Vector_59" d="M124.319 51.0083L124.196 55.6676L121.76 54.9077L124.319 51.0083Z" fill="#F28F8F"/>
</g>
<g id="Group_16" style="mix-blend-mode:multiply" opacity="0.5">
<path id="Vector_60" d="M127.715 61.5287C129.683 61.2695 133.729 60.0973 134.362 58.4893C134.362 58.4893 134.151 59.5024 132.945 60.545C131.733 61.5876 127.715 62.7598 127.715 62.7598V61.5287Z" fill="#F28F8F"/>
</g>
<path id="Vector_61" d="M132.91 37.0363L133.208 33.6199C132.254 33.502 131.417 34.1736 131.329 35.116C131.247 36.0585 131.955 36.9185 132.904 37.0363H132.91Z" fill="#263238"/>
<path id="Vector_62" d="M133.097 37.3778L135.85 35.3515C135.305 34.5504 134.251 34.3619 133.49 34.9215C132.728 35.4811 132.553 36.5826 133.097 37.3837V37.3778Z" fill="#263238"/>
<path id="Vector_63" d="M135.399 52.4278V55.6675C134.186 55.6675 133.208 54.6838 133.208 53.4645V50.4722L135.399 52.4278Z" fill="#263238"/>
<path id="Vector_64" d="M126.638 37.1069C120.63 37.1069 115.758 42.0077 115.758 48.0513V49.4709H121.081C123.558 49.4709 125.66 47.6272 125.994 45.1591L126.187 49.4709C128.231 49.4709 129.935 47.8981 130.111 45.8542L130.169 45.1532C130.363 47.5918 132.389 49.4767 134.825 49.4767H135.299L135.844 41.7427L126.638 37.1128V37.1069Z" fill="#263238"/>
<path id="Vector_65" d="M137.103 50.9609H131.018C130.778 49.7946 129.748 48.9229 128.518 48.9229H128.125C127.06 48.9229 126.152 49.5826 125.765 50.5133C125.414 50.1422 124.881 49.8889 124.278 49.8594C123.751 49.83 123.288 49.9772 122.96 50.2541C122.527 49.4648 121.696 48.9229 120.735 48.9229H120.343C118.937 48.9229 117.79 50.0774 117.79 51.4911C117.79 52.9048 118.937 54.0593 120.343 54.0593H120.735C122.141 54.0593 123.288 52.9048 123.288 51.4911C123.288 51.2024 123.23 50.9315 123.142 50.6782C123.382 50.419 123.792 50.2718 124.255 50.2953C124.84 50.3248 125.367 50.5957 125.601 50.9845L125.625 50.9727C125.59 51.1435 125.572 51.3143 125.572 51.4911C125.572 52.9048 126.72 54.0593 128.125 54.0593H128.518C129.923 54.0593 131.071 52.9048 131.071 51.4911C131.071 51.4616 131.065 51.4263 131.059 51.3968H136.236C136.453 51.226 136.745 51.0846 137.097 50.9609H137.103ZM120.735 53.6234H120.343C119.172 53.6234 118.223 52.6632 118.223 51.4911C118.223 50.3189 119.177 49.3587 120.343 49.3587H120.735C121.906 49.3587 122.855 50.3189 122.855 51.4911C122.855 52.6632 121.9 53.6234 120.735 53.6234ZM128.518 53.6234H128.125C126.954 53.6234 126.006 52.6632 126.006 51.4911C126.006 50.3189 126.96 49.3587 128.125 49.3587H128.518C129.689 49.3587 130.638 50.3189 130.638 51.4911C130.638 52.6632 129.683 53.6234 128.518 53.6234Z" fill="#455A64"/>
</g>
<g id="Group_17">
<path id="Vector_66" d="M150.905 94.2317C149.318 96.0989 134.901 109.547 134.901 109.547L135.399 101.418L143.796 91.2158L150.905 94.2317Z" fill="#FFB570"/>
<path id="Vector_67" d="M123.054 115.779L127.944 112.292C132.611 108.964 138.174 103.733 138.174 97.7188C138.174 93.5072 134.778 89.6372 130.591 89.0776C126.737 88.5592 123.557 92.3762 123.071 96.0577C122.585 92.2466 119.406 87.5814 115.552 87.0631C111.365 86.5035 107.969 89.4605 107.969 93.678C107.969 99.7038 113.514 106.413 118.17 110.984L123.054 115.779Z" fill="#004FF1"/>
<path id="Vector_68" d="M136.347 103.798C134.386 104.982 131.036 105.017 128.781 105.117C126.527 105.217 123.739 108.687 125.572 110.089C127.189 111.326 131.381 112.445 134.907 109.553L136.347 103.804V103.798Z" fill="#FFB570"/>
<path id="Vector_69" d="M108.197 95.8633C107.659 96.2992 107.5 97.7188 107.828 99.2267C108.139 100.652 109.421 103.079 111.231 103.798C112.056 104.122 115.64 104.234 117.368 102.366C119.201 100.387 119.049 97.0001 116.425 97.6009C112.941 98.3903 108.801 97.9897 108.801 97.9897C108.566 97.3594 108.367 96.6526 108.197 95.8692V95.8633Z" fill="#FFB570"/>
</g>
</g>
</g>
</g>
<g id="Character 3_2">
<g id="Character 2_2">
<g id="Group_18">
<g id="Group_19">
<path id="Vector_70" d="M203.422 181.015H197.648V189.162H203.422V181.015Z" fill="#FFA8A7"/>
<path id="Vector_71" d="M197.648 186.399V185.598C197.098 185.833 195.816 190.575 193.526 192.602C191.705 194.21 189.222 196.071 188.589 197.862C187.933 199.729 192.05 200.76 193.748 200.465C195.722 200.124 199.148 198.775 200.008 197.526C200.869 196.277 201.273 194.433 201.97 193.515C202.667 192.596 204.277 191.577 204.658 190.516C204.863 189.933 204.617 188.661 204.33 187.583C204.061 186.593 203.774 185.509 203.422 185.598C203.422 185.716 203.422 186.21 203.422 186.21C203.001 186.658 201.847 187.106 200.535 187.153C199.692 187.182 197.643 187.023 197.648 186.399Z" fill="#263238"/>
</g>
<g id="Group_20">
<path id="Vector_72" d="M177.966 182.929L172.198 183.118L172.69 174.883L178.458 174.688L177.966 182.929Z" fill="#FFA8A7"/>
<path id="Vector_73" d="M172.304 181.397C172.005 181.409 171.777 181.816 171.115 182.511C170.318 183.347 169.007 184.254 167.718 184.879C165.557 185.927 161.359 187.541 159.455 188.372C158.267 188.89 158.325 190.28 159.549 191.069C160.779 191.859 163.742 192.43 167.303 191.658C169.241 191.24 171.765 189.503 173.364 189.597C174.962 189.691 177.949 189.667 179.132 188.878C180.309 188.089 179.84 186.41 179.506 184.961C179.143 183.382 178.622 180.914 178.083 181.02L178.042 181.68C177.351 182.699 173.779 182.905 172.257 182.151L172.304 181.391V181.397Z" fill="#263238"/>
</g>
<g id="Group_21">
<path id="Vector_74" d="M178.88 76.7141C176.274 79.1351 160.919 86.8986 160.076 86.7867C158.811 86.6158 154.244 82.2216 150.297 78.2044C149.682 75.1296 148.78 71.2537 147.773 69.0861C146.994 67.4132 146.273 66.3353 145.506 65.652L145.77 64.6094L160.632 78.2515C160.632 78.2515 176.941 66.3588 179.342 65.652C181.738 64.951 181.486 74.2873 178.88 76.7141Z" fill="#FFB570"/>
<path id="Vector_75" d="M139.984 62.8421C137.987 63.3251 136.471 64.6269 136.799 66.718C137.015 68.0963 139.358 69.0977 140.617 68.0492C141.636 67.2069 144.663 65.1806 146.051 66.2173C146.268 66.6414 146.455 67.1244 146.362 68.2082C146.268 69.298 146.842 70.0696 147.181 70.0225C147.521 69.9695 148.042 68.2377 148.095 67.5544C148.177 66.5 147.55 63.4017 142.684 62.7714L142.696 62.7832C141.759 62.6359 140.716 62.6595 139.973 62.8362L139.984 62.8421Z" fill="#FFB570"/>
</g>
<path id="Vector_76" d="M214.982 97.5951C214.854 95.9046 211.885 88.1882 210.409 85.0015L202.931 88.3943L205.794 94.7501L213.542 100.552C215.55 100.258 215.041 98.3078 214.982 97.5951Z" fill="#FFB570"/>
<g id="Group_22">
<path id="Vector_77" d="M200.342 102.213C200.342 107.556 201.057 142.103 201.057 142.103C201.191 143.64 203.212 148.694 203.422 155.839C203.657 163.868 203.903 181.963 203.903 181.963C203.903 181.963 201.197 184.561 197.373 181.963C197.373 181.963 191.078 155.551 189.14 145.514C188.238 138.581 185.977 118.683 185.977 118.683L181.293 141.331C181.293 141.331 181.902 144.695 181.902 149.372C181.902 153.059 178.581 176.992 178.581 176.992C178.581 176.992 175.325 178.906 172.192 177.092C172.192 177.092 170.312 144.707 170.26 141.331C170.195 137.208 173.34 102.213 173.34 102.213H200.33H200.342Z" fill="#263238"/>
<path id="Vector_78" d="M185.983 118.683L185.315 113.847C185.315 113.847 180.959 111.909 179.436 110.542C179.436 110.542 182.171 114.041 183.892 115.019L181.784 138.975L185.983 118.683Z" fill="#263238"/>
</g>
<g id="Group_23">
<path id="Vector_79" d="M181.586 64.9686C178.558 64.9333 174.512 67.5133 171.139 70.0226C167.765 72.5319 164.919 74.6583 164.919 74.6583C165.523 77.7331 167.52 80.5487 169.698 82.8577L179.366 77.7743C179.366 77.7743 183.588 69.4748 181.58 64.9686H181.586Z" fill="#E6E6E6"/>
<path id="Vector_80" d="M191.658 65.2216C196.835 66.4291 203.399 68.4554 205.695 73.0735C207.99 77.6974 211.539 85.1841 211.539 85.1841C209.208 87.4048 206.362 89.0541 202.972 90.0908L200.342 85.6553V102.207C196.296 106.472 182.189 108.463 173.352 102.207C173.352 102.207 173.352 79.2996 173.352 74.9407C173.352 70.5818 175.847 65.3512 182.745 64.9624L191.658 65.2157V65.2216Z" fill="#F5F5F5"/>
<path id="Vector_81" d="M200.342 85.6613C200.342 85.6613 197.748 81.2965 197.186 80.248L200.342 90.78V85.6613Z" fill="#E6E6E6"/>
</g>
<g id="Group_24">
<g id="Group_25">
<path id="Vector_82" d="M193.602 42.9264C193.602 42.9264 195.031 42.6908 196.149 43.7923C197.245 44.8761 197.016 46.8789 196.149 51.4852L192.771 51.8621L193.608 42.9264H193.602Z" fill="#263238"/>
<path id="Vector_83" d="M173.902 41.5954C173.902 41.5954 172.538 41.5954 171.788 41.1771C170.752 40.5999 170.483 41.7426 171.051 42.7322C171.619 43.7218 172.679 45.0177 174.968 45.2592C174.998 45.1178 175.94 42.7027 175.94 42.7027L173.902 41.5895V41.5954Z" fill="#263238"/>
<path id="Vector_84" d="M192.015 51.8684C192.519 52.157 193.233 51.2263 193.848 50.5961C194.469 49.9717 196.483 49.1117 197.491 51.1674C198.515 53.2644 196.185 56.0506 194.82 56.9695C193.192 58.0651 192.009 57.2051 192.009 57.2051L191.652 65.2219C191.652 65.2219 189.86 69.4748 185 70.1109C180.145 70.7471 181.141 66.8712 182.739 64.9686V62.0529C182.739 62.0529 180.239 62.53 179.056 62.2355C177.803 61.9233 176.128 60.7452 175.46 58.6482C174.623 56.0152 173.622 51.4914 174.641 45.4714C175.876 38.1968 184.332 38.079 189.076 40.9712C193.819 43.8634 192.009 51.8625 192.009 51.8625L192.015 51.8684Z" fill="#FFB570"/>
<path id="Vector_85" d="M192.015 52.6811C192.267 52.6811 193.228 51.1437 193.848 50.5959C194.715 49.836 193.596 42.9266 193.596 42.9266C193.596 42.9266 194.469 40.3054 192.759 38.5677C191.049 36.8301 187.735 37.1246 185.316 37.0362C182.798 36.9479 180.098 36.8006 176.655 35.3516C173.218 33.9025 172.96 33.7317 172.532 35.1984C172.105 36.6651 171.947 40.0168 173.996 42.261L175.706 42.8677C175.706 42.8677 176.626 43.6629 179.835 44.0399C183.044 44.4169 188.039 43.9692 188.724 43.875C189.655 43.7513 189.855 44.623 190.352 47.0145C190.791 49.1115 191.16 52.6634 192.004 52.6811H192.015Z" fill="#263238"/>
<path id="Vector_86" d="M193.596 43.4624L196.63 41.8838C196.202 41.0414 195.171 40.7116 194.334 41.1475C193.497 41.5834 193.169 42.6201 193.596 43.4624Z" fill="#263238"/>
<path id="Vector_87" d="M182.751 62.0526C182.751 62.0526 187.248 61.1749 188.818 60.3621C189.872 59.8201 190.739 58.8777 190.99 58.2769C190.99 58.2769 190.698 59.5727 189.755 60.7331C188.607 62.1586 182.745 63.2071 182.745 63.2071V62.0467L182.751 62.0526Z" fill="#F28F8F"/>
</g>
<g id="Group_26">
<path id="Vector_88" d="M183.834 50.7787C183.834 51.2794 184.238 51.6858 184.736 51.6858C185.234 51.6858 185.638 51.2794 185.638 50.7787C185.638 50.278 185.234 49.8716 184.736 49.8716C184.238 49.8716 183.834 50.278 183.834 50.7787Z" fill="#263238"/>
<path id="Vector_89" d="M184.953 47.1618L186.879 48.1926C187.166 47.6566 186.961 46.9909 186.428 46.7023C185.895 46.4196 185.234 46.6198 184.953 47.1559V47.1618Z" fill="#263238"/>
<path id="Vector_90" d="M183.899 56.6982L181.843 57.4463C182.048 58.0177 182.675 58.3122 183.243 58.106C183.811 57.8999 184.104 57.2696 183.905 56.6982H183.899Z" fill="#F28F8F"/>
<path id="Vector_91" d="M175.483 48.2633L177.24 46.9498C176.883 46.4609 176.198 46.3607 175.712 46.7201C175.226 47.0853 175.126 47.7744 175.483 48.2575V48.2633Z" fill="#263238"/>
<path id="Vector_92" d="M176.338 50.5253C176.338 51.026 176.742 51.4324 177.24 51.4324C177.738 51.4324 178.142 51.026 178.142 50.5253C178.142 50.0246 177.738 49.6182 177.24 49.6182C176.742 49.6182 176.338 50.0246 176.338 50.5253Z" fill="#263238"/>
<path id="Vector_93" d="M180.929 49.7007L180.637 54.949L177.802 54.0183L180.929 49.7007Z" fill="#F28F8F"/>
</g>
</g>
<path id="Vector_94" d="M170.711 106.402L174.582 104.405C178.277 102.496 182.686 99.2565 182.686 94.6679C182.686 91.4518 179.999 88.0413 176.678 87.0458C173.627 86.1328 171.103 88.6126 170.723 91.3517C170.342 88.3829 167.818 84.3892 164.767 83.4703C161.453 82.4748 158.759 84.2773 158.759 87.4876C158.759 92.0821 163.151 97.9548 166.84 102.072L170.711 106.396V106.402Z" fill="#004FF1"/>
<path id="Vector_95" d="M213.542 100.552L205.794 94.7503C205.794 94.7503 190.176 97.2125 188.343 97.3539C186.51 97.4953 184.894 96.1523 184.197 94.4028C183.501 92.6593 182.405 92.8478 182.405 92.8478C182.728 93.8845 182.733 94.8799 182.581 95.8518C181.955 96.5057 178.335 97.1654 175.899 96.3643C173.463 95.5632 169.932 96.7236 172.116 99.9457C174.301 103.162 178.552 103.533 181.504 103.533C182.318 103.533 183.77 103.474 185.199 103.291C186.153 103.174 187.102 103.079 188.068 103.009C194.112 102.59 210.795 101.377 213.542 100.546V100.552Z" fill="#FFB570"/>
</g>
</g>
</g>
<g id="Character 1">
<g id="Character 1_2">
<g id="Character2">
<path id="Vector_96" d="M75.0586 64.3562C80.3876 63.4078 80.6218 64.1206 97.3934 73.2448C97.3934 73.2448 117.146 65.4518 119.488 64.1382C121.831 62.8247 125.186 61.947 127.71 63.4314C127.3 63.4491 126.316 63.5492 125.924 63.7318C125.637 63.8673 124.683 64.3444 124.8 64.7744C124.846 64.9511 125.081 65.01 125.268 65.0218C125.678 65.0512 126.088 65.0336 126.492 64.9629C126.96 64.8863 127.517 64.7685 127.839 65.1101C128.102 65.387 128.032 65.8523 127.792 66.1469C127.552 66.4414 127.189 66.6122 126.838 66.7771C126.258 67.0422 125.684 67.3073 125.104 67.5723C124.688 67.7608 124.267 67.9552 123.898 68.2262C123.552 68.4794 123.259 68.7975 122.902 69.039C121.79 69.7871 120.484 69.3983 119.318 69.8814C119.119 69.9638 118.92 70.064 118.727 70.1523C117.866 70.547 117.046 71.0182 116.232 71.4894C113.843 72.8678 111.506 74.3404 109.164 75.7894C106.88 77.2031 104.602 78.6286 102.248 79.9245C101.387 80.3957 100.462 80.9788 99.4899 81.2027C96.5326 81.8918 79.7376 74.7763 79.7376 74.7763L75.0703 64.3562H75.0586Z" fill="#9E6767"/>
<g id="Group_27">
<path id="Vector_97" d="M68.4643 36.5767H72.4582C78.5836 36.5767 83.5495 41.5776 83.5495 47.7331V48.8051C83.5495 54.9252 78.607 59.8967 72.5226 59.8967H68.3999C62.3155 59.8967 57.373 54.9252 57.373 48.8051V47.7331C57.373 41.5717 62.3448 36.5767 68.4643 36.5767Z" fill="#001C54"/>
<path id="Vector_98" d="M62.6437 187.253V186.434C62.9774 187.394 64.5176 191.529 66.8483 193.602C68.7046 195.252 71.2344 197.154 71.8786 198.986C72.5462 200.895 68.3533 201.537 66.6199 201.236C64.6054 200.889 61.9995 199.776 60.5765 198.079C59.581 196.889 58.9427 195.476 58.2282 194.533C57.5138 193.597 55.8741 192.548 55.4876 191.464C55.2768 190.869 55.5286 189.562 55.8272 188.46C56.1025 187.447 56.3953 186.334 56.7525 186.428C56.7525 186.552 56.7525 187.052 56.7525 187.052C57.18 187.512 58.3629 187.971 59.6922 188.018C60.5531 188.048 62.6437 187.883 62.6319 187.247L62.6437 187.253Z" fill="#263238"/>
<path id="Vector_99" d="M68.5289 195.052C67.955 194.551 67.3753 194.062 66.8482 193.597C65.2144 192.148 63.9729 189.691 63.2585 188.018C62.8486 187.064 62.6436 186.039 62.6436 185.008V181.745H56.7583V187.058V187.2L56.7876 187.211C57.0687 188.401 59.7683 191.564 61.3084 193.626C62.3391 195.01 64.2891 196.772 66.6257 197.072C68.8393 197.361 69.9695 196.683 68.5289 195.046V195.052Z" fill="#9E6767"/>
<path id="Vector_100" d="M85.5934 181.61V180.791C85.9272 181.751 87.4673 185.886 89.798 187.959C91.6543 189.609 94.1841 191.511 94.8283 193.343C95.4959 195.252 91.303 195.894 89.5696 195.593C87.5551 195.246 84.9492 194.133 83.5262 192.436C82.5307 191.246 81.8924 189.833 81.1779 188.89C80.4635 187.953 78.8238 186.905 78.4373 185.821C78.2265 185.226 78.4783 183.919 78.777 182.817C79.0522 181.804 79.345 180.691 79.7022 180.785C79.7022 180.909 79.7022 181.409 79.7022 181.409C80.1297 181.869 81.3126 182.328 82.6419 182.375C83.5028 182.405 85.5934 182.24 85.5816 181.604L85.5934 181.61Z" fill="#263238"/>
<path id="Vector_101" d="M91.4786 189.408C90.9047 188.908 90.325 188.419 89.7979 187.954C88.1641 186.504 86.9226 184.048 86.2082 182.375C85.7983 181.421 85.5933 180.396 85.5933 179.365V176.102H79.708V181.415V181.557L79.7373 181.568C80.0184 182.758 82.718 185.921 84.2581 187.983C85.2888 189.367 87.2389 191.128 89.5754 191.429C91.789 191.717 92.9192 191.04 91.4786 189.403V189.408Z" fill="#9E6767"/>
<path id="Vector_102" d="M57.9294 98.2902C53.3676 107.986 58.0934 142.126 58.0934 142.126C57.9587 143.699 56.1082 146.798 55.4172 153.719C54.6032 161.9 56.6938 182.44 56.6938 182.44C56.6938 182.44 59.4168 184.172 62.6435 182.67C62.6435 182.67 68.2536 151.734 69.3076 143.605C70.227 136.507 71.9956 120.897 71.9956 120.897L77.0142 143.564C77.0142 143.564 75.7258 147.54 75.4213 150.567C74.947 155.35 79.7079 177.628 79.7079 177.628C79.7079 177.628 81.74 178.352 85.5932 177.799C85.5932 177.799 87.2798 148.241 87.7248 142.48C88.4685 132.802 85.8275 102.602 84.0063 96.8706L57.9294 98.2902Z" fill="#263238"/>
<path id="Vector_103" d="M71.9897 120.891L73.4713 111.891C73.4713 111.891 79.7373 110.63 82.5774 108.027C82.5774 108.027 79.5967 111.632 75.1696 112.816L73.5065 119.749L76.4169 140.736L71.9956 120.891H71.9897Z" fill="#263238"/>
<path id="Vector_104" d="M65.9758 64.615C60.1257 65.0038 59.7157 67.7546 58.2517 70.7587C57.1391 73.0441 57.1274 75.7007 57.9765 78.0922L62.0523 89.5608C62.0523 89.5608 60.1432 94.0492 57.9297 98.2903C68.1601 103.845 80.9321 100.923 84.0065 96.8707C84.1353 96.0108 83.3448 89.2898 82.8587 84.9015C84.6624 80.5073 85.1367 77.7211 84.3754 74.8113C82.9641 69.4157 77.4888 64.1614 75.0644 64.3558L65.9758 64.615Z" fill="#F5F5F5"/>
<path id="Vector_105" d="M62.4562 97.4009C62.4562 97.4009 63.6626 92.7299 64.0901 91.7226C64.7459 90.1852 66.1631 90.3855 66.1631 90.3855C64.8396 89.5314 63.9144 88.1943 63.604 86.6804L62.3625 80.6133C62.3625 80.6133 64.6698 73.486 64.4356 71.0474L58.5678 71.3772C58.5678 71.3772 58.275 71.5775 57.8066 71.8897C57.1683 73.8924 57.262 76.0778 57.9764 78.0864L62.0522 89.555C62.0522 89.555 60.1431 94.0434 57.9295 98.2845C65.4662 102.378 74.3849 101.866 79.7842 99.6923L62.4562 97.4009Z" fill="#E6E6E6"/>
<path id="Vector_106" d="M50.4924 94.073C50.5276 93.6194 52.542 81.5559 54.1466 73.4036C55.23 67.9079 57.4728 65.8992 61.8824 65.2395L63.4401 65.0039C65.5307 71.6836 64.0901 74.7113 61.3378 79.2822L58.7319 91.4812L52.4366 97.6779C50.2699 97.2597 50.4397 94.7091 50.4866 94.073H50.4924Z" fill="#9E6767"/>
<path id="Vector_107" d="M79.2512 41.7251C80.6332 42.5203 82.3431 45.9014 82.1733 52.9934C82.0328 59.0016 80.03 60.486 79.0228 60.916C78.0155 61.346 76.0772 61.0809 74.1916 60.7805V64.3854C74.1916 64.3854 76.7975 67.3306 76.6335 68.9858C76.4696 70.641 72.874 71.0298 70.432 69.4158C67.9959 67.8018 66.4323 65.3397 66.4323 65.3397V56.6219C66.4323 56.6219 65.1616 58.2771 63.0768 56.9282C60.9921 55.5852 60.916 52.2571 62.1282 51.0614C63.3404 49.8656 65.9463 50.2426 66.4323 51.8978C66.4323 51.8978 69.4365 52.0038 73.442 49.8656C77.4475 47.7274 78.9818 44.0636 79.2512 41.731V41.7251Z" fill="#9E6767"/>
<path id="Vector_108" d="M75.2752 51.4851C75.2986 51.921 74.9707 52.2862 74.5373 52.3038C74.1098 52.3215 73.7409 51.9858 73.7233 51.5558C73.6999 51.1199 74.0279 50.7547 74.4612 50.737C74.8887 50.7193 75.2576 51.0551 75.2752 51.4851Z" fill="#263238"/>
<path id="Vector_109" d="M75.486 56.5806L77.2897 57.1402C77.1374 57.6408 76.6162 57.9236 76.1185 57.7704C75.6207 57.6173 75.3396 57.0812 75.486 56.5806Z" fill="#874C4C"/>
<path id="Vector_110" d="M81.6466 49.1644L80.0771 48.1042C80.3641 47.6683 80.9497 47.5505 81.383 47.845C81.8164 48.1395 81.9335 48.7285 81.6524 49.1644H81.6466Z" fill="#263238"/>
<path id="Vector_111" d="M81.2835 50.9372C81.3069 51.3731 80.979 51.7383 80.5456 51.756C80.1181 51.7737 79.7492 51.4379 79.7316 51.0079C79.7082 50.572 80.0362 50.2068 80.4695 50.1891C80.897 50.1715 81.2659 50.5072 81.2835 50.9372Z" fill="#263238"/>
<path id="Vector_112" d="M77.6177 50.5073L77.7406 55.0547L80.206 54.3125L77.6177 50.5073Z" fill="#874C4C"/>
<path id="Vector_113" d="M74.192 60.7803C72.2068 60.527 68.1193 59.3843 67.481 57.8115C67.481 57.8115 67.6918 58.8011 68.9157 59.8201C70.1396 60.8392 74.192 61.9878 74.192 61.9878V60.7862V60.7803Z" fill="#874C4C"/>
</g>
<path id="Vector_114" d="M93.4114 104.711L89.6869 102.779C86.1323 100.935 81.8926 97.8075 81.8926 93.3779C81.8926 90.2737 84.4809 86.9751 87.6725 86.0149C90.6063 85.1314 93.0366 87.5287 93.3997 90.1735C93.7686 87.3049 96.193 83.4467 99.1268 82.5632C102.318 81.603 104.907 83.3407 104.907 86.4449C104.907 90.8863 100.679 96.5528 97.1299 100.535L93.4055 104.711H93.4114Z" fill="#004FF1"/>
<path id="Vector_115" d="M52.4365 97.6776L58.7317 91.481C58.7317 91.481 74.6191 94.9268 76.4111 95.0623C78.203 95.1978 79.626 93.6251 80.8851 92.2526C81.4824 91.5988 82.1383 91.6577 82.1383 91.6577C81.9684 92.1525 81.8923 92.8593 81.9801 93.3718C82.2495 94.1022 86.2023 94.8797 88.5857 94.0963C90.9691 93.3129 94.4242 94.4497 92.2867 97.6129C90.1493 100.77 85.9857 101.135 83.0986 101.141C82.3022 101.141 80.8792 101.082 79.4855 100.906C78.5485 100.788 77.6233 100.694 76.6804 100.629C70.7659 100.216 55.1244 98.4964 52.4365 97.6776Z" fill="#9E6767"/>
<path id="Vector_116" d="M59.007 37.9376C61.5603 38.9743 60.9805 41.1066 59.9147 43.5864C58.8489 46.0663 57.6894 47.963 55.1421 46.9263C52.5888 45.8896 51.3884 43.0327 52.4542 40.5529C53.52 38.073 56.4538 36.9008 59.007 37.9376Z" fill="#001C54"/>
<path id="Vector_117" d="M61.25 40.1582L62.146 36.0114C60.9572 35.7287 59.786 36.4296 59.54 37.5723C59.2941 38.7151 60.0612 39.8755 61.25 40.1582Z" fill="#001C54"/>
</g>
</g>
</g>
</g>
</g>
<defs>
<clipPath id="clip0_200_3329">
<rect width="243.581" height="203.106" fill="white" transform="translate(0.663574 0.733887)"/>
</clipPath>
</defs>
</svg>
