<svg width="213" height="205" viewBox="0 0 213 205" fill="none" xmlns="http://www.w3.org/2000/svg">
<g id="Group 57">
<g id="Floor">
<path id="&#38;lt;Path&#38;gt;" d="M106.145 204.293C164.634 204.293 212.049 201.512 212.049 198.082C212.049 194.652 164.634 191.872 106.145 191.872C47.655 191.872 0.239746 194.652 0.239746 198.082C0.239746 201.512 47.655 204.293 106.145 204.293Z" fill="#F5F5F5"/>
<g id="Group">
<path id="Vector" d="M177.398 126.475H138.841V166.848H177.398V126.475Z" fill="#E0E0E0"/>
<g id="Group_2">
<path id="Vector_2" d="M174.787 126.475H136.23V166.849H174.787V126.475Z" fill="#FAFAFA"/>
<path id="Vector_3" d="M174.803 166.859H136.219V126.464H174.803V166.859ZM136.246 166.837H174.781V126.491H136.246V166.837Z" fill="#E0E0E0"/>
</g>
<path id="Vector_4" d="M169.603 131.906H141.413V161.422H169.603V131.906Z" fill="white"/>
<path id="Vector_5" d="M141.413 161.62C141.413 161.62 141.167 161.955 140.719 162.432C140.272 162.909 139.638 163.557 138.928 164.259C138.218 164.961 137.568 165.587 137.087 166.031C136.606 166.475 136.295 166.739 136.273 166.711C136.251 166.689 136.514 166.382 136.967 165.905C137.415 165.428 138.054 164.78 138.764 164.078C139.474 163.376 140.129 162.75 140.61 162.306C141.091 161.862 141.397 161.604 141.424 161.626L141.413 161.62Z" fill="#E0E0E0"/>
<path id="Vector_6" d="M169.603 161.543C169.603 161.543 169.936 161.79 170.411 162.24C170.887 162.69 171.531 163.326 172.23 164.039C172.929 164.753 173.552 165.405 173.995 165.888C174.437 166.371 174.699 166.684 174.672 166.706C174.65 166.728 174.344 166.464 173.869 166.009C173.394 165.559 172.749 164.917 172.05 164.204C171.351 163.491 170.728 162.832 170.286 162.35C169.843 161.867 169.587 161.56 169.608 161.538L169.603 161.543Z" fill="#E0E0E0"/>
<path id="Vector_7" d="M169.527 131.983C169.527 131.983 169.773 131.648 170.221 131.171C170.669 130.694 171.302 130.046 172.012 129.344C172.722 128.642 173.372 128.016 173.853 127.572C174.334 127.128 174.645 126.864 174.667 126.892C174.689 126.914 174.426 127.221 173.973 127.698C173.525 128.175 172.886 128.823 172.176 129.525C171.466 130.227 170.811 130.853 170.33 131.297C169.849 131.741 169.543 131.999 169.521 131.977L169.527 131.983Z" fill="#E0E0E0"/>
<path id="Vector_8" d="M141.337 132.054C141.337 132.054 141.004 131.808 140.529 131.358C140.053 130.908 139.409 130.271 138.71 129.558C138.01 128.845 137.388 128.192 136.945 127.709C136.503 127.227 136.241 126.914 136.268 126.892C136.29 126.87 136.596 127.133 137.071 127.589C137.546 128.039 138.191 128.68 138.89 129.394C139.589 130.107 140.212 130.765 140.654 131.248C141.097 131.731 141.353 132.038 141.331 132.06L141.337 132.054Z" fill="#E0E0E0"/>
<path id="Vector_9" d="M169.527 161.422C169.527 161.422 169.527 161.373 169.521 161.28C169.521 161.181 169.521 161.044 169.516 160.868C169.516 160.501 169.511 159.969 169.505 159.277C169.5 157.878 169.489 155.843 169.478 153.259C169.467 148.091 169.445 140.723 169.423 131.906L169.532 132.016C161.323 132.016 151.688 132.027 141.419 132.032L141.545 131.906C141.539 142.742 141.534 152.875 141.528 161.422L141.419 161.313C149.841 161.335 156.86 161.357 161.776 161.368C164.234 161.379 166.168 161.389 167.495 161.395C168.15 161.395 168.658 161.406 169.008 161.406C169.172 161.406 169.303 161.406 169.401 161.411C169.489 161.411 169.538 161.411 169.538 161.417C169.538 161.417 169.5 161.417 169.412 161.422C169.319 161.422 169.194 161.422 169.035 161.428C168.686 161.428 168.189 161.433 167.544 161.439C166.222 161.444 164.3 161.455 161.853 161.466C156.92 161.477 149.88 161.499 141.43 161.521H141.321V161.411C141.321 152.864 141.31 142.731 141.304 131.895V131.769H141.43C151.699 131.775 161.334 131.78 169.543 131.786H169.653V131.895C169.631 140.745 169.609 148.129 169.598 153.319C169.587 155.892 169.576 157.917 169.571 159.31C169.571 159.99 169.56 160.517 169.56 160.885C169.56 161.055 169.56 161.186 169.554 161.285C169.554 161.373 169.554 161.417 169.549 161.417L169.527 161.422Z" fill="#E0E0E0"/>
<path id="Vector_10" d="M160.214 141.94H150.808V151.388H160.214V141.94Z" fill="#EBEBEB"/>
</g>
<g id="Group_3">
<path id="Vector_11" d="M176.338 36.2202V68.2162H130.593L128.943 36.4452L176.338 36.2202Z" fill="#E0E0E0"/>
<g id="Group_4">
<path id="Vector_12" d="M128.943 36.4453V68.145H174.694V36.4453H128.943Z" fill="#FAFAFA"/>
<path id="Vector_13" d="M174.907 68.3647H128.725V36.2261H174.907V68.3647ZM129.157 67.9313H174.47V36.665H129.157V67.9313Z" fill="#E0E0E0"/>
</g>
<g id="Group_5">
<path id="Vector_14" d="M169.734 40.3843H133.897V64.2112H169.734V40.3843Z" fill="white"/>
<path id="Vector_15" d="M169.735 40.3845C169.735 40.3845 169.674 40.3845 169.56 40.39C169.44 40.39 169.27 40.39 169.052 40.3955C168.598 40.3955 167.937 40.4009 167.085 40.4064C165.365 40.4119 162.863 40.4229 159.701 40.4339C153.381 40.4448 144.434 40.4668 133.903 40.4832L134.007 40.379C134.007 47.6593 134.012 55.7241 134.018 64.2004L133.903 64.0907C147.422 64.1017 159.886 64.1072 169.74 64.1127L169.653 64.2004C169.674 56.9476 169.691 51.0059 169.702 46.8638C169.713 44.7955 169.718 43.177 169.724 42.0688C169.724 41.5201 169.729 41.1032 169.735 40.8069C169.735 40.5216 169.745 40.368 169.745 40.368C169.745 40.368 169.751 40.5052 169.756 40.785C169.756 41.0703 169.762 41.4872 169.767 42.0304C169.767 43.1331 169.778 44.7406 169.789 46.8034C169.8 50.9566 169.816 56.9201 169.838 64.195V64.2827H169.751C159.897 64.2882 147.433 64.2992 133.914 64.3047H133.799V64.1895C133.799 55.7077 133.805 47.6428 133.81 40.3625V40.2583H133.914C144.472 40.2802 153.447 40.2967 159.783 40.3077C162.934 40.3186 165.43 40.3296 167.145 40.3351C167.992 40.3351 168.642 40.3461 169.095 40.3461C169.308 40.3461 169.472 40.3461 169.593 40.3516C169.702 40.3516 169.756 40.3571 169.756 40.3571L169.735 40.3845Z" fill="#E0E0E0"/>
</g>
<path id="Vector_16" d="M128.944 36.3574C128.944 36.3574 129.26 36.5275 129.73 36.8676C130.2 37.2078 130.834 37.6906 131.522 38.2392C132.21 38.7933 132.816 39.3145 133.242 39.7095C133.668 40.0991 133.92 40.3624 133.898 40.3844C133.854 40.4337 132.756 39.523 131.38 38.4203C130.003 37.3175 128.9 36.4068 128.944 36.3574Z" fill="#E0E0E0"/>
<path id="Vector_17" d="M174.694 36.4449C174.733 36.4943 173.657 37.416 172.286 38.5023C170.915 39.5886 169.778 40.4335 169.74 40.3841C169.702 40.3347 170.778 39.413 172.149 38.3267C173.515 37.2404 174.656 36.3956 174.694 36.4449Z" fill="#E0E0E0"/>
<g id="Group_6">
<path id="Vector_18" d="M174.656 68.1502C172.957 66.7676 171.253 65.3796 169.554 63.9971L174.656 68.1502Z" fill="white"/>
<path id="Vector_19" d="M169.554 63.9971C169.592 63.9477 170.767 64.8365 172.176 65.9831C173.585 67.1297 174.694 68.1008 174.656 68.1502C174.618 68.1996 173.443 67.3108 172.034 66.1642C170.625 65.0175 169.516 64.0465 169.554 63.9971Z" fill="#E0E0E0"/>
</g>
<path id="Vector_20" d="M128.943 68.1449C128.905 68.0955 129.97 67.1848 131.325 66.1095C132.679 65.0342 133.81 64.2003 133.848 64.2496C133.887 64.299 132.821 65.2097 131.467 66.2851C130.112 67.3604 128.982 68.1943 128.943 68.1449Z" fill="#E0E0E0"/>
<path id="Vector_21" d="M141.173 47.8017V55.7788H163.726V47.8017H141.173Z" fill="#E0E0E0"/>
</g>
<g id="Group_7">
<path id="Vector_22" d="M84.5692 93.9634H81.5322V159.568H84.5692V93.9634Z" fill="#E0E0E0"/>
<path id="Vector_23" d="M81.0242 94.4683H37.5076C37.4834 94.4683 37.4639 94.4879 37.4639 94.5122V159.612C37.4639 159.637 37.4834 159.656 37.5076 159.656H81.0242C81.0483 159.656 81.0679 159.637 81.0679 159.612V94.5122C81.0679 94.4879 81.0483 94.4683 81.0242 94.4683Z" fill="#F5F5F5"/>
<path id="Vector_24" d="M81.5322 160.166H37.0051C37.0051 160.166 36.9614 160.144 36.9614 160.122V94.0073C36.9614 94.0073 36.9833 93.9634 37.0051 93.9634H81.5322C81.5322 93.9634 81.5759 93.9853 81.5759 94.0073V160.122C81.5759 160.122 81.5541 160.166 81.5322 160.166ZM38.0156 159.151H80.5217C80.5217 159.151 80.5654 159.129 80.5654 159.108V95.0222C80.5654 95.0222 80.5436 94.9783 80.5217 94.9783H38.0156C38.0156 94.9783 37.9719 95.0003 37.9719 95.0222V159.108C37.9719 159.108 37.9938 159.151 38.0156 159.151Z" fill="#EBEBEB"/>
<path id="Vector_25" d="M76.7092 98.4897H41.8992C41.875 98.4897 41.8555 98.5094 41.8555 98.5336V155.547C41.8555 155.571 41.875 155.591 41.8992 155.591H76.7092C76.7333 155.591 76.7529 155.571 76.7529 155.547V98.5336C76.7529 98.5094 76.7333 98.4897 76.7092 98.4897Z" fill="white"/>
<path id="Vector_26" d="M69.035 114.68H49.5025C49.4844 114.68 49.4697 114.694 49.4697 114.713V137.717C49.4697 137.735 49.4844 137.75 49.5025 137.75H69.035C69.0531 137.75 69.0678 137.735 69.0678 137.717V114.713C69.0678 114.694 69.0531 114.68 69.035 114.68Z" fill="#EBEBEB"/>
<path id="Vector_27" d="M67.5166 134.924C67.5439 135.001 66.5771 135.423 64.7364 135.209C63.8297 135.083 62.7045 134.759 61.6066 133.953C60.536 133.146 59.5201 131.851 59.176 130.112C58.8209 128.39 59.3944 126.244 61.0331 124.862C61.4427 124.522 61.9179 124.231 62.4423 124.033C62.9994 123.825 63.6057 123.754 64.2066 123.83C64.8019 123.902 65.4355 124.11 65.9708 124.604C66.5116 125.098 66.8065 125.926 66.6645 126.667C66.5389 127.413 66.1292 127.984 65.6977 128.439C65.2498 128.9 64.7418 129.24 64.2229 129.531C63.1688 130.118 61.9616 130.48 60.6999 130.54C59.4436 130.601 58.1108 130.343 56.9474 129.684C55.7895 129.031 54.8008 128.044 54.1836 126.81C53.5554 125.586 53.3588 124.105 53.6865 122.783C54.0033 121.46 54.7517 120.281 55.8004 119.463C56.3247 119.052 56.9201 118.75 57.5701 118.564C58.2256 118.394 58.8974 118.361 59.5638 118.503C60.2247 118.64 60.8965 118.97 61.3717 119.529C61.8579 120.083 62.0763 120.813 62.0818 121.471C62.0927 122.135 61.9125 122.783 61.6121 123.32C61.3171 123.863 60.9129 124.302 60.4923 124.67C59.6457 125.389 58.6953 125.866 57.7176 126.151C56.7399 126.431 55.7403 126.508 54.7953 126.376C53.8559 126.244 52.971 125.893 52.2555 125.4C50.8135 124.417 49.9778 122.92 49.8303 121.537C49.6664 120.133 50.1799 118.975 50.7315 118.223C51.2996 117.461 51.9496 117.066 52.3975 116.89C52.8563 116.715 53.1185 116.72 53.1294 116.764C53.1513 116.824 52.9218 116.929 52.5504 117.176C52.1845 117.428 51.671 117.856 51.2559 118.575C50.8517 119.277 50.5131 120.292 50.7261 121.406C50.9172 122.508 51.671 123.699 52.8836 124.439C54.0689 125.197 55.7348 125.394 57.3352 124.867C58.1272 124.61 58.9192 124.182 59.5638 123.6C60.2028 123.024 60.6398 122.278 60.607 121.504C60.5852 120.725 60.0991 120.177 59.2634 120.018C58.8592 119.941 58.4058 119.963 57.9798 120.078C57.5592 120.204 57.1386 120.418 56.7726 120.714C56.0352 121.296 55.4726 122.185 55.2487 123.156C55.0193 124.121 55.1558 125.147 55.6256 126.08C56.0844 127.007 56.8546 127.781 57.734 128.28C58.6079 128.779 59.6293 128.993 60.6343 128.96C61.6394 128.922 62.628 128.636 63.4856 128.176C63.9225 127.94 64.3213 127.671 64.6217 127.369C64.933 127.067 65.146 126.716 65.2007 126.425C65.2553 126.129 65.1679 125.871 64.9658 125.663C64.7582 125.454 64.3977 125.295 64.0208 125.246C63.644 125.186 63.2507 125.224 62.912 125.339C62.5352 125.471 62.1856 125.663 61.8742 125.91C61.2516 126.398 60.7873 127.067 60.5251 127.775C60.2575 128.483 60.1974 129.218 60.2957 129.92C60.5033 131.33 61.2898 132.493 62.1637 133.245C63.0541 133.997 64.0318 134.386 64.8456 134.589C66.5006 134.979 67.5002 134.787 67.5111 134.924H67.5166Z" fill="#E0E0E0"/>
</g>
</g>
<g id="Character 1">
<path id="Vector_28" d="M158.755 27.4096H190.19C190.19 27.4096 187.41 22.3293 179.32 23.07C171.591 23.7777 171.198 20.5682 167.271 20.1732C163.344 19.7782 160.066 22.8066 158.755 27.4096Z" fill="#E0E0E0"/>
<g id="Group_8">
<g id="Group_9">
<path id="Vector_29" d="M200.415 129.181C200.415 129.181 200.393 129.258 200.333 129.406C200.267 129.565 200.18 129.779 200.071 130.048C199.831 130.624 199.486 131.436 199.049 132.462C198.148 134.552 196.881 137.498 195.368 141.02L195.346 141.07L195.292 141.081C191.894 141.646 187.929 142.304 183.712 143.001C182.39 143.22 181.095 143.429 179.828 143.637L179.653 143.665L179.697 143.489C180.642 139.748 181.511 136.302 182.248 133.378L182.303 133.488C179.473 132.22 177.141 131.172 175.497 130.432C174.699 130.064 174.066 129.779 173.618 129.57C173.416 129.472 173.252 129.395 173.126 129.34C173.017 129.285 172.962 129.258 172.962 129.252C172.962 129.247 173.022 129.269 173.137 129.313C173.263 129.367 173.432 129.433 173.64 129.521C174.093 129.713 174.732 129.987 175.541 130.333C177.196 131.052 179.539 132.072 182.379 133.312L182.456 133.345L182.434 133.427C181.707 136.357 180.85 139.802 179.921 143.55L179.79 143.407C181.052 143.198 182.352 142.984 183.674 142.765C187.89 142.074 191.856 141.426 195.259 140.872L195.182 140.933C196.728 137.427 198.028 134.486 198.946 132.407C199.404 131.392 199.765 130.585 200.022 130.015C200.142 129.752 200.24 129.543 200.311 129.389C200.377 129.247 200.415 129.175 200.42 129.181H200.415Z" fill="#E0E0E0"/>
<path id="Vector_30" d="M181.183 142.266L180.866 143.105L181.374 143.84L180.484 143.796L179.943 144.51L179.714 143.643L178.873 143.346L179.615 142.858L179.637 141.964L180.331 142.523L181.183 142.266Z" fill="#E0E0E0"/>
<path id="Vector_31" d="M173.236 128.698L173.077 129.115L173.328 129.482L172.886 129.461L172.618 129.812L172.504 129.384L172.083 129.236L172.454 128.994L172.465 128.55L172.809 128.824L173.236 128.698Z" fill="#E0E0E0"/>
<path id="Vector_32" d="M195.69 140.493L195.532 140.91L195.783 141.278L195.341 141.256L195.073 141.613L194.958 141.179L194.538 141.031L194.909 140.79L194.92 140.345L195.264 140.625L195.69 140.493Z" fill="#E0E0E0"/>
<path id="Vector_33" d="M182.734 133.005L182.576 133.422L182.827 133.789L182.384 133.767L182.117 134.118L181.997 133.69L181.582 133.542L181.953 133.301L181.964 132.856L182.308 133.131L182.734 133.005Z" fill="#E0E0E0"/>
<path id="Vector_34" d="M200.95 128.764L200.792 129.181L201.049 129.549L200.601 129.527L200.333 129.878L200.218 129.45L199.798 129.302L200.169 129.06L200.18 128.61L200.524 128.89L200.95 128.764Z" fill="#E0E0E0"/>
</g>
<path id="Vector_35" d="M56.046 163.711H81.0734C81.0734 163.711 78.8612 159.668 72.4159 160.255C66.2656 160.82 65.9488 158.263 62.819 157.951C59.6892 157.638 57.0838 160.046 56.0405 163.711H56.046Z" fill="#E0E0E0"/>
<path id="Vector_36" d="M61.0108 64.7331H86.0382C86.0382 64.7331 83.8261 60.6898 77.3808 61.2768C71.2304 61.8419 70.9136 59.2853 67.7839 58.9726C64.6541 58.6598 62.0486 61.0683 61.0054 64.7331H61.0108Z" fill="#F5F5F5"/>
<path id="Vector_37" d="M188.131 82.2122H208.696C208.696 82.2122 206.877 78.8876 201.584 79.3704C196.526 79.8312 196.269 77.7354 193.702 77.4776C191.13 77.2197 188.988 79.2003 188.131 82.2122Z" fill="#F5F5F5"/>
</g>
<g id="Group_10">
<g id="Group_11">
<path id="Vector_38" d="M147.066 122.98C148.088 115.239 142.669 108.853 135.902 105.018C129.134 101.183 121.28 99.8941 113.802 97.76C106.751 95.7465 99.7372 92.8113 94.5155 87.6433C89.2937 82.4752 86.1584 74.7066 88.0374 67.5909C88.5071 65.8024 89.3538 64.0083 90.8777 62.9769C92.4071 61.9455 94.7394 61.9729 95.8755 63.4213C98.3007 66.5156 93.5705 72.0512 96.5364 74.6298C97.2137 75.2223 98.1532 75.4418 98.8524 76.0014C100.726 77.4991 100.12 80.4178 100.382 82.8098C100.906 87.539 105.32 90.8253 109.656 92.74C115.463 95.3076 121.755 96.5146 127.916 98.0343C134.078 99.554 140.293 101.474 145.422 105.216C150.557 108.963 155.008 114.828 154.976 121.197C154.965 122.98 154.741 125.169 153.626 126.557C152.512 127.945 151.097 128.231 149.492 127.474C147.886 126.717 146.766 125.542 147.061 122.969" fill="#E8505B"/>
<path id="Vector_39" d="M147.066 122.98C148.088 115.239 142.669 108.853 135.902 105.018C129.134 101.183 121.28 99.8941 113.802 97.76C106.751 95.7465 99.7372 92.8113 94.5155 87.6433C89.2937 82.4752 86.1584 74.7066 88.0374 67.5909C88.5071 65.8024 89.3538 64.0083 90.8777 62.9769C92.4071 61.9455 94.7394 61.9729 95.8755 63.4213C98.3007 66.5156 93.5705 72.0512 96.5364 74.6298C97.2137 75.2223 98.1532 75.4418 98.8524 76.0014C100.726 77.4991 100.12 80.4178 100.382 82.8098C100.906 87.539 105.32 90.8253 109.656 92.74C115.463 95.3076 121.755 96.5146 127.916 98.0343C134.078 99.554 140.293 101.474 145.422 105.216C150.557 108.963 155.008 114.828 154.976 121.197C154.965 122.98 154.741 125.169 153.626 126.557C152.512 127.945 151.097 128.231 149.492 127.474C147.886 126.717 146.766 125.542 147.061 122.969" fill="#A7C3FF"/>
</g>
<g id="Group_12">
<path id="Vector_40" d="M114.316 61.4574C114.07 58.5881 116.2 56.0919 118.614 54.7587C121.034 53.42 123.803 52.8769 126.294 51.6919C132.483 48.7457 136.421 41.8056 136.71 34.6899C137 27.5741 133.93 20.4639 129.129 15.2355C127.179 13.1123 124.776 10.8849 124.748 7.98811C124.716 4.96517 127.638 2.58412 130.555 2.62253C133.471 2.66093 136.159 4.61954 137.901 7.08836C139.649 9.55719 140.61 12.4924 141.55 15.3781C140.878 14.1712 142.254 12.6789 143.582 12.8051C144.909 12.9313 145.952 14.045 146.772 15.1477C150.284 19.8988 152.021 25.9996 151.54 31.8809C151.054 37.7622 148.35 43.3527 144.128 47.2205C139.409 51.5382 133.171 53.5627 127.119 55.4829L114.491 59.4879" fill="#E8505B"/>
<path id="Vector_41" d="M114.316 61.4574C114.07 58.5881 116.2 56.0919 118.614 54.7587C121.034 53.42 123.803 52.8769 126.294 51.6919C132.483 48.7457 136.421 41.8056 136.71 34.6899C137 27.5741 133.93 20.4639 129.129 15.2355C127.179 13.1123 124.776 10.8849 124.748 7.98811C124.716 4.96517 127.638 2.58412 130.555 2.62253C133.471 2.66093 136.159 4.61954 137.901 7.08836C139.649 9.55719 140.61 12.4924 141.55 15.3781C140.878 14.1712 142.254 12.6789 143.582 12.8051C144.909 12.9313 145.952 14.045 146.772 15.1477C150.284 19.8988 152.021 25.9996 151.54 31.8809C151.054 37.7622 148.35 43.3527 144.128 47.2205C139.409 51.5382 133.171 53.5627 127.119 55.4829L114.491 59.4879" fill="#A7C3FF"/>
</g>
<g id="Group_13">
<path id="Vector_42" d="M110.804 1.21258C109.547 1.74475 108.859 3.34126 109.334 4.61956C109.809 5.90335 111.366 6.66046 112.661 6.2435C113.955 5.82654 114.78 4.29587 114.419 2.97368C114.059 1.65697 112.573 0.762705 111.246 1.06994" fill="#E8505B"/>
<path id="Vector_43" d="M110.804 1.21258C109.547 1.74475 108.859 3.34126 109.334 4.61956C109.809 5.90335 111.366 6.66046 112.661 6.2435C113.955 5.82654 114.78 4.29587 114.419 2.97368C114.059 1.65697 112.573 0.762705 111.246 1.06994" fill="#D6E3FF"/>
</g>
</g>
<g id="Group_14">
<path id="Vector_44" d="M126.376 186.249C124.83 183.023 126.179 179.007 128.643 176.423C131.112 173.839 134.476 172.363 137.737 170.92C144.936 167.738 152.556 163.941 156.215 156.946C157.45 154.587 158.155 151.992 158.848 149.425C160.192 144.449 161.454 138.798 158.75 134.409C157.974 133.147 156.805 132.028 155.352 131.764C153.697 131.468 151.993 132.384 150.972 133.728C149.95 135.073 149.513 136.773 149.3 138.447C148.896 141.634 149.229 144.877 148.896 148.07C148.563 151.263 147.4 154.604 144.778 156.442C141.593 158.675 137.043 158.17 133.952 160.529C131.456 162.433 130.5 165.735 128.55 168.199C126.906 170.267 124.606 171.682 122.503 173.279C120.4 174.87 118.363 176.818 117.648 179.363C116.905 182.008 117.833 185.053 119.925 186.83C122.017 188.602 125.163 189.014 127.632 187.829" fill="#E8505B"/>
<path id="Vector_45" d="M126.376 186.249C124.83 183.023 126.179 179.007 128.643 176.423C131.112 173.839 134.476 172.363 137.737 170.92C144.936 167.738 152.556 163.941 156.215 156.946C157.45 154.587 158.155 151.992 158.848 149.425C160.192 144.449 161.454 138.798 158.75 134.409C157.974 133.147 156.805 132.028 155.352 131.764C153.697 131.468 151.993 132.384 150.972 133.728C149.95 135.073 149.513 136.773 149.3 138.447C148.896 141.634 149.229 144.877 148.896 148.07C148.563 151.263 147.4 154.604 144.778 156.442C141.593 158.675 137.043 158.17 133.952 160.529C131.456 162.433 130.5 165.735 128.55 168.199C126.906 170.267 124.606 171.682 122.503 173.279C120.4 174.87 118.363 176.818 117.648 179.363C116.905 182.008 117.833 185.053 119.925 186.83C122.017 188.602 125.163 189.014 127.632 187.829" fill="#A7C3FF"/>
</g>
<g id="Group_15">
<g id="Group_16">
<path id="Vector_46" d="M78.506 23.4651C75.9716 21.5778 74.4258 18.4177 74.4804 15.2521C74.535 12.081 76.1955 8.98129 78.7955 7.18728C80.2648 6.17232 82.0072 5.55237 83.3181 4.32892C84.4815 3.24264 85.2353 1.7394 86.5353 0.828675C88.1521 -0.306985 90.4953 -0.252123 92.0629 0.943887C93.6306 2.14538 94.2969 4.40573 93.6306 6.26558C93.0297 7.94987 91.5277 9.18429 90.894 10.8576C90.2167 12.6626 90.6537 14.6761 90.4025 16.5908C90.0911 18.9389 88.6764 21.1115 86.6555 22.3349C84.6345 23.5529 82.0564 23.7997 79.8497 22.9713" fill="#E8505B"/>
<path id="Vector_47" d="M78.506 23.4651C75.9716 21.5778 74.4258 18.4177 74.4804 15.2521C74.535 12.081 76.1955 8.98129 78.7955 7.18728C80.2648 6.17232 82.0072 5.55237 83.3181 4.32892C84.4815 3.24264 85.2353 1.7394 86.5353 0.828675C88.1521 -0.306985 90.4953 -0.252123 92.0629 0.943887C93.6306 2.14538 94.2969 4.40573 93.6306 6.26558C93.0297 7.94987 91.5277 9.18429 90.894 10.8576C90.2167 12.6626 90.6537 14.6761 90.4025 16.5908C90.0911 18.9389 88.6764 21.1115 86.6555 22.3349C84.6345 23.5529 82.0564 23.7997 79.8497 22.9713" fill="#A7C3FF"/>
</g>
<g id="Group_17">
<path id="Vector_48" d="M78.686 13.1675H84.5633V24.9849C84.5633 26.6144 83.2469 27.9366 81.6247 27.9366C80.0024 27.9366 78.686 26.6144 78.686 24.9849V13.1675Z" fill="#004FF1"/>
<path id="Vector_49" d="M78.686 13.1678L81.6247 7.7583L84.5633 13.1678H78.686Z" fill="#FFBE9D"/>
<path id="Vector_50" d="M80.4614 9.89758C80.4614 9.89758 81.3518 11.2472 82.7883 9.89758L81.6249 7.75244L80.4614 9.89758Z" fill="#004FF1"/>
</g>
<path id="Vector_51" d="M84.6455 24.7433C84.6455 24.8091 83.3073 24.864 81.6577 24.864C80.0081 24.864 78.6699 24.8091 78.6699 24.7433C78.6699 24.6774 80.0081 24.6226 81.6577 24.6226C83.3073 24.6226 84.6455 24.6774 84.6455 24.7433Z" fill="#263238"/>
<path id="Vector_52" d="M84.5854 23.838C84.5854 23.9038 83.2745 23.9587 81.6577 23.9587C80.0409 23.9587 78.73 23.9038 78.73 23.838C78.73 23.7721 80.0409 23.7173 81.6577 23.7173C83.2745 23.7173 84.5854 23.7721 84.5854 23.838Z" fill="#263238"/>
<path id="Vector_53" d="M80.4122 13.2549C80.4777 13.2549 80.5323 15.6085 80.5323 18.5162C80.5323 21.424 80.4777 23.7776 80.4122 23.7776C80.3466 23.7776 80.292 21.424 80.292 18.5162C80.292 15.6085 80.3466 13.2549 80.4122 13.2549Z" fill="#FAFAFA"/>
<path id="Vector_54" d="M82.7881 13.2549C82.8537 13.2549 82.9083 15.6085 82.9083 18.5162C82.9083 21.424 82.8537 23.7776 82.7881 23.7776C82.7226 23.7776 82.668 21.424 82.668 18.5162C82.668 15.6085 82.7226 13.2549 82.7881 13.2549Z" fill="#FAFAFA"/>
</g>
<g id="Group_18">
<path id="Vector_55" d="M169.166 81.4716C167.91 81.4386 166.577 81.4825 165.211 81.6526C156.975 82.6785 150.835 89.7833 150.852 98.1224C150.852 100.553 151.114 103.269 151.873 105.973C154.173 114.164 154.883 121.384 154.615 124.901L162.311 129.054C162.311 129.054 165.872 123.913 169.314 121.697C172.755 119.481 184.214 113.55 188.748 107.455C191.67 103.526 192.233 95.4616 185.263 88.4117C181.002 84.105 175.207 81.6471 169.161 81.477L169.166 81.4716Z" fill="#004FF1"/>
<path id="Vector_56" d="M150.972 133.844L157.925 137.618L153.397 143.39L148.765 141.272L150.972 133.844Z" fill="#455A64"/>
<path id="Vector_57" d="M151.31 134.074C151.25 134.052 151.938 131.978 152.851 129.444C153.763 126.909 154.555 124.874 154.615 124.896C154.675 124.918 153.987 126.991 153.075 129.526C152.162 132.061 151.37 134.096 151.31 134.074Z" fill="#263238"/>
<path id="Vector_58" d="M157.488 137.333C157.434 137.3 158.521 135.341 159.919 132.96C161.317 130.579 162.503 128.676 162.557 128.708C162.612 128.741 161.525 130.7 160.126 133.081C158.728 135.462 157.548 137.366 157.488 137.333Z" fill="#263238"/>
<g id="Group_19" opacity="0.4">
<path id="Vector_59" d="M171.482 81.6909C171.171 81.7074 167.347 86.2061 165.654 89.251C159.963 99.4939 159.706 109.457 158.127 121.082C157.903 122.745 157.079 126.322 157.095 126.24C157.936 126.903 160.771 128.226 160.771 128.226C160.771 128.226 163.442 124.989 164.502 123.359C168.751 116.842 173.361 111.761 176.999 104.876C180.637 97.9961 184.138 91.8899 180.768 84.8729C180.768 84.8729 174.94 81.5044 171.488 81.6964L171.482 81.6909Z" fill="black"/>
</g>
<path id="Vector_60" d="M188.78 108.486C188.78 108.486 188.742 108.415 188.682 108.267C188.617 108.119 188.546 107.894 188.415 107.619C188.163 107.06 187.754 106.259 187.071 105.348C186.388 104.448 185.432 103.433 184.116 102.583C182.821 101.711 181.161 101.019 179.271 100.783H179.227L179.2 100.74C178.315 99.5436 177.299 98.3037 176.092 97.157C174.885 96.0159 173.476 94.9625 171.853 94.2219C170.231 93.4977 168.489 93.174 166.845 93.2618C165.195 93.3441 163.655 93.8708 162.459 94.7321L162.388 94.7815L162.322 94.7266C160.891 93.4648 159.181 92.8119 157.636 92.6363C156.084 92.4553 154.702 92.7461 153.654 93.1466C152.594 93.5526 151.846 94.0683 151.365 94.4413C151.125 94.6279 150.944 94.7815 150.83 94.8912C150.71 94.9954 150.65 95.0503 150.644 95.0448C150.644 95.0448 150.693 94.979 150.808 94.8638C150.917 94.7486 151.092 94.584 151.327 94.3865C151.797 93.9915 152.545 93.4538 153.61 93.0259C154.67 92.5979 156.068 92.2907 157.657 92.4608C159.236 92.6254 160.989 93.2782 162.464 94.5675H162.333C163.556 93.6678 165.146 93.1246 166.834 93.0368C168.522 92.9436 170.302 93.2673 171.957 94.0134C173.612 94.765 175.043 95.8348 176.261 96.9925C177.479 98.1555 178.495 99.4064 179.38 100.613L179.309 100.57C181.232 100.822 182.92 101.535 184.225 102.435C185.552 103.313 186.503 104.355 187.18 105.271C187.857 106.198 188.251 107.021 188.486 107.592C188.606 107.877 188.666 108.108 188.72 108.256C188.77 108.409 188.791 108.486 188.786 108.486H188.78Z" fill="#263238"/>
<path id="Vector_61" d="M174.47 118.69C174.421 118.707 174.432 117.994 173.809 117.012C173.492 116.534 173.022 115.997 172.329 115.585C171.657 115.168 170.756 114.883 169.783 114.982L169.685 114.993L169.669 114.899C169.516 113.906 169.106 112.848 168.407 111.915C167.713 110.982 166.741 110.154 165.55 109.687C164.578 109.298 163.54 109.161 162.562 109.227C161.585 109.298 160.678 109.572 159.902 109.978L159.831 110.017L159.777 109.956C159.007 109.128 158.013 108.662 157.106 108.502C156.194 108.316 155.358 108.409 154.708 108.579C153.392 108.941 152.834 109.578 152.807 109.528C152.807 109.528 152.84 109.49 152.911 109.424C152.982 109.364 153.086 109.26 153.239 109.155C153.539 108.936 154.014 108.656 154.681 108.459C155.342 108.267 156.199 108.157 157.144 108.332C158.089 108.486 159.127 108.952 159.941 109.819L159.81 109.797C160.607 109.369 161.547 109.078 162.552 109.002C163.557 108.93 164.633 109.068 165.643 109.473C166.878 109.956 167.883 110.818 168.593 111.783C169.308 112.754 169.723 113.846 169.871 114.877L169.762 114.79C170.788 114.702 171.728 115.009 172.416 115.459C173.121 115.892 173.596 116.463 173.907 116.962C174.213 117.467 174.35 117.917 174.415 118.224C174.448 118.378 174.453 118.498 174.464 118.581C174.47 118.663 174.475 118.701 174.464 118.701L174.47 118.69Z" fill="#263238"/>
<path id="Vector_62" d="M156.581 139.434C156.581 139.434 156.505 139.341 156.325 139.264C156.144 139.187 155.855 139.176 155.511 139.291C155.336 139.341 155.134 139.401 154.894 139.407C154.653 139.407 154.391 139.297 154.205 139.099C153.834 138.715 153.697 138.156 153.348 137.772C153.173 137.585 152.949 137.486 152.709 137.503C152.468 137.514 152.228 137.591 151.982 137.651C151.742 137.711 151.491 137.744 151.256 137.689C151.021 137.64 150.835 137.525 150.688 137.399C150.393 137.141 150.262 136.834 150.229 136.625C150.191 136.411 150.229 136.296 150.24 136.296C150.262 136.296 150.262 136.411 150.322 136.603C150.376 136.79 150.519 137.058 150.797 137.272C150.934 137.377 151.103 137.47 151.3 137.503C151.491 137.541 151.709 137.503 151.939 137.443C152.168 137.382 152.414 137.294 152.709 137.278C153.004 137.251 153.326 137.388 153.534 137.618C153.938 138.079 154.063 138.628 154.375 138.957C154.528 139.121 154.713 139.209 154.91 139.215C155.107 139.22 155.298 139.176 155.478 139.138C155.844 139.045 156.183 139.077 156.374 139.193C156.571 139.308 156.598 139.445 156.587 139.445L156.581 139.434Z" fill="#263238"/>
<path id="Vector_63" d="M157.379 138.315C157.346 138.375 155.827 137.618 153.987 136.631C152.146 135.643 150.677 134.798 150.704 134.738C150.737 134.677 152.255 135.435 154.096 136.422C155.937 137.41 157.406 138.254 157.373 138.315H157.379Z" fill="#263238"/>
<path id="Vector_64" d="M155.997 140.076C155.997 140.076 155.899 140.125 155.729 140.202C155.642 140.24 155.549 140.295 155.412 140.35C155.281 140.405 155.107 140.427 154.932 140.416C154.582 140.394 154.156 140.284 153.785 139.972C153.599 139.818 153.446 139.599 153.348 139.368C153.244 139.138 153.168 138.907 153.009 138.737C152.692 138.397 152.179 138.359 151.747 138.375C151.31 138.392 150.879 138.403 150.54 138.26C150.207 138.117 150.005 137.881 149.928 137.695C149.852 137.508 149.879 137.393 149.89 137.393C149.912 137.393 149.918 137.497 150.01 137.651C150.103 137.805 150.3 137.997 150.6 138.101C150.901 138.211 151.294 138.183 151.742 138.156C152.179 138.134 152.769 138.139 153.184 138.578C153.381 138.798 153.462 139.061 153.555 139.275C153.643 139.494 153.763 139.67 153.921 139.807C154.233 140.087 154.62 140.208 154.937 140.246C155.26 140.306 155.489 140.169 155.68 140.114C155.866 140.059 155.975 140.059 155.975 140.076H155.997Z" fill="#263238"/>
</g>
<g id="Group_20">
<g id="Group_21">
<path id="Vector_65" d="M92.5819 100.871L104.604 99.0824L98.8579 90.9023L95.7772 91.0834C93.7016 91.2041 91.8718 92.4934 91.0525 94.4081C90.6156 95.4285 90.4954 96.5532 90.7029 97.6395L92.5874 100.865L92.5819 100.871Z" fill="#E8505B"/>
<path id="Vector_66" d="M92.5819 100.871L104.604 99.0824L98.8579 90.9023L95.7772 91.0834C93.7016 91.2041 91.8718 92.4934 91.0525 94.4081C90.6156 95.4285 90.4954 96.5532 90.7029 97.6395L92.5874 100.865L92.5819 100.871Z" fill="#001C54"/>
</g>
<g id="Group_22">
<path id="Vector_67" d="M144.226 114.252C144.352 114.598 144.483 115.009 144.625 115.497C144.745 115.92 144.783 116.353 144.756 116.792C144.718 117.319 144.647 118.021 144.483 118.389C144.286 118.844 144.745 119.31 145.133 119.08C145.521 118.849 146.1 117.604 146.061 115.997C146.023 114.389 147.656 116.315 148.268 117.006C148.874 117.697 150.857 119.749 151.212 119.727C151.742 119.7 151.808 119.129 151.185 118.449C150.557 117.763 148.836 115.613 149.219 115.311C149.59 115.009 152.638 118.57 152.638 118.57C152.638 118.57 153.168 119.436 153.616 119.102C154.424 118.493 150.912 114.949 150.568 114.62C150.327 114.389 150.732 114.043 150.972 114.307C151.223 114.576 153.927 117.928 154.757 117.319C155.396 116.847 151.895 114.373 151.72 113.363C151.545 112.354 154.184 115.514 154.779 115.036C154.997 114.861 155.14 114.696 153.364 113.105C152.501 112.332 149.224 110.028 149.224 110.028L139.354 81.647L131.734 86.0305L144.237 114.252H144.226Z" fill="#FFB570"/>
<path id="Vector_68" d="M85.4814 60.5852L74.4534 47.3688C74.3114 46.9134 74.1366 46.469 73.9126 46.052C73.361 45.0206 72.4488 44.1209 71.3127 43.874C70.6135 43.7204 69.8106 43.7917 69.2644 43.3308C69.0186 43.1224 68.8547 42.8316 68.598 42.6396C68.3413 42.4476 67.9152 42.4092 67.7459 42.689C67.6312 42.8865 67.7022 43.1388 67.7896 43.3473C68.1993 44.3239 68.8656 45.1852 69.7013 45.8271C68.669 46.1453 67.1888 46.6226 67.1888 46.6226C67.1888 46.6226 64.8565 44.0825 63.6657 44.088C62.475 44.0934 64.6325 46.3538 64.6325 46.3538C64.6325 46.3538 62.7208 44.5817 62.1254 45.081C61.53 45.5802 63.054 46.8969 63.054 46.8969C62.5733 46.6391 62.0435 46.3702 61.5027 46.458C60.962 46.5458 60.4977 47.1877 60.7872 47.654C60.8964 47.8351 61.0876 47.9448 61.2733 48.0436L64.2065 49.684C64.6981 49.9583 65.2115 50.2436 65.7741 50.26C67.2652 50.3039 68.3959 49.3822 69.8816 49.4206C69.8816 49.4206 78.1949 67.0042 79.0361 67.9094C79.8773 68.8146 98.1426 70.049 98.1426 70.049L108.717 60.8979L85.465 60.5797L85.4814 60.5852Z" fill="#FFB570"/>
<g id="Group_23">
<path id="Vector_69" d="M118.603 156.348L129.866 161.275L123.836 175.38C122.531 174.716 122.957 166.262 122.957 166.262L115.616 163.403L118.609 156.354L118.603 156.348Z" fill="#004FF1"/>
<g id="Group_24" opacity="0.6">
<path id="Vector_70" d="M124.208 161.637C124.399 161.396 124.787 161.341 125.033 161.522C125.278 161.703 125.338 162.098 125.153 162.339C124.967 162.586 124.503 162.668 124.279 162.46C124.055 162.251 124.006 161.785 124.246 161.593" fill="white"/>
</g>
<path id="Vector_71" d="M129.861 161.275L128.708 160.825L123.361 174.513C123.361 174.513 123.361 175.26 123.836 175.38L129.866 161.275H129.861Z" fill="#D6E3FF"/>
<path id="Vector_72" d="M122.782 166.459C122.853 166.487 123.028 166.157 123.394 165.911C123.754 165.658 124.126 165.609 124.126 165.537C124.142 165.466 123.683 165.395 123.246 165.697C122.804 165.993 122.711 166.448 122.782 166.459Z" fill="#263238"/>
<path id="Vector_73" d="M122.76 168.198C122.82 168.242 123.066 167.995 123.454 167.886C123.842 167.765 124.18 167.842 124.207 167.77C124.246 167.71 123.863 167.491 123.383 167.633C122.897 167.776 122.7 168.165 122.76 168.198Z" fill="#263238"/>
<path id="Vector_74" d="M124.164 169.801C124.208 169.746 123.902 169.499 123.454 169.515C123.001 169.526 122.717 169.79 122.76 169.839C122.799 169.905 123.093 169.779 123.459 169.773C123.831 169.757 124.126 169.861 124.164 169.795V169.801Z" fill="#263238"/>
<path id="Vector_75" d="M121.182 165.62C121.258 165.62 121.296 165.263 121.488 164.885C121.673 164.501 121.93 164.254 121.886 164.194C121.854 164.133 121.471 164.32 121.253 164.764C121.029 165.209 121.111 165.626 121.176 165.62H121.182Z" fill="#263238"/>
<path id="Vector_76" d="M119.663 164.566C119.69 164.577 119.849 164.325 119.964 163.859C120.018 163.628 120.056 163.343 120.051 163.025C120.051 162.866 120.035 162.701 120.013 162.526C119.996 162.443 119.991 162.35 119.936 162.24C119.898 162.13 119.734 162.01 119.587 162.054C119.45 162.081 119.346 162.185 119.303 162.29C119.254 162.394 119.237 162.487 119.226 162.569C119.199 162.745 119.188 162.915 119.188 163.074C119.193 163.398 119.254 163.683 119.335 163.908C119.499 164.363 119.707 164.588 119.729 164.572C119.767 164.55 119.619 164.298 119.51 163.859C119.456 163.639 119.417 163.37 119.428 163.074C119.428 162.926 119.445 162.772 119.477 162.613C119.505 162.449 119.554 162.317 119.636 162.312C119.669 162.312 119.68 162.312 119.707 162.361C119.734 162.41 119.745 162.487 119.762 162.569C119.789 162.728 119.805 162.888 119.816 163.036C119.833 163.332 119.816 163.606 119.783 163.831C119.723 164.281 119.63 164.555 119.663 164.572V164.566Z" fill="#263238"/>
<path id="Vector_77" d="M119.8 164.517C119.8 164.517 119.636 164.254 119.199 164.04C118.986 163.936 118.708 163.842 118.391 163.804C118.232 163.788 118.063 163.782 117.888 163.804C117.713 163.826 117.484 163.848 117.342 164.1C117.276 164.237 117.337 164.402 117.413 164.479C117.489 164.567 117.566 164.611 117.642 164.66C117.795 164.759 117.959 164.824 118.118 164.863C118.434 164.945 118.735 164.934 118.975 164.874C119.456 164.753 119.663 164.501 119.642 164.49C119.62 164.451 119.379 164.632 118.942 164.693C118.724 164.72 118.456 164.715 118.189 164.632C118.052 164.589 117.916 164.528 117.79 164.446C117.648 164.358 117.555 164.254 117.593 164.205C117.621 164.133 117.784 164.062 117.932 164.056C118.09 164.04 118.243 164.034 118.385 164.045C118.675 164.067 118.937 164.133 119.144 164.21C119.565 164.369 119.789 164.55 119.816 164.517H119.8Z" fill="#263238"/>
</g>
<g id="Group_25">
<path id="Vector_78" d="M109.93 175.726L114.589 185.524L116.047 194.341C116.151 194.977 116.774 195.388 117.396 195.24C117.746 195.158 118.03 194.911 118.167 194.577C119.024 192.448 122.132 184.597 121.75 183.9C121.307 183.094 117.522 173.235 117.522 173.235L109.93 175.72V175.726Z" fill="#004FF1"/>
<path id="Vector_79" d="M117.397 195.246L121.455 183.242L121.641 183.659C121.804 184.021 121.832 184.432 121.723 184.811C121.428 185.831 120.548 188.635 118.194 194.571C118.057 194.917 117.757 195.169 117.391 195.246H117.397Z" fill="#D6E3FF"/>
<g id="Group_26" opacity="0.6">
<path id="Vector_80" d="M117.997 180.954C117.828 181.239 117.915 181.651 118.188 181.832C118.461 182.013 118.882 181.93 119.057 181.651C119.232 181.371 119.144 180.872 118.849 180.723C118.554 180.575 118.074 180.702 117.97 181.014" fill="white"/>
</g>
<path id="Vector_81" d="M117.713 189.897C117.67 189.952 117.216 189.529 116.506 189.518C115.796 189.485 115.315 189.869 115.272 189.814C115.25 189.792 115.343 189.661 115.561 189.524C115.774 189.387 116.124 189.266 116.517 189.282C116.91 189.299 117.249 189.441 117.451 189.59C117.659 189.743 117.741 189.88 117.719 189.902L117.713 189.897Z" fill="#263238"/>
<path id="Vector_82" d="M117.604 191.542C117.577 191.608 117.118 191.427 116.539 191.51C115.96 191.581 115.561 191.872 115.517 191.822C115.468 191.784 115.845 191.361 116.506 191.274C117.162 191.18 117.642 191.493 117.604 191.542Z" fill="#263238"/>
<path id="Vector_83" d="M118.259 187.609C118.232 187.675 117.527 187.401 116.621 187.45C115.714 187.488 115.037 187.834 115.004 187.768C114.966 187.724 115.638 187.252 116.61 187.214C117.582 187.159 118.298 187.565 118.259 187.615V187.609Z" fill="#263238"/>
<path id="Vector_84" d="M117.09 184.509C117.09 184.58 116.446 184.597 115.725 184.893C114.998 185.178 114.518 185.612 114.469 185.562C114.419 185.524 114.856 184.981 115.637 184.674C116.413 184.361 117.101 184.454 117.09 184.515V184.509Z" fill="#263238"/>
<path id="Vector_85" d="M115.796 181.596C115.796 181.667 115.097 181.585 114.365 181.958C113.622 182.315 113.262 182.918 113.207 182.88C113.18 182.869 113.234 182.693 113.404 182.457C113.567 182.222 113.868 181.942 114.261 181.744C114.66 181.547 115.064 181.486 115.348 181.497C115.638 181.508 115.801 181.569 115.801 181.602L115.796 181.596Z" fill="#263238"/>
<path id="Vector_86" d="M114.13 181.399C114.13 181.399 114.037 181.283 113.95 181.031C113.862 180.779 113.775 180.395 113.808 179.917C113.83 179.687 113.835 179.396 114.054 179.144C114.163 179.017 114.376 178.952 114.551 179.028C114.725 179.105 114.835 179.248 114.906 179.407C115.179 180.038 114.911 180.894 114.25 181.3C113.578 181.695 112.759 181.58 112.235 181.163C112.109 181.047 111.989 180.894 111.994 180.696C111.994 180.493 112.164 180.334 112.317 180.296C112.628 180.208 112.89 180.296 113.12 180.34C113.584 180.46 113.922 180.652 114.135 180.806C114.354 180.96 114.447 181.069 114.441 181.08C114.419 181.124 113.977 180.707 113.081 180.504C112.863 180.466 112.601 180.406 112.382 180.482C112.273 180.521 112.207 180.598 112.207 180.702C112.207 180.801 112.284 180.916 112.382 180.998C112.819 181.333 113.567 181.442 114.13 181.097C114.693 180.757 114.922 180.011 114.709 179.5C114.654 179.38 114.567 179.27 114.474 179.226C114.376 179.182 114.272 179.21 114.196 179.286C114.037 179.451 114.004 179.714 113.977 179.939C113.89 180.855 114.179 181.399 114.135 181.409L114.13 181.399Z" fill="#263238"/>
</g>
<g id="Group_27">
<path id="Vector_87" d="M125.623 157.55L112.852 148.92L117.08 107.241L104.987 100.147L93.926 97.5737C93.926 97.5737 89.305 107.224 87.2513 113.402C82.8816 126.541 79.8173 131.254 80.5165 140.778C80.7404 143.79 91.823 151.334 98.82 155.525C98.9183 156.485 99.0385 157.325 99.1914 158.022C101.584 168.884 108.887 183.324 108.887 183.324L119.98 178.145L116.397 165.829L120.128 168.012L125.617 157.55H125.623ZM98.1755 130.672L99.6666 123.99C99.3498 128.237 99.0658 132.669 98.8582 136.921C98.1427 134.957 97.8969 132.774 98.1755 130.672Z" fill="#263238"/>
<path id="Vector_88" d="M108.886 183.319C108.886 183.319 108.854 183.258 108.799 183.143C108.744 183.017 108.668 182.841 108.57 182.616C108.368 182.139 108.078 181.459 107.712 180.581C106.975 178.814 105.921 176.247 104.648 173.065C103.386 169.883 101.879 166.086 100.366 161.812C99.9887 160.743 99.6173 159.64 99.2732 158.504C99.1202 157.928 98.9236 157.363 98.8253 156.754C98.798 156.606 98.7597 156.452 98.7379 156.304L98.6833 155.849C98.6505 155.547 98.6177 155.24 98.5795 154.933C98.4484 153.704 98.3391 152.453 98.2627 151.18C98.2244 150.544 98.1862 149.902 98.1644 149.254C98.1425 148.612 98.1097 147.954 98.148 147.301C98.3337 142.062 98.7761 137.102 99.1366 132.582C99.5135 128.066 99.8521 124.001 100.136 120.583C100.409 117.165 100.606 114.4 100.715 112.485C100.775 111.531 100.808 110.785 100.83 110.28C100.841 110.038 100.852 109.846 100.863 109.709C100.874 109.578 100.879 109.512 100.879 109.512C100.879 109.512 100.884 109.578 100.884 109.709C100.884 109.852 100.884 110.038 100.879 110.285C100.874 110.79 100.852 111.536 100.808 112.491C100.726 114.405 100.562 117.176 100.306 120.594C100.038 124.012 99.7156 128.083 99.3551 132.598C99.0055 137.113 98.574 142.084 98.3883 147.307C98.3501 147.96 98.3828 148.601 98.4047 149.249C98.432 149.891 98.4648 150.533 98.503 151.169C98.5795 152.436 98.6887 153.687 98.8143 154.911C98.8471 155.218 98.8799 155.52 98.9127 155.827L98.9673 156.282C98.9891 156.43 99.0219 156.579 99.0547 156.721C99.1475 157.308 99.3442 157.879 99.4917 158.449C99.8358 159.58 100.202 160.682 100.573 161.747C102.075 166.015 103.561 169.817 104.806 173.01C106.068 176.187 107.089 178.76 107.8 180.554C108.149 181.437 108.422 182.123 108.613 182.605C108.701 182.83 108.772 183.011 108.821 183.138C108.865 183.258 108.886 183.319 108.886 183.324V183.319Z" fill="#455A64"/>
<path id="Vector_89" d="M100.355 108.113C100.355 108.113 100.246 108.042 100.065 107.877C99.9014 107.702 99.6993 107.405 99.5245 107.005C99.1804 106.204 99.0056 105.002 98.9783 103.697C98.9565 102.385 99.0493 101.206 99.1367 100.355C99.2241 99.5051 99.2951 98.9839 99.3279 98.9839C99.3607 98.9839 99.3497 99.5161 99.3061 100.366C99.2624 101.217 99.1968 102.391 99.2187 103.686C99.246 104.975 99.388 106.149 99.6829 106.934C99.8304 107.323 99.9997 107.619 100.136 107.806C100.289 107.981 100.366 108.091 100.355 108.102V108.113Z" fill="#455A64"/>
<path id="Vector_90" d="M95.5809 98.1938C95.5809 98.1938 95.7174 98.6328 95.6737 99.3624C95.6355 100.087 95.3897 101.102 94.7561 102.029C94.1225 102.956 93.2704 103.559 92.615 103.861C91.954 104.168 91.5062 104.223 91.5007 104.201C91.4898 104.163 91.9213 104.048 92.5385 103.713C93.1557 103.384 93.9532 102.786 94.554 101.897C95.1548 101.008 95.417 100.043 95.499 99.346C95.5863 98.6437 95.5317 98.1993 95.57 98.1938H95.5809Z" fill="#455A64"/>
<path id="Vector_91" d="M115.419 122.421C115.419 122.421 115.419 122.465 115.419 122.547C115.414 122.646 115.403 122.767 115.386 122.92C115.354 123.266 115.305 123.738 115.244 124.341C115.108 125.592 114.917 127.375 114.676 129.57C114.179 133.997 113.491 140.087 112.732 146.813C112.437 150.181 112.732 153.418 113.36 156.277C113.671 157.709 114.081 159.036 114.518 160.265C114.95 161.494 115.348 162.646 115.714 163.694C116.435 165.779 117.02 167.474 117.429 168.665C117.621 169.241 117.773 169.691 117.883 170.02C117.926 170.163 117.965 170.283 117.997 170.377C118.019 170.459 118.03 170.497 118.03 170.503C118.03 170.503 118.008 170.464 117.976 170.387C117.943 170.294 117.894 170.184 117.839 170.042C117.719 169.718 117.555 169.268 117.342 168.703C116.916 167.518 116.304 165.834 115.556 163.76C115.179 162.712 114.775 161.571 114.332 160.342C113.89 159.113 113.469 157.775 113.147 156.337C112.503 153.462 112.202 150.198 112.497 146.807C113.245 140.065 113.988 133.98 114.513 129.57C114.78 127.38 114.999 125.597 115.157 124.347C115.239 123.743 115.299 123.271 115.343 122.926C115.365 122.778 115.381 122.651 115.397 122.558C115.408 122.476 115.419 122.432 115.425 122.432L115.419 122.421Z" fill="#455A64"/>
</g>
<g id="Group_28">
<path id="Vector_92" d="M93.9258 97.4859L95.8867 92.4604L100.355 99.1537L94.3955 97.6614" fill="#FFB570"/>
<path id="Vector_93" d="M140.693 82.3766L135.389 70.4329C134.755 68.5127 133.564 68.2165 132.57 67.1028L119.281 59.5756C109.597 55.5925 104.326 68.9516 104.326 68.9516L95.5263 89.1192C85.1756 92.5646 92.5058 100.553 92.5058 100.553C92.5058 100.553 89.6928 95.6369 92.4566 93.8648C95.357 92.0105 98.5687 96.8988 101.66 101.546C105.303 107.032 117.151 110.593 117.151 110.593C118.538 109.122 118.15 103.987 119.232 101.233C119.576 100.361 127.78 81.2738 127.78 81.2738L130.959 89.015C130.959 89.015 135.034 84.2145 137.011 83.4519C138.988 82.6893 140.693 82.3821 140.693 82.3821V82.3766Z" fill="#004FF1"/>
<path id="Vector_94" d="M117.151 90.8639C117.151 90.8639 117.02 90.9845 116.746 91.1436C116.479 91.3082 116.069 91.5167 115.539 91.7197C114.491 92.1257 112.896 92.4439 111.175 92.1751C109.449 91.9062 108.029 91.1272 107.15 90.4195C106.707 90.0683 106.379 89.7447 106.172 89.5033C105.964 89.2673 105.86 89.1192 105.871 89.1137C105.904 89.0808 106.352 89.624 107.253 90.2823C108.144 90.9407 109.536 91.6758 111.213 91.9392C112.89 92.197 114.441 91.9172 115.49 91.5606C116.544 91.204 117.134 90.82 117.156 90.8639H117.151Z" fill="#263238"/>
<path id="Vector_95" d="M95.133 71.9252L103.332 72.7042L116.452 58.7801L108.739 58.5112L95.002 59.8718C95.002 59.8718 96.22 65.6215 95.1385 71.9252H95.133Z" fill="#004FF1"/>
<path id="Vector_96" d="M106.522 64.5898C106.522 64.5898 106.494 64.6831 106.423 64.8477C106.336 65.0342 106.227 65.2701 106.096 65.5609C105.795 66.2083 105.38 67.0916 104.878 68.1724C103.856 70.3779 102.507 73.4557 101.038 76.8627C99.5739 80.2751 98.2357 83.3584 97.2307 85.5749C96.7281 86.6831 96.313 87.5774 96.0126 88.1863C95.8706 88.4716 95.7559 88.7021 95.663 88.8886C95.5811 89.0477 95.5374 89.13 95.5265 89.1245C95.521 89.1245 95.5538 89.0312 95.6193 88.8666C95.7013 88.6801 95.7996 88.4387 95.9252 88.1479C96.2092 87.4951 96.597 86.6008 97.0722 85.509C98.039 83.2487 99.3609 80.1709 100.819 76.7749C102.289 73.3624 103.665 70.2956 104.725 68.1065C105.254 67.0093 105.691 66.1315 106.008 65.528C106.161 65.2482 106.281 65.0178 106.38 64.8367C106.467 64.6776 106.516 64.6008 106.522 64.6008V64.5898Z" fill="#263238"/>
<path id="Vector_97" d="M131.549 68.639C131.571 68.6774 131.063 68.9462 130.369 69.5388C130.02 69.8295 129.643 70.2245 129.26 70.6909C128.889 71.1682 128.528 71.7223 128.223 72.3477C127.922 72.9787 127.715 73.6096 127.573 74.1911C127.441 74.7782 127.37 75.3213 127.36 75.7767C127.327 76.6929 127.431 77.258 127.387 77.2635C127.37 77.2635 127.338 77.1263 127.289 76.8739C127.261 76.7477 127.234 76.5886 127.223 76.4021C127.212 76.2156 127.179 76.0071 127.19 75.7712C127.179 75.3049 127.234 74.7453 127.36 74.1418C127.496 73.5383 127.704 72.8854 128.01 72.238C128.326 71.5961 128.703 71.031 129.091 70.5482C129.49 70.0764 129.894 69.6869 130.26 69.4071C130.435 69.2535 130.62 69.1438 130.768 69.0395C130.921 68.9353 131.057 68.8585 131.178 68.7981C131.407 68.6774 131.538 68.6171 131.543 68.6335L131.549 68.639Z" fill="#263238"/>
</g>
<g id="Group_29">
<g id="Group_30">
<g id="Group_31">
<g id="Group_32">
<path id="Vector_98" d="M133.837 49.5083L126.147 63.9537C124.891 66.3128 122.034 67.2948 119.603 66.2031C116.927 65.0016 115.818 61.7756 117.189 59.1751C117.915 57.7981 118.516 56.6734 118.516 56.6734C118.516 56.6734 115.173 54.4953 116.736 50.8689C118.128 47.632 123.252 38.4918 124.344 36.5552L130.828 39.4684C134.471 41.3666 135.831 45.9148 133.837 49.5138V49.5083Z" fill="#FFB570"/>
<path id="Vector_99" d="M118.532 56.6128C118.532 56.6128 120.723 57.8198 123.814 57.3809C123.814 57.3809 121.548 59.4821 118.106 57.5455L118.532 56.6128Z" fill="#FFB570"/>
</g>
<g id="Group_33">
<g id="Group_34">
<g id="Group_35">
<path id="Vector_100" d="M121.007 45.0639C120.876 45.3328 120.996 45.662 121.269 45.8046C121.542 45.9472 121.875 45.843 122.006 45.5797C122.137 45.3108 122.017 44.9817 121.744 44.839C121.466 44.6964 121.138 44.8006 121.007 45.0639Z" fill="#263238"/>
<path id="Vector_101" d="M121.034 44.6033C121.067 44.6966 121.586 44.5869 122.138 44.8337C122.695 45.0751 122.968 45.5415 123.061 45.5031C123.104 45.4866 123.094 45.3385 122.973 45.13C122.859 44.9215 122.618 44.6637 122.274 44.5101C121.93 44.3564 121.581 44.3564 121.357 44.4113C121.127 44.4662 121.018 44.5594 121.034 44.6033Z" fill="#263238"/>
</g>
<g id="Group_36">
<path id="Vector_102" d="M126.174 47.6152C126.043 47.884 126.163 48.2132 126.436 48.3559C126.709 48.4985 127.042 48.3943 127.173 48.1309C127.304 47.8621 127.184 47.5329 126.911 47.3903C126.633 47.2476 126.305 47.3519 126.174 47.6152Z" fill="#263238"/>
<path id="Vector_103" d="M126.414 47.1487C126.447 47.242 126.966 47.1323 127.518 47.3791C128.075 47.6205 128.348 48.0869 128.441 48.0485C128.484 48.032 128.473 47.8839 128.353 47.6754C128.239 47.4669 127.998 47.2091 127.654 47.0555C127.31 46.9018 126.966 46.9018 126.736 46.9567C126.507 47.0116 126.398 47.1048 126.414 47.1487Z" fill="#263238"/>
</g>
<path id="Vector_104" d="M122.58 50.364C122.596 50.3311 122.28 50.1171 121.755 49.7989C121.619 49.7221 121.499 49.6344 121.52 49.5246C121.531 49.4094 121.662 49.2832 121.799 49.1461C122.083 48.8608 122.383 48.5645 122.695 48.2573C123.956 46.9845 124.94 45.9092 124.891 45.8543C124.841 45.8049 123.771 46.7979 122.509 48.0708C122.203 48.389 121.908 48.6852 121.624 48.976C121.499 49.1132 121.324 49.2558 121.302 49.4972C121.291 49.6179 121.362 49.7441 121.444 49.8099C121.52 49.8757 121.602 49.9142 121.668 49.9526C122.214 50.2324 122.558 50.3915 122.575 50.364H122.58Z" fill="#263238"/>
<path id="Vector_105" d="M124.033 51.4774C123.945 51.4335 123.678 52.0315 122.973 52.229C122.269 52.4265 121.662 52.0754 121.619 52.1522C121.591 52.1851 121.711 52.3333 121.974 52.4594C122.236 52.5856 122.656 52.6734 123.088 52.5582C123.519 52.4375 123.809 52.1467 123.94 51.9108C124.076 51.6694 124.076 51.4884 124.033 51.4774Z" fill="#263238"/>
</g>
<path id="Vector_106" d="M127.245 44.9107C127.234 45.0863 127.813 45.2618 128.43 45.6349C129.053 45.9915 129.49 46.4194 129.632 46.3207C129.697 46.2713 129.67 46.0903 129.522 45.8489C129.38 45.6075 129.107 45.3222 128.736 45.1027C128.364 44.8833 127.982 44.7845 127.704 44.779C127.425 44.7681 127.25 44.8339 127.239 44.9162L127.245 44.9107Z" fill="#263238"/>
<path id="Vector_107" d="M121.952 43.0891C121.996 43.2592 122.433 43.2976 122.891 43.5006C123.361 43.6816 123.7 43.9669 123.847 43.8737C123.913 43.8298 123.913 43.6762 123.793 43.4787C123.678 43.2866 123.443 43.0617 123.126 42.93C122.809 42.7984 122.482 42.7929 122.269 42.8477C122.05 42.9026 121.941 43.0123 121.952 43.0891Z" fill="#263238"/>
</g>
<g id="Group_37">
<path id="Vector_108" d="M131.418 51.6753C131.489 51.6753 134.214 52.0538 133.034 54.4843C131.855 56.9147 129.67 55.2249 129.697 55.1536C129.724 55.0823 131.418 51.6753 131.418 51.6753Z" fill="#FFB570"/>
<path id="Vector_109" d="M130.888 54.594C130.888 54.594 130.915 54.6433 130.97 54.7092C131.024 54.775 131.133 54.8573 131.281 54.8683C131.581 54.9012 131.997 54.594 132.22 54.166C132.335 53.9466 132.39 53.7162 132.395 53.5022C132.406 53.2882 132.352 53.1072 132.237 53.0194C132.122 52.9261 131.997 52.959 131.931 53.0139C131.865 53.0688 131.86 53.1236 131.844 53.1181C131.833 53.1181 131.811 53.0523 131.882 52.959C131.915 52.9152 131.969 52.8713 132.051 52.8548C132.133 52.8383 132.231 52.8548 132.313 52.9042C132.494 53.0084 132.581 53.2608 132.57 53.4967C132.57 53.7381 132.515 54.0014 132.39 54.2483C132.139 54.7311 131.663 55.0658 131.265 54.9999C131.073 54.9615 130.953 54.8408 130.91 54.7476C130.866 54.6488 130.877 54.5885 130.888 54.5885V54.594Z" fill="#EB996E"/>
</g>
</g>
<path id="Vector_110" d="M132.821 52.2075C132.488 51.9497 131.685 52.0045 131.369 52.2843C131.052 52.5641 130.839 52.9482 130.522 53.228C130.205 53.5078 129.703 53.6669 129.369 53.409C129.14 53.2335 129.063 52.9043 129.107 52.6135C129.156 52.3227 129.304 52.0649 129.457 51.8125C130.118 50.7262 130.866 49.6893 131.429 48.5482C131.991 47.407 132.363 46.1287 132.199 44.8669C132.035 43.605 131.243 42.3761 130.047 41.9537C129.255 41.6739 128.375 41.7562 127.572 41.5257C126.616 41.2459 125.808 40.4998 125.453 39.5671C125.409 39.4464 125.136 39.0185 125.136 39.0185C125.164 38.9582 125.448 38.4699 125.737 38.3711C127.867 37.6469 130.751 38.4808 132.516 39.8744C134.28 41.2679 135.514 43.5173 135.536 45.7721C135.558 48.027 134.143 50.5178 132.827 52.1966" fill="#263238"/>
</g>
<path id="Vector_111" d="M132.849 51.9606C133.521 50.8085 134.613 49.9801 135.449 48.9432C136.285 47.9063 136.853 46.4414 136.263 45.2509C136.061 44.8449 135.733 44.4993 135.564 44.0769C135.394 43.6544 135.394 43.1826 135.329 42.7272C135.127 41.3282 134.247 40.039 133.013 39.3532C132.161 38.8759 131.178 38.6838 130.315 38.223C128.949 37.5043 127.949 36.1656 126.513 35.5951C126.038 35.4085 125.481 35.3153 125.022 35.5512C124.568 35.7871 124.323 36.4509 124.656 36.8404C124.596 36.3796 124 36.1272 123.58 36.3193C123.159 36.5113 122.941 37.016 122.973 37.4769C123.001 37.9377 123.23 38.3656 123.492 38.7497C124.366 40.006 125.699 40.9277 127.174 41.2953L130.473 41.0375L133.177 43.0509L135.181 46.2494L131.549 50.9896L132.838 51.9606H132.849Z" fill="#263238"/>
</g>
</g>
</g>
<g id="Group_38">
<g id="Group_39">
<path id="Vector_112" d="M123.121 27.4207C122.706 20.9689 117.162 16.0751 110.738 16.4921C104.315 16.909 99.4426 22.4776 99.8577 28.9295C100.158 33.5983 103.146 37.4552 107.215 39.0681C107.303 40.4507 107.406 42.0143 107.406 42.0143L117.599 41.3504C117.599 41.3504 117.555 39.6936 117.484 38.2123C121.105 36.0287 123.416 31.9414 123.126 27.4153L123.121 27.4207Z" fill="#004FF1"/>
<path id="Vector_113" d="M113.911 41.5423C113.911 41.5423 113.911 41.4929 113.911 41.3996C113.911 41.3009 113.922 41.1582 113.933 40.9772C113.955 40.6041 113.983 40.0555 114.043 39.3477C114.103 38.64 114.185 37.7732 114.343 36.7802C114.507 35.7871 114.742 34.6515 115.19 33.461C115.414 32.863 115.676 32.254 116.036 31.6505C116.222 31.3542 116.457 31.0635 116.785 30.8824C117.112 30.6959 117.538 30.6684 117.893 30.8495C118.068 30.9373 118.227 31.0909 118.292 31.2884C118.369 31.4804 118.363 31.6999 118.281 31.8919C118.123 32.2759 117.801 32.5502 117.435 32.7258C116.686 33.044 115.796 33.033 115.004 32.7093C114.212 32.3857 113.551 31.7054 113.234 30.866C113.081 30.449 112.983 29.9881 113.081 29.5218C113.163 29.061 113.573 28.6275 114.086 28.644C114.338 28.644 114.578 28.8031 114.703 29.0171C114.835 29.231 114.878 29.4889 114.846 29.7303C114.764 30.2241 114.436 30.6136 114.103 30.9428C113.409 31.6011 112.431 32.0016 111.443 31.9083C110.459 31.8151 109.542 31.228 109.083 30.3722C108.843 29.9497 108.761 29.4285 108.914 28.9622C108.99 28.7318 109.154 28.5123 109.389 28.4136C109.618 28.3039 109.891 28.3313 110.11 28.4355C110.328 28.5343 110.514 28.7098 110.634 28.9183C110.754 29.1213 110.82 29.3517 110.853 29.5822C110.913 30.0375 110.88 30.4984 110.76 30.9263C110.53 31.7931 109.973 32.5448 109.247 32.9891C108.52 33.439 107.657 33.6036 106.86 33.4774C106.467 33.4171 106.062 33.2854 105.778 32.9891C105.5 32.6984 105.396 32.2156 105.642 31.8699C105.762 31.7054 105.959 31.6066 106.15 31.5792C106.341 31.5517 106.538 31.5792 106.712 31.6505C107.067 31.7986 107.302 32.1059 107.477 32.4076C107.81 33.0221 108.083 33.6201 108.362 34.1961C109.443 36.4894 110.23 38.3876 110.754 39.7044C111.017 40.3627 111.213 40.8784 111.35 41.2241C111.415 41.3941 111.464 41.5258 111.497 41.6246C111.53 41.7123 111.541 41.7617 111.541 41.7617C111.541 41.7617 111.519 41.7178 111.481 41.63C111.443 41.5368 111.388 41.4051 111.322 41.235C111.18 40.8839 110.973 40.3737 110.705 39.7263C110.159 38.4206 109.362 36.5278 108.269 34.24C107.991 33.6749 107.712 33.066 107.384 32.4625C107.215 32.1717 106.991 31.8864 106.674 31.7602C106.368 31.634 105.953 31.6615 105.746 31.9413C105.544 32.2211 105.631 32.6545 105.877 32.9069C106.128 33.1757 106.51 33.3019 106.893 33.3567C107.657 33.4774 108.493 33.3183 109.187 32.8794C109.886 32.4515 110.416 31.7218 110.64 30.8934C110.754 30.4764 110.787 30.0375 110.727 29.6041C110.667 29.1817 110.459 28.7428 110.061 28.5672C109.87 28.4794 109.646 28.4575 109.454 28.5507C109.263 28.633 109.127 28.8141 109.056 29.0171C108.919 29.434 108.99 29.9168 109.22 30.3118C109.651 31.1238 110.53 31.6889 111.464 31.7767C112.404 31.8645 113.349 31.4804 114.015 30.8495C114.338 30.5313 114.649 30.1582 114.714 29.7193C114.747 29.5054 114.703 29.2804 114.594 29.0994C114.485 28.9183 114.294 28.7921 114.092 28.7921C113.884 28.7867 113.677 28.8744 113.524 29.0171C113.365 29.1597 113.272 29.3517 113.223 29.5602C113.136 29.9827 113.223 30.427 113.371 30.8221C113.671 31.6285 114.305 32.2814 115.059 32.5886C115.812 32.9014 116.675 32.9123 117.385 32.6106C117.73 32.4515 118.035 32.1827 118.172 31.8425C118.319 31.5078 118.161 31.1019 117.844 30.9537C117.533 30.7946 117.14 30.8166 116.845 30.9867C116.539 31.1512 116.315 31.4256 116.135 31.7163C115.785 32.3034 115.517 32.9123 115.293 33.5049C114.846 34.6844 114.6 35.8146 114.43 36.8021C114.267 37.7951 114.174 38.6565 114.108 39.3642C114.048 40.0664 114.004 40.6151 113.972 40.9936C113.955 41.1747 113.944 41.3173 113.939 41.4161C113.928 41.5093 113.922 41.5587 113.922 41.5587L113.911 41.5423Z" fill="#263238"/>
<path id="Vector_114" d="M116.937 43.2979L108.187 43.8685C107.827 43.8904 107.51 43.6161 107.488 43.254C107.466 42.8919 107.739 42.5737 108.1 42.5518L116.85 41.9812C117.211 41.9593 117.527 42.2336 117.549 42.5957C117.571 42.9578 117.298 43.276 116.937 43.2979Z" fill="#263238"/>
<path id="Vector_115" d="M116.976 43.874L108.225 44.4446C107.865 44.4665 107.586 44.7847 107.614 45.1468C107.636 45.5089 107.952 45.7887 108.313 45.7613L109.274 45.701L110.705 48.0546C110.869 48.3234 111.17 48.477 111.481 48.4606L114.611 48.2576C114.927 48.2356 115.206 48.0381 115.332 47.7473L116.413 45.2401L117.069 45.1962C117.429 45.1743 117.708 44.8561 117.686 44.494C117.664 44.1319 117.347 43.8521 116.987 43.8795L116.976 43.874Z" fill="#263238"/>
</g>
<g id="Group_40" opacity="0.2">
<path id="Vector_116" d="M103.539 21.216C104.277 20.4424 105.063 19.8773 105.768 19.5097C106.473 19.1421 107.09 18.9446 107.527 18.8678C107.964 18.791 108.215 18.8185 108.242 18.9117C108.308 19.1202 107.445 19.4933 106.309 20.3656C105.178 21.2215 103.78 22.6808 103.01 24.6723C102.245 26.6638 102.294 28.6883 102.556 30.0873C102.807 31.5027 103.195 32.3586 103.01 32.4738C102.928 32.5232 102.725 32.3696 102.452 32.0185C102.179 31.6673 101.857 31.1077 101.584 30.3561C101.311 29.6045 101.103 28.6554 101.081 27.5855C101.06 26.5157 101.234 25.3252 101.677 24.1566" fill="white"/>
</g>
<g id="Group_41" opacity="0.2">
<path id="Vector_117" d="M111.077 19.235C110.339 19.2735 109.673 19.1143 109.575 18.7303C109.531 18.5383 109.651 18.3243 109.908 18.1433C110.165 17.9622 110.552 17.8306 110.989 17.8031C111.432 17.7757 111.831 17.869 112.104 18.0116C112.377 18.1597 112.524 18.3572 112.502 18.5547" fill="white"/>
</g>
<path id="Vector_118" d="M115.173 47.967C115.173 47.967 114.938 47.9012 114.562 47.8189C114.185 47.7366 113.649 47.6708 113.065 47.7257C112.481 47.7805 111.967 47.9451 111.612 48.0932C111.257 48.2468 111.049 48.373 111.039 48.3511C111.028 48.3401 111.219 48.181 111.574 48C111.923 47.8189 112.453 47.6379 113.054 47.5775C113.66 47.5227 114.212 47.605 114.589 47.7147C114.971 47.8244 115.184 47.9451 115.179 47.9616L115.173 47.967Z" fill="#455A64"/>
<path id="Vector_119" d="M116.43 45.2677C116.43 45.3061 114.851 45.4433 112.901 45.5695C110.951 45.6957 109.367 45.767 109.362 45.7286C109.362 45.6902 110.94 45.553 112.89 45.4268C114.84 45.3006 116.424 45.2293 116.43 45.2677Z" fill="#455A64"/>
<path id="Vector_120" d="M115.944 46.3431C115.944 46.3431 115.621 46.4199 115.086 46.4857C114.556 46.5515 113.819 46.6338 113.005 46.6997C112.191 46.7655 111.448 46.8039 110.913 46.8204C110.378 46.8368 110.044 46.8313 110.044 46.8149C110.044 46.7929 110.372 46.7655 110.907 46.7216C111.486 46.6777 112.202 46.6229 112.994 46.5625C113.786 46.4967 114.502 46.4418 115.075 46.3924C115.61 46.3485 115.938 46.3321 115.944 46.3485V46.3431Z" fill="#455A64"/>
</g>
<g id="Group_42">
<path id="Vector_121" d="M52.916 105.156L54.8168 108.212C54.8168 108.212 62.9281 100.718 70.9683 102.835C70.9683 102.835 63.7365 96.6797 52.916 105.156Z" fill="#007CFF"/>
<path id="Vector_122" d="M70.9683 102.84C70.9683 102.84 76.922 96.3502 85.6504 97.8315L88.0319 98.1936L87.2727 96.8111C87.2727 96.8111 72.0935 91.5881 70.9737 102.84H70.9683Z" fill="#007CFF"/>
<g id="Group_43">
<path id="Vector_123" d="M58.4057 80.9505C58.4057 80.9505 46.4819 78.8876 38.6602 83.1395L51.0755 106.621C51.0755 106.621 61.2405 96.7784 70.9631 102.841L58.4002 80.9505H58.4057Z" fill="#F5F5F5"/>
<path id="Vector_124" d="M58.4056 80.9503C58.4056 80.9503 58.4275 80.9778 58.4712 81.0436C58.5149 81.1149 58.575 81.2137 58.6514 81.3399C58.8098 81.6142 59.0392 82.0037 59.3397 82.5084C59.9405 83.5454 60.8144 85.0486 61.9232 86.9523C64.1463 90.7982 67.3034 96.268 71.0668 102.786C71.0941 102.835 71.0777 102.901 71.0286 102.928C70.9958 102.95 70.9521 102.945 70.9193 102.928C69.5702 102.094 68.019 101.464 66.3476 101.167C65.5118 101.03 64.6488 100.97 63.7694 100.986C62.8955 101.025 62.0106 101.134 61.1312 101.321C57.6082 102.105 54.1889 104.026 51.2667 106.61L51.1629 106.703C51.1137 106.747 51.0427 106.747 50.9936 106.703C50.9881 106.697 50.9772 106.686 50.9717 106.676C46.3617 97.9359 42.0849 89.8326 38.5727 83.1833C38.5454 83.1394 38.5618 83.079 38.611 83.0516C41.3475 81.6306 44.1222 81.0162 46.5583 80.687C49.0108 80.3688 51.1574 80.3578 52.9162 80.4072C54.675 80.4675 56.0515 80.6102 56.98 80.7254C57.4443 80.7803 57.7994 80.8351 58.0397 80.879C58.1544 80.901 58.2418 80.9174 58.3128 80.9284C58.3729 80.9394 58.4056 80.9503 58.4002 80.9503C58.4002 80.9503 58.3674 80.9503 58.3073 80.9449C58.2363 80.9339 58.1489 80.9229 58.0342 80.9119C57.7939 80.8845 57.4389 80.8351 56.9746 80.7912C56.0406 80.6925 54.6696 80.5718 52.9162 80.5279C51.1629 80.495 49.0163 80.5224 46.5802 80.8516C44.155 81.1917 41.4021 81.8172 38.7038 83.2271L38.7421 83.0955C42.2651 89.7394 46.5529 97.8371 51.1793 106.566L50.9936 106.538L51.0973 106.44C52.5667 105.117 54.178 104.004 55.8494 103.087C57.5262 102.177 59.285 101.485 61.0712 101.096C61.9669 100.909 62.8627 100.794 63.753 100.761C64.6434 100.745 65.5228 100.805 66.3749 100.948C68.079 101.255 69.6521 101.902 71.0177 102.753L70.8702 102.895C67.1505 96.3723 64.0262 90.897 61.8304 87.0511C60.7434 85.1309 59.8804 83.6112 59.2905 82.5633C59.001 82.0476 58.7771 81.6526 58.6241 81.3728C58.5531 81.2411 58.4985 81.1424 58.4548 81.0656C58.4166 80.9942 58.4002 80.9558 58.4002 80.9558L58.4056 80.9503Z" fill="#263238"/>
</g>
<g id="Group_44">
<path id="Vector_125" d="M77.1462 76.1282C77.1462 76.1282 68.1282 70.3566 58.5586 80.9451L71.1214 102.835C71.1214 102.835 73.6832 93.9531 88.6876 97.0419L77.1462 76.1282Z" fill="#F5F5F5"/>
<path id="Vector_126" d="M77.146 76.1279C77.146 76.1279 77.1678 76.1554 77.206 76.2212C77.2497 76.2925 77.3044 76.3858 77.3699 76.5065C77.5174 76.7698 77.7304 77.1374 78.0035 77.6202C78.5552 78.6077 79.3581 80.0452 80.3795 81.8666C82.4169 85.5424 85.3173 90.7599 88.7748 96.9978C88.8021 97.0471 88.7857 97.113 88.7366 97.1404C88.7147 97.1514 88.6929 97.1569 88.671 97.1514C87.9391 97.0307 87.1962 96.9045 86.437 96.7838C86.0601 96.707 85.6723 96.685 85.2845 96.6576C84.8967 96.6247 84.5034 96.5973 84.1047 96.5643C83.7114 96.5205 83.3072 96.5259 82.9085 96.5369C82.5043 96.5369 82.1001 96.5479 81.6904 96.5534C81.2808 96.5643 80.8766 96.6357 80.4669 96.6741C80.0573 96.7289 79.6367 96.7509 79.2325 96.8606C78.8228 96.9539 78.4132 97.0471 77.998 97.1404C77.5993 97.2831 77.1951 97.4202 76.7909 97.5629C76.3867 97.7055 76.0153 97.9249 75.622 98.106C75.4254 98.1938 75.2397 98.309 75.0594 98.4297L74.5078 98.7808C74.1473 99.0222 73.8195 99.3239 73.4809 99.5983C73.1805 99.922 72.8418 100.207 72.5742 100.569C72.0116 101.25 71.5309 102.04 71.2359 102.874C71.2141 102.939 71.1486 102.972 71.083 102.95C71.0557 102.939 71.0339 102.923 71.0175 102.896C70.8591 102.616 70.6843 102.314 70.5095 102.012C66.0688 94.2601 61.9285 87.0347 58.471 80.9943C58.4492 80.9559 58.4546 80.9065 58.4819 80.8791C60.6067 78.5529 62.9499 76.7753 65.2877 75.7384C67.62 74.6741 69.8923 74.4107 71.7057 74.5259C73.53 74.6412 74.912 75.0855 75.8132 75.4476C76.2666 75.6287 76.5943 75.8042 76.8182 75.9195C76.922 75.9798 77.0039 76.0292 77.064 76.0621C77.1186 76.1005 77.146 76.117 77.1405 76.117C77.1405 76.117 77.1077 76.106 77.0531 76.0731C76.9876 76.0402 76.9056 75.9963 76.8018 75.9414C76.5779 75.8317 76.2447 75.6671 75.7914 75.497C74.8901 75.1514 73.5137 74.7289 71.7002 74.6302C69.9032 74.5314 67.6528 74.8112 65.3533 75.8756C63.0482 76.9125 60.7323 78.6846 58.6294 80.9998L58.6403 80.8845C62.1088 86.9195 66.26 94.1339 70.7116 101.881C70.8864 102.182 71.0557 102.484 71.2196 102.764L71.0011 102.791C71.3124 101.897 71.804 101.107 72.383 100.405C72.6561 100.037 73.0002 99.7354 73.3116 99.4062C73.6611 99.121 73.9943 98.8192 74.3657 98.5668L74.9283 98.2048C75.1141 98.0841 75.2998 97.9634 75.5019 97.8756C75.9006 97.6945 76.2829 97.4641 76.6981 97.3215C77.1077 97.1788 77.5174 97.0362 77.927 96.8935C78.3476 96.8003 78.7627 96.707 79.1779 96.6082C79.5875 96.493 80.0136 96.4711 80.4287 96.4217C80.8438 96.3833 81.2589 96.3065 81.6686 96.301C82.0837 96.301 82.4934 96.29 82.8976 96.29C83.3018 96.2845 83.7059 96.2736 84.1047 96.323C84.5034 96.3559 84.8967 96.3888 85.29 96.4217C85.6832 96.4546 86.071 96.4766 86.4534 96.5534C87.2181 96.6796 87.9664 96.8057 88.6983 96.9319L88.5836 97.0855C85.1589 90.8422 82.2913 85.6137 80.2757 81.9324C79.2762 80.1 78.4896 78.6516 77.9489 77.6531C77.6867 77.1648 77.4846 76.7863 77.3426 76.5175C77.277 76.3913 77.2279 76.298 77.1897 76.2212C77.1569 76.1554 77.1405 76.1225 77.1405 76.117L77.146 76.1279Z" fill="#263238"/>
</g>
<g id="Group_45">
<path id="Vector_127" d="M42.0195 71.8486L55.4672 97.8536C55.4672 97.8536 66.3969 97.3708 71.0179 102.72L58.5588 80.9449C58.5588 80.9449 51.2505 71.8486 42.0195 71.8486Z" fill="#F5F5F5"/>
<path id="Vector_128" d="M42.0195 71.8486C42.0195 71.8486 42.1288 71.8486 42.3582 71.8596C42.604 71.8706 42.9481 71.8816 43.396 71.9035C43.5107 71.909 43.6309 71.909 43.7619 71.9254C43.8876 71.9474 44.0187 71.9693 44.1552 71.9913C44.4283 72.0352 44.7287 72.09 45.0565 72.1394C45.3842 72.1778 45.7228 72.2875 46.0888 72.3863C46.4493 72.496 46.848 72.5728 47.2413 72.7264C50.453 73.8018 54.7626 76.4022 58.6407 80.8845V80.8955H58.6517C62.202 87.084 66.4952 94.5728 71.1326 102.66C71.1653 102.714 71.1435 102.791 71.0889 102.824C71.0397 102.852 70.9851 102.841 70.9469 102.808H70.9414C70.7775 102.638 70.5973 102.457 70.4116 102.276C69.412 101.299 68.2267 100.531 66.9704 99.9933C65.7196 99.4392 64.4251 99.0112 63.1251 98.7259C60.5252 98.1389 57.9307 97.9195 55.4836 97.9688C55.4399 97.9688 55.4017 97.9469 55.3853 97.9085C51.4635 90.2716 48.1152 83.7539 45.7447 79.1289C44.5758 76.8357 43.6418 75.0197 43.0027 73.7579C42.6914 73.1434 42.451 72.6661 42.2817 72.3369C42.2052 72.1833 42.1452 72.0626 42.1015 71.9748C42.0632 71.8925 42.0414 71.8541 42.0468 71.8541C42.0468 71.8541 42.0742 71.898 42.1178 71.9858C42.167 72.0791 42.2326 72.1998 42.3145 72.3589C42.4893 72.6935 42.746 73.1763 43.0683 73.7963C43.7292 75.0526 44.6796 76.8741 45.8812 79.1673C48.2736 83.7594 51.6438 90.2332 55.5874 97.8097L55.4836 97.7494C57.9634 97.6945 60.5634 97.914 63.1907 98.501C64.507 98.7808 65.8125 99.2142 67.0852 99.7793C68.3633 100.328 69.5704 101.112 70.5973 102.111C70.783 102.298 70.9687 102.479 71.138 102.654L70.9469 102.791C66.3259 94.699 62.0436 87.1993 58.5042 81.0052L58.5151 81.0162C56.6252 78.7833 54.5605 77.0332 52.6324 75.6671C50.6824 74.323 48.8308 73.3903 47.2358 72.8416C46.8426 72.6825 46.4493 72.6003 46.0943 72.4905C45.7338 72.3918 45.4006 72.2766 45.0729 72.2327C44.7506 72.1723 44.4556 72.1175 44.1825 72.0681C44.046 72.0407 43.9149 72.0187 43.7947 71.9968C43.6691 71.9803 43.5544 71.9803 43.4451 71.9693C42.6258 71.9035 42.2435 71.8706 42.0632 71.8596L42.0195 71.8486Z" fill="#263238"/>
</g>
</g>
<path id="Vector_129" d="M83.99 145.601L84.2795 146.083C84.6017 146.627 85.0769 147.06 85.6395 147.34L86.142 147.587L85.6614 147.877C85.1206 148.201 84.6891 148.678 84.4106 149.243L84.1648 149.748L83.8753 149.265C83.553 148.722 83.0778 148.289 82.5152 148.009L82.0127 147.762L82.4934 147.471C83.0341 147.148 83.4656 146.67 83.7442 146.105L83.99 145.601Z" fill="#001C54"/>
<path id="Vector_130" d="M57.4827 46.5513L57.7721 47.0341C58.0944 47.5772 58.5696 48.0106 59.1322 48.2904L59.6347 48.5373L59.1541 48.8281C58.6133 49.1518 58.1818 49.6291 57.9032 50.1942L57.6574 50.6989L57.3679 50.2161C57.0457 49.673 56.5705 49.2396 56.0079 48.9598L55.5054 48.7129L55.986 48.4221C56.5268 48.0984 56.9583 47.6211 57.2369 47.056L57.4827 46.5513Z" fill="#E8505B"/>
<path id="Vector_131" d="M180.156 63.6411L180.445 64.1239C180.768 64.6671 181.243 65.1005 181.806 65.3803L182.308 65.6271L181.827 65.9179C181.287 66.2416 180.855 66.7189 180.577 67.284L180.331 67.7887L180.041 67.306C179.719 66.7628 179.244 66.3294 178.681 66.0496L178.179 65.8027L178.659 65.5119C179.2 65.1882 179.632 64.7109 179.91 64.1459L180.156 63.6411Z" fill="#001C54"/>
<path id="Vector_132" d="M165.671 151.822L165.96 152.305C166.282 152.848 166.758 153.282 167.32 153.561L167.823 153.808L167.342 154.099C166.801 154.423 166.37 154.9 166.091 155.465L165.845 155.97L165.556 155.487C165.234 154.944 164.758 154.511 164.196 154.231L163.693 153.984L164.174 153.693C164.715 153.369 165.146 152.892 165.425 152.327L165.671 151.822Z" fill="#001C54"/>
<path id="Vector_133" d="M174.923 167.606L175.082 167.672C175.257 167.743 175.453 167.765 175.639 167.727L175.808 167.694L175.743 167.853C175.672 168.028 175.65 168.226 175.688 168.412L175.721 168.583L175.562 168.517C175.388 168.445 175.191 168.423 175.005 168.462L174.836 168.495L174.901 168.336C174.972 168.16 174.994 167.963 174.956 167.776L174.923 167.606Z" fill="#001C54"/>
<path id="Vector_134" d="M176.769 45.0537L176.906 45.1086C177.059 45.1689 177.228 45.1854 177.397 45.158L177.545 45.1305L177.49 45.2677C177.43 45.4213 177.414 45.5914 177.441 45.7614L177.468 45.9096L177.332 45.8547C177.179 45.7944 177.01 45.7779 176.84 45.8053L176.693 45.8328L176.747 45.6956C176.808 45.542 176.824 45.3719 176.797 45.2018L176.769 45.0537Z" fill="#E8505B"/>
<path id="Vector_135" d="M62.8738 33.6094L63.0104 33.6642C63.1633 33.7246 63.3327 33.741 63.502 33.7136L63.6495 33.6862L63.5948 33.8233C63.5347 33.977 63.5184 34.147 63.5457 34.3171L63.573 34.4652L63.4364 34.4104C63.2835 34.35 63.1142 34.3336 62.9448 34.361L62.7974 34.3884L62.852 34.2513C62.9121 34.0977 62.9285 33.9276 62.9011 33.7575L62.8738 33.6094Z" fill="#E8505B"/>
<path id="Vector_136" d="M76.9275 131.177L77.0641 131.232C77.217 131.292 77.3864 131.309 77.5557 131.281L77.7032 131.254L77.6485 131.391C77.5885 131.545 77.5721 131.715 77.5994 131.885L77.6267 132.033L77.4901 131.978C77.3372 131.918 77.1679 131.901 76.9986 131.929L76.8511 131.956L76.9057 131.819C76.9658 131.666 76.9822 131.495 76.9549 131.325L76.9275 131.177Z" fill="#001C54"/>
<g id="Group_46">
<path id="Vector_137" d="M87.8025 165.933C87.8025 165.933 87.7533 165.987 87.655 166.092C87.5457 166.201 87.3928 166.35 87.2016 166.547C86.792 166.948 86.1966 167.529 85.4374 168.275C83.8861 169.778 81.6576 171.94 78.8883 174.617L78.9156 174.552C79.2269 181.437 79.6475 190.791 80.1227 201.198L80.1337 201.434L79.937 201.303C79.1887 200.798 78.3803 200.26 77.5719 199.717C72.1808 196.091 67.0738 192.656 62.5784 189.639L62.5457 189.617L62.5347 189.584C60.3007 182.874 58.4108 177.218 57.0781 173.224C56.4226 171.238 55.9092 169.669 55.5487 168.582C55.3794 168.05 55.2428 167.639 55.15 167.348C55.1063 167.216 55.079 167.112 55.0516 167.03C55.0298 166.959 55.0189 166.92 55.0243 166.92C55.0243 166.92 55.0407 166.953 55.068 167.024C55.0953 167.101 55.1336 167.205 55.1827 167.337C55.2811 167.622 55.4285 168.034 55.6088 168.561C55.9802 169.641 56.5155 171.205 57.1928 173.185C58.5419 177.174 60.4591 182.819 62.7314 189.518L62.6877 189.463C67.183 192.481 72.2955 195.904 77.6921 199.525C78.5005 200.068 79.3034 200.606 80.0572 201.111L79.8715 201.215C79.429 190.807 79.0303 181.453 78.7354 174.568V174.53L78.7627 174.502C81.5483 171.847 83.7987 169.702 85.3609 168.215C86.1365 167.485 86.7374 166.915 87.1579 166.52C87.36 166.333 87.513 166.19 87.6277 166.086C87.7369 165.987 87.7915 165.944 87.7915 165.944L87.8025 165.933Z" fill="#001C54"/>
<path id="Vector_138" d="M80.8222 198.061L80.773 199.613L82.0239 200.535L80.5382 200.968L80.052 202.444L79.1781 201.16L77.6323 201.149L78.5827 199.926L78.1075 198.445L79.5659 198.971L80.8222 198.061Z" fill="#001C54"/>
<path id="Vector_139" d="M62.7642 187.521L62.797 188.525L63.6382 189.068L62.6932 189.408L62.4365 190.379L61.8248 189.584L60.8252 189.644L61.3878 188.81L61.0273 187.872L61.9886 188.157L62.7642 187.521Z" fill="#001C54"/>
<path id="Vector_140" d="M54.9863 165.066L55.7401 166.042L56.9691 165.966L56.2808 166.992L56.7287 168.138L55.5489 167.798L54.5985 168.583L54.5548 167.348L53.5225 166.679L54.675 166.262L54.9863 165.066Z" fill="#001C54"/>
<path id="Vector_141" d="M87.0434 164.095L87.8027 165.066L89.0262 164.994L88.3379 166.015L88.7858 167.167L87.606 166.821L86.6556 167.606L86.6174 166.372L85.5796 165.708L86.7376 165.285L87.0434 164.095Z" fill="#001C54"/>
<path id="Vector_142" d="M78.6319 173.498L79.1125 174.118L79.8936 174.074L79.4566 174.727L79.7407 175.462L78.9869 175.243L78.3806 175.742L78.3533 174.952L77.6924 174.529L78.4298 174.261L78.6319 173.498Z" fill="#001C54"/>
</g>
<g id="Group_47">
<g id="Group_48">
<path id="Vector_143" d="M58.8376 139.193C64.1047 139.193 68.3745 134.904 68.3745 129.614C68.3745 124.323 64.1047 120.035 58.8376 120.035C53.5706 120.035 49.3008 124.323 49.3008 129.614C49.3008 134.904 53.5706 139.193 58.8376 139.193Z" fill="#007CFF"/>
<g id="Group_49" opacity="0.3">
<path id="Vector_144" d="M57.5978 132.604C57.5978 133.465 56.9041 134.167 56.0411 134.167C55.1781 134.167 54.4844 133.47 54.4844 132.604C54.4844 131.737 55.1781 131.04 56.0411 131.04C56.9041 131.04 57.5978 131.737 57.5978 132.604Z" fill="white"/>
</g>
<g id="Group_50" opacity="0.3">
<path id="Vector_145" d="M55.3964 128.1C55.3964 128.599 54.9922 129.01 54.4897 129.01C53.9872 129.01 53.583 128.604 53.583 128.1C53.583 127.595 53.9872 127.189 54.4897 127.189C54.9922 127.189 55.3964 127.595 55.3964 128.1Z" fill="white"/>
</g>
</g>
<path id="Vector_146" d="M49.59 131.945C49.6337 132.11 41.4296 140.016 43.5435 141.7C45.6573 143.384 54.5551 139.061 62.1365 132.911C69.7179 126.761 76.6493 119.288 74.7485 117.313C72.8477 115.338 63.3764 121.192 63.3764 121.192L64.5071 121.916C64.5071 121.916 70.2368 118.224 72.0502 119.656C73.8637 121.088 68.6965 126.689 61.4046 132.033C54.1127 137.382 47.0665 141.135 45.9741 139.67C44.8817 138.205 50.0434 133.317 50.0434 133.317L49.59 131.945Z" fill="#E8505B"/>
<path id="Vector_147" d="M49.59 131.945C49.6337 132.11 41.4296 140.016 43.5435 141.7C45.6573 143.384 54.5551 139.061 62.1365 132.911C69.7179 126.761 76.6493 119.288 74.7485 117.313C72.8477 115.338 63.3764 121.192 63.3764 121.192L64.5071 121.916C64.5071 121.916 70.2368 118.224 72.0502 119.656C73.8637 121.088 68.6965 126.689 61.4046 132.033C54.1127 137.382 47.0665 141.135 45.9741 139.67C44.8817 138.205 50.0434 133.317 50.0434 133.317L49.59 131.945Z" fill="#001C54"/>
<g id="Group_51" opacity="0.3">
<path id="Vector_148" d="M53.583 122.871C53.6595 122.964 53.015 123.513 52.283 124.621C51.5511 125.708 50.7864 127.436 50.7427 129.433C50.7045 131.435 51.4036 133.185 52.0919 134.305C52.7801 135.44 53.4028 136.016 53.3208 136.104C53.2717 136.17 52.507 135.726 51.6604 134.595C51.2398 134.036 50.8192 133.301 50.5024 132.417C50.1856 131.539 49.989 130.508 50.0053 129.416C50.0327 128.33 50.2675 127.304 50.6171 126.437C50.9667 125.57 51.4146 124.846 51.8625 124.303C52.7528 123.211 53.5393 122.794 53.583 122.866V122.871Z" fill="white"/>
</g>
</g>
<g id="Group_52">
<path id="Vector_149" d="M169.353 45.6094C172.49 42.5905 172.596 37.5895 169.59 34.4393C166.585 31.289 161.606 31.1825 158.469 34.2014C155.333 37.2202 155.227 42.2212 158.233 45.3715C161.238 48.5217 166.217 48.6282 169.353 45.6094Z" fill="#004FF1"/>
<g id="Group_53" opacity="0.4">
<path id="Vector_150" d="M166.473 36.8793C166.49 36.1661 167.08 35.6065 167.784 35.6229C168.489 35.6394 169.052 36.2319 169.035 36.9396C169.019 37.6528 168.429 38.2124 167.724 38.196C167.014 38.1795 166.457 37.587 166.473 36.8793Z" fill="black"/>
</g>
<g id="Group_54" opacity="0.4">
<path id="Vector_151" d="M169.041 39.8911C169.052 39.4796 169.39 39.1504 169.805 39.1614C170.215 39.1724 170.543 39.5125 170.532 39.9295C170.521 40.3409 170.182 40.6701 169.767 40.6592C169.358 40.6482 169.03 40.308 169.041 39.8911Z" fill="black"/>
</g>
<g id="Group_55" opacity="0.4">
<path id="Vector_152" d="M168.041 42.1901C168.194 42.1901 168.314 42.3218 168.309 42.4754C168.309 42.629 168.178 42.7497 168.025 42.7442C167.872 42.7442 167.752 42.6126 167.757 42.4589C167.757 42.3053 167.888 42.1846 168.041 42.1901Z" fill="black"/>
</g>
</g>
<g id="Group_56">
<path id="Vector_153" d="M120.16 76.8413L119.805 76.5999C120.963 74.8608 121.52 72.9735 121.526 72.957L121.935 73.0777C121.914 73.1545 121.356 75.0473 120.16 76.8413Z" fill="#263238"/>
<g id="Group_57" opacity="0.2">
<path id="Vector_154" d="M120.16 76.8413L119.805 76.5999C120.963 74.8608 121.52 72.9735 121.526 72.957L121.935 73.0777C121.914 73.1545 121.356 75.0473 120.16 76.8413Z" fill="white"/>
</g>
<path id="Vector_155" d="M122.06 77.1301L118.586 75.3749C118.427 75.2946 118.233 75.359 118.153 75.5187L115.08 81.6551C115 81.8148 115.064 82.0094 115.223 82.0897L118.698 83.8448C118.857 83.9252 119.051 83.8608 119.131 83.7011L122.203 77.5647C122.283 77.405 122.219 77.2104 122.06 77.1301Z" fill="#007CFF"/>
<path id="Vector_156" opacity="0.7" d="M122.06 77.1301L118.586 75.3749C118.427 75.2946 118.233 75.359 118.153 75.5187L115.08 81.6551C115 81.8148 115.064 82.0094 115.223 82.0897L118.698 83.8448C118.857 83.9252 119.051 83.8608 119.131 83.7011L122.203 77.5647C122.283 77.405 122.219 77.2104 122.06 77.1301Z" fill="white"/>
<path id="Vector_157" d="M119.188 75.4792L118.876 76.1016C118.808 76.237 118.863 76.4019 118.997 76.4699L120.94 77.451C121.074 77.5191 121.238 77.4646 121.306 77.3292L121.618 76.7068C121.686 76.5714 121.631 76.4065 121.497 76.3385L119.555 75.3573C119.42 75.2893 119.256 75.3438 119.188 75.4792Z" fill="#263238"/>
<path id="Vector_158" opacity="0.4" d="M119.188 75.4792L118.876 76.1016C118.808 76.237 118.863 76.4019 118.997 76.4699L120.94 77.451C121.074 77.5191 121.238 77.4646 121.306 77.3292L121.618 76.7068C121.686 76.5714 121.631 76.4065 121.497 76.3385L119.555 75.3573C119.42 75.2893 119.256 75.3438 119.188 75.4792Z" fill="white"/>
<path id="Vector_159" d="M121.99 73.7359C122.675 73.7359 123.23 73.1783 123.23 72.4905C123.23 71.8027 122.675 71.2451 121.99 71.2451C121.305 71.2451 120.75 71.8027 120.75 72.4905C120.75 73.1783 121.305 73.7359 121.99 73.7359Z" fill="#263238"/>
<path id="Vector_160" opacity="0.4" d="M121.99 73.7359C122.675 73.7359 123.23 73.1783 123.23 72.4905C123.23 71.8027 122.675 71.2451 121.99 71.2451C121.305 71.2451 120.75 71.8027 120.75 72.4905C120.75 73.1783 121.305 73.7359 121.99 73.7359Z" fill="white"/>
<path id="Vector_161" opacity="0.2" d="M121.903 73.2913C122.367 73.2913 122.744 72.9131 122.744 72.4464C122.744 71.9798 122.367 71.6016 121.903 71.6016C121.438 71.6016 121.062 71.9798 121.062 72.4464C121.062 72.9131 121.438 73.2913 121.903 73.2913Z" fill="white"/>
</g>
</g>
</g>
</svg>
