<svg width="248" height="200" viewBox="0 0 248 200" fill="none" xmlns="http://www.w3.org/2000/svg">
<g id="Floor" clip-path="url(#clip0_200_3179)">
<g id="Group">
<g id="Group_2">
<path id="Vector" d="M174.937 170.911H233.971L233.971 11.0616H174.937L174.937 170.911Z" fill="#EBEBEB"/>
<path id="Vector_2" d="M215.172 88.2817H228.758V28.6398H215.172V88.2817Z" fill="#FAFAFA"/>
<path id="Vector_3" d="M224.164 100.329C224.164 101.833 225.374 103.05 226.872 103.05C228.369 103.05 229.58 101.833 229.58 100.329C229.58 98.8247 228.369 97.6084 226.872 97.6084C225.374 97.6084 224.164 98.8247 224.164 100.329Z" fill="#E0E0E0"/>
</g>
<path id="Vector_4" d="M193.13 5.46631L215.79 5.46631V0.0955291L193.13 0.0955291V5.46631Z" fill="#F5F5F5"/>
<g id="Group_3">
<path id="Vector_5" d="M64.3105 79.1594V12.1367L11.7951 12.1367L11.7951 79.1594H64.3105Z" fill="#E6E6E6"/>
<path id="Vector_6" d="M12.9865 77.9624H63.1123L63.1123 13.3402H12.9865L12.9865 77.9624Z" fill="#F0F0F0"/>
<path id="Vector_7" d="M25.8974 43.6317C27.841 45.789 28.3253 41.5064 28.3253 41.5064L33.8821 32.0259L35.0928 41.7561L30.9189 71.9131C30.9189 71.9131 27.089 73.0526 26.8469 73.7055C26.6047 74.3456 33.4041 74.5249 34.1306 73.7055C34.8571 72.8861 33.4041 71.9131 33.4041 71.9131L38.6614 46.9796L38.7443 47.3765L43.9187 71.9131C43.9187 71.9131 42.4658 72.8861 43.1922 73.7055C43.9187 74.5249 50.7181 74.3456 50.4696 73.7055C50.2274 73.059 46.404 71.9131 46.404 71.9131L42.23 41.7561L43.4344 32.0259L48.9912 41.5064C48.9912 41.5064 49.4755 45.789 51.4191 43.6317C53.3627 41.4808 49.9598 39.5284 49.9598 39.5284L43.9187 29.0045L40.5859 27.8458L39.8531 26.9176C39.8531 26.9176 44.129 19.2103 38.7443 19.0631V19.0503C38.7443 19.0503 38.6933 19.0503 38.6614 19.0503C38.6296 19.0503 38.6104 19.0503 38.5849 19.0503V19.0631C33.2002 19.2103 37.4698 26.9176 37.4698 26.9176L36.7369 27.8458L33.4041 29.0045L27.363 39.5284C27.363 39.5284 23.9665 41.4808 25.9037 43.6317H25.8974Z" fill="#FAFAFA"/>
<path id="Vector_8" d="M38.7378 19.0566V47.3829L43.9122 71.9194C43.9122 71.9194 42.4593 72.8925 43.1858 73.7118C43.9122 74.5312 50.7116 74.352 50.4631 73.7118C50.221 73.0653 46.3975 71.9194 46.3975 71.9194L42.2235 41.7624L43.4279 32.0323L48.9847 41.5128C48.9847 41.5128 49.469 45.7953 51.4126 43.638C53.3562 41.4872 49.9533 39.5347 49.9533 39.5347L43.9122 29.0108L40.5794 27.8522L39.8466 26.924C39.8466 26.924 44.1225 19.2167 38.7378 19.0694V19.0566Z" fill="#E6E6E6"/>
<path id="Vector_9" d="M20.7161 23.5762H27.6558V20.862H20.7161V23.5762Z" fill="#E6E6E6"/>
<path id="Vector_10" d="M18.3587 35.79H25.2983V33.0758H18.3587V35.79Z" fill="#E6E6E6"/>
<path id="Vector_11" d="M51.3167 48.6182H58.2563V45.904H51.3167V48.6182Z" fill="#E6E6E6"/>
<path id="Vector_12" d="M48.5448 23.4736H55.4844V20.7594H48.5448V23.4736Z" fill="#E6E6E6"/>
<path id="Vector_13" d="M20.7161 53.125H27.6558V50.4108H20.7161V53.125Z" fill="#E6E6E6"/>
<path id="Vector_14" d="M49.4115 63.5142H56.3511V60.8H49.4115V63.5142Z" fill="#E6E6E6"/>
<path id="Vector_15" d="M17.2498 66.2349H24.1895V63.5207H17.2498V66.2349Z" fill="#E6E6E6"/>
</g>
<g id="Group_4">
<path id="Vector_16" d="M69.5806 11.8171V79.48H120.299V11.8171H69.5806Z" fill="#E6E6E6"/>
<path id="Vector_17" d="M119.108 13.0205H70.7788V78.2764H119.108V13.0205Z" fill="#F5F5F5"/>
<path id="Vector_18" d="M119.108 13.0205H70.7788V29.2417H119.108V13.0205Z" fill="#FAFAFA"/>
<path id="Vector_19" d="M119.108 44.2466H70.7788V62.0809H119.108V44.2466Z" fill="#FAFAFA"/>
<path id="Vector_20" d="M81.3228 25.1901C83.95 24.5672 85.5771 21.9228 84.957 19.2836C84.3369 16.6445 81.7045 15.01 79.0773 15.6329C76.4501 16.2558 74.823 18.9002 75.4431 21.5393C76.0631 24.1785 78.6956 25.813 81.3228 25.1901Z" fill="#F5F5F5"/>
<path id="Vector_21" d="M112.257 41.5055C114.936 41.174 116.841 38.7236 116.511 36.0323C116.181 33.341 113.742 31.4279 111.062 31.7593C108.383 32.0907 106.479 34.5411 106.809 37.2324C107.139 39.9238 109.578 41.8369 112.257 41.5055Z" fill="#FAFAFA"/>
<path id="Vector_22" d="M84.3779 55.0914C84.998 52.4522 83.3709 49.8078 80.7437 49.1849C78.1165 48.562 75.484 50.1965 74.864 52.8357C74.2439 55.4748 75.871 58.1192 78.4982 58.7421C81.1254 59.365 83.7578 57.7305 84.3779 55.0914Z" fill="#F5F5F5"/>
<path id="Vector_23" d="M114.537 73.6642C116.446 71.7468 116.446 68.638 114.537 66.7206C112.628 64.8031 109.533 64.8031 107.625 66.7206C105.716 68.638 105.716 71.7468 107.625 73.6642C109.533 75.5816 112.628 75.5816 114.537 73.6642Z" fill="#FAFAFA"/>
</g>
</g>
<path id="&#38;lt;Path&#38;gt;" d="M0.0439453 192.413C0.0439453 188.412 55.3633 185.167 123.6 185.167C191.836 185.167 247.155 188.412 247.155 192.413C247.155 196.414 191.836 199.659 123.6 199.659C55.3633 199.659 0.0439453 196.414 0.0439453 192.413Z" fill="#F5F5F5"/>
<g id="Group_5">
<path id="Vector_24" d="M21.3154 174.188C21.3154 174.188 17.6894 166.238 21.8315 158.402C25.9736 150.567 27.178 148.723 24.5335 147.117C21.8953 145.51 20.6781 153.384 20.6781 153.384C20.6781 153.384 18.4541 147.968 20.2894 142.296C22.131 136.625 23.2781 127.394 20.7673 126.402C18.2566 125.409 20.2894 137.918 18.11 142.181C18.11 142.181 16.2811 137.438 15.9816 132.88C15.6821 128.328 16.1537 121.056 14.1655 119.194C12.1836 117.331 10.9155 118.618 12.8591 128.668C14.8027 138.718 14.79 146.886 14.79 146.886C14.79 146.886 10.4886 133.706 7.59546 133.322C4.70873 132.937 4.70873 137.207 7.18125 140.907C9.65376 144.607 14.4204 151.239 15.2042 154.657C15.2042 154.657 10.4822 144.742 6.23175 147.776C1.98132 150.817 9.92778 156.808 13.4709 158.972C17.014 161.136 19.4737 174.707 19.4737 174.707L21.2962 174.182L21.3154 174.188Z" fill="#007CFF"/>
<path id="Vector_25" opacity="0.7" d="M21.3154 174.188C21.3154 174.188 17.6894 166.238 21.8315 158.402C25.9736 150.567 27.178 148.723 24.5335 147.117C21.8953 145.51 20.6781 153.384 20.6781 153.384C20.6781 153.384 18.4541 147.968 20.2894 142.296C22.131 136.625 23.2781 127.394 20.7673 126.402C18.2566 125.409 20.2894 137.918 18.11 142.181C18.11 142.181 16.2811 137.438 15.9816 132.88C15.6821 128.328 16.1537 121.056 14.1655 119.194C12.1836 117.331 10.9155 118.618 12.8591 128.668C14.8027 138.718 14.79 146.886 14.79 146.886C14.79 146.886 10.4886 133.706 7.59546 133.322C4.70873 132.937 4.70873 137.207 7.18125 140.907C9.65376 144.607 14.4204 151.239 15.2042 154.657C15.2042 154.657 10.4822 144.742 6.23175 147.776C1.98132 150.817 9.92778 156.808 13.4709 158.972C17.014 161.136 19.4737 174.707 19.4737 174.707L21.2962 174.182L21.3154 174.188Z" fill="white"/>
<path id="Vector_26" d="M18.4541 177.453C18.4541 177.453 21.9844 169.451 17.7467 161.68C13.509 153.908 12.2855 152.078 14.911 150.432C17.5301 148.787 18.8364 156.642 18.8364 156.642C18.8364 156.642 20.9967 151.194 19.0913 145.555C17.1859 139.915 15.9242 130.697 18.4222 129.673C20.9202 128.642 19.0403 141.182 21.2707 145.414C21.2707 145.414 23.0422 140.638 23.2908 136.08C23.5393 131.523 22.9785 124.263 24.9412 122.369C26.9039 120.474 28.1848 121.748 26.3559 131.824C24.527 141.899 24.6417 150.068 24.6417 150.068C24.6417 150.068 28.7902 136.823 31.6705 136.394C34.5509 135.965 34.6019 140.235 32.174 143.973C29.7461 147.712 25.0559 154.414 24.3167 157.839C24.3167 157.839 28.924 147.853 33.2063 150.829C37.4886 153.806 29.6186 159.913 26.101 162.134C22.5834 164.349 20.2893 177.958 20.2893 177.958L18.4604 177.459L18.4541 177.453Z" fill="#004FF1"/>
<path id="Vector_27" d="M34.742 171.749H5.56885L7.93303 192.714H32.3778L34.742 171.749Z" fill="#263238"/>
</g>
<g id="Group_6">
<g id="Group_7">
<path id="Vector_28" d="M58.7599 59.7441H44.3645C41.6307 59.7441 39.4131 61.9718 39.4131 64.718V78.7691C39.4131 81.5153 41.6307 83.743 44.3645 83.743H50.737L53.5345 91.5527L54.0634 83.743H58.7535C61.4873 83.743 63.7049 81.5153 63.7049 78.7691V64.718C63.7049 61.9718 61.4873 59.7441 58.7535 59.7441H58.7599Z" fill="#007CFF"/>
<path id="Vector_29" opacity="0.7" d="M58.7599 59.7441H44.3645C41.6307 59.7441 39.4131 61.9718 39.4131 64.718V78.7691C39.4131 81.5153 41.6307 83.743 44.3645 83.743H50.737L53.5345 91.5527L54.0634 83.743H58.7535C61.4873 83.743 63.7049 81.5153 63.7049 78.7691V64.718C63.7049 61.9718 61.4873 59.7441 58.7535 59.7441H58.7599Z" fill="white"/>
</g>
<path id="Vector_30" d="M46.5568 68.9302C47.8058 66.8305 50.2528 67.5987 51.5337 69.1991C52.7699 67.5667 55.2042 66.7345 56.5042 68.7958C58.7027 72.2781 54.3057 75.5877 52.2283 76.8871C51.9925 77.0344 51.7949 77.1624 51.6356 77.2584C51.4699 77.1688 51.2724 77.0472 51.0366 76.9063C48.9273 75.6581 44.4475 72.4638 46.5568 68.9238V68.9302Z" fill="#004FF1"/>
</g>
<g id="Group_8">
<path id="Vector_31" d="M125.977 66.5552C124.294 69.2886 122.574 72.0284 120.853 74.7426L118.292 78.8075C117.45 80.1517 116.616 81.5281 115.876 82.8083C115.679 83.1476 115.551 83.4101 115.405 83.6789C115.399 83.6853 115.335 83.8262 115.405 83.6405C115.449 83.4933 115.456 83.4549 115.469 83.4037C115.481 83.314 115.469 83.314 115.469 83.3268C115.456 83.3717 115.443 83.4933 115.437 83.6277C115.424 84.2102 115.45 84.9848 115.507 85.7402C115.628 87.2637 115.794 88.8577 115.972 90.4452C116.335 93.6267 116.718 96.853 117.036 100.073L113.78 100.822C112.671 97.7108 111.715 94.5869 110.893 91.3862C110.492 89.7795 110.103 88.1727 109.804 86.4827C109.657 85.6249 109.504 84.7864 109.447 83.7429C109.434 83.4741 109.428 83.1924 109.447 82.8275C109.459 82.6419 109.472 82.437 109.529 82.149C109.561 81.9953 109.587 81.8545 109.67 81.6177C109.772 81.336 109.759 81.3808 109.791 81.2976C109.982 80.8303 110.186 80.3502 110.371 79.9789C111.123 78.3786 111.906 76.9446 112.703 75.4915C113.493 74.0448 114.315 72.6301 115.137 71.2154C116.794 68.3924 118.502 65.6334 120.293 62.8936L125.97 66.5424L125.977 66.5552Z" fill="#FFB570"/>
<path id="Vector_32" opacity="0.1" d="M125.977 66.5552C124.294 69.2886 122.574 72.0284 120.853 74.7426L118.292 78.8075C117.45 80.1517 116.616 81.5281 115.876 82.8083C115.679 83.1476 115.551 83.4101 115.405 83.6789C115.399 83.6853 115.335 83.8262 115.405 83.6405C115.449 83.4933 115.456 83.4549 115.469 83.4037C115.481 83.314 115.469 83.314 115.469 83.3268C115.456 83.3717 115.443 83.4933 115.437 83.6277C115.424 84.2102 115.45 84.9848 115.507 85.7402C115.628 87.2637 115.794 88.8577 115.972 90.4452C116.335 93.6267 116.718 96.853 117.036 100.073L113.78 100.822C112.671 97.7108 111.715 94.5869 110.893 91.3862C110.492 89.7795 110.103 88.1727 109.804 86.4827C109.657 85.6249 109.504 84.7864 109.447 83.7429C109.434 83.4741 109.428 83.1924 109.447 82.8275C109.459 82.6419 109.472 82.437 109.529 82.149C109.561 81.9953 109.587 81.8545 109.67 81.6177C109.772 81.336 109.759 81.3808 109.791 81.2976C109.982 80.8303 110.186 80.3502 110.371 79.9789C111.123 78.3786 111.906 76.9446 112.703 75.4915C113.493 74.0448 114.315 72.6301 115.137 71.2154C116.794 68.3924 118.502 65.6334 120.293 62.8936L125.97 66.5424L125.977 66.5552Z" fill="black"/>
<path id="Vector_33" d="M113.187 99.209C113.187 99.209 112.684 101.539 113.187 102.288C113.691 103.037 116.558 102.723 116.558 102.723L118.801 103.741L121.866 102.858L119.107 99.2154H113.187V99.209Z" fill="#FFB570"/>
<path id="Vector_34" opacity="0.1" d="M113.187 99.209C113.187 99.209 112.684 101.539 113.187 102.288C113.691 103.037 116.558 102.723 116.558 102.723L118.801 103.741L121.866 102.858L119.107 99.2154H113.187V99.209Z" fill="black"/>
<path id="Vector_35" d="M127.054 175.699L129.118 188.227L132.846 188.579L132.865 175.219L127.054 175.699Z" fill="#FFB570"/>
<g id="Group_9">
<path id="Vector_36" d="M125.594 188.028C126.066 188.425 127.117 188.246 127.71 188.105C127.761 188.092 127.799 188.054 127.805 188.002C127.812 187.951 127.793 187.9 127.748 187.868C127.474 187.695 126.072 186.837 125.562 187.1C125.479 187.145 125.377 187.234 125.365 187.426C125.365 187.465 125.365 187.497 125.365 187.535C125.377 187.74 125.454 187.9 125.601 188.022L125.594 188.028ZM125.76 187.83C125.652 187.74 125.607 187.612 125.62 187.446C125.62 187.369 125.652 187.349 125.677 187.33C125.919 187.209 126.709 187.561 127.327 187.919C126.576 188.06 126.002 188.028 125.76 187.83Z" fill="#007CFF"/>
<path id="Vector_37" d="M127.614 188.092C127.659 188.118 127.71 188.111 127.748 188.092C127.786 188.066 127.812 188.022 127.805 187.97C127.805 187.913 127.69 186.569 127.149 186.12C127.002 186.005 126.843 185.954 126.671 185.973C126.397 186.005 126.327 186.178 126.308 186.274C126.301 186.306 126.301 186.344 126.301 186.383C126.327 186.927 127.168 187.842 127.62 188.092H127.614ZM126.556 186.325C126.556 186.325 126.569 186.248 126.696 186.229C126.798 186.216 126.894 186.248 126.983 186.319C127.289 186.569 127.448 187.26 127.512 187.708C127.053 187.337 126.499 186.601 126.556 186.325Z" fill="#007CFF"/>
<path id="Vector_38" d="M128.022 187.445H133.209C133.4 187.452 133.56 187.586 133.604 187.772L134.509 191.894C134.605 192.323 134.267 192.726 133.834 192.72C132.024 192.688 131.144 192.579 128.863 192.573C127.461 192.573 122.535 192.707 120.598 192.707C118.705 192.707 118.412 190.78 119.203 190.608C122.758 189.833 126.136 188.758 127.276 187.733C127.48 187.548 127.748 187.452 128.028 187.452L128.022 187.445Z" fill="#263238"/>
</g>
<path id="Vector_39" d="M150.874 94.1387C150.874 94.1387 147.439 101.878 143.635 111.371C141.283 117.254 138.792 123.796 136.893 129.596C134.847 135.825 133.49 141.195 133.713 143.935C134.522 153.793 133.483 181.966 133.483 181.966H127.328C127.328 181.966 121.866 144.838 122.102 139.672C122.739 125.538 131.852 96.4624 131.852 96.4624L150.874 94.1387Z" fill="#263238"/>
<path id="Vector_40" opacity="0.2" d="M143.635 111.371C141.283 117.254 138.792 123.797 136.893 129.596C135.65 119.027 141.379 106.686 141.379 106.686C142.297 108.094 143.042 109.681 143.635 111.371Z" fill="black"/>
<path id="Vector_41" d="M156.227 176.979L159.445 189.257H163.192L161.968 175.955L156.227 176.979Z" fill="#FFB570"/>
<path id="Vector_42" d="M138.562 96.0017C138.562 96.0017 140.933 126.3 145.075 139.826C149.383 153.89 156.909 182.997 156.909 182.997L163.192 182.037C163.192 182.037 162.204 153.198 157.438 139.57C154.315 130.653 158.61 103.101 155.551 91.4375L138.562 96.0081V96.0017Z" fill="#263238"/>
<g id="Group_10">
<path id="Vector_43" d="M156.201 188.028C156.673 188.425 157.724 188.246 158.317 188.105C158.368 188.092 158.406 188.054 158.412 188.002C158.419 187.951 158.4 187.9 158.355 187.868C158.081 187.695 156.679 186.837 156.169 187.1C156.086 187.145 155.984 187.234 155.972 187.426C155.972 187.465 155.972 187.497 155.972 187.535C155.984 187.74 156.061 187.9 156.207 188.022L156.201 188.028ZM156.367 187.83C156.258 187.74 156.214 187.612 156.227 187.446C156.227 187.369 156.258 187.349 156.284 187.33C156.526 187.209 157.316 187.561 157.934 187.919C157.182 188.06 156.609 188.028 156.367 187.83Z" fill="#007CFF"/>
<path id="Vector_44" d="M158.221 188.092C158.266 188.118 158.317 188.111 158.355 188.092C158.393 188.066 158.418 188.022 158.412 187.97C158.412 187.913 158.297 186.569 157.756 186.12C157.609 186.005 157.45 185.954 157.278 185.973C157.004 186.005 156.934 186.178 156.915 186.274C156.908 186.306 156.908 186.344 156.908 186.383C156.934 186.927 157.775 187.842 158.227 188.092H158.221ZM157.163 186.325C157.163 186.325 157.176 186.248 157.303 186.229C157.405 186.216 157.501 186.248 157.59 186.319C157.896 186.569 158.055 187.26 158.119 187.708C157.66 187.337 157.106 186.601 157.163 186.325Z" fill="#007CFF"/>
<path id="Vector_45" d="M158.629 187.445H163.816C164.007 187.452 164.167 187.586 164.211 187.772L165.116 191.894C165.212 192.323 164.874 192.726 164.441 192.72C162.631 192.688 161.751 192.579 159.47 192.573C158.068 192.573 153.142 192.707 151.205 192.707C149.312 192.707 149.019 190.78 149.809 190.608C153.365 189.833 156.743 188.758 157.883 187.733C158.087 187.548 158.355 187.452 158.635 187.452L158.629 187.445Z" fill="#263238"/>
</g>
<path id="Vector_46" d="M129.698 62.8745C130.476 67.2402 120.822 77.9946 120.822 77.9946L113.978 72.6558C113.978 72.6558 116.01 66.7729 119.388 62.1447C122.944 57.2732 128.838 58.0158 129.698 62.8681V62.8745Z" fill="#004FF1"/>
<path id="Vector_47" opacity="0.2" d="M129.749 63.4123C128.099 62.2664 125.983 62.6505 123.421 65.6976C120.891 68.719 118.311 74.1346 117.909 75.7222L120.821 77.9947C120.821 77.9947 129.819 68.0469 129.749 63.4123Z" fill="black"/>
<path id="Vector_48" d="M156.297 92.3847L130.922 97.9027C130.597 97.2498 130.278 96.6096 129.972 95.9759C128.583 93.0953 127.411 90.3619 126.423 87.7949C119.623 70.223 121.318 60.0512 121.318 60.0512C121.318 60.0512 124.384 58.2076 127.812 56.8953C130.418 55.9031 134.847 54.77 137.925 54.0659C137.963 54.0595 138.002 54.0467 138.04 54.0403C141.506 53.2593 144.916 55.0773 146.356 58.1372C146.662 58.7773 146.872 59.4751 146.987 60.2176C147.503 63.668 148.223 67.0287 149.039 70.2038C151.83 81.1566 155.723 89.901 156.297 92.3847Z" fill="#004FF1"/>
<g id="Group_11">
<path id="Vector_49" d="M129.258 45.04C130.252 48.3496 132.566 54.1492 135.707 55.039C133.49 57.7788 131.788 60.9219 130.514 64.3979C128.678 63.0152 127.079 61.5877 126.435 59.9745C129.341 57.4076 127.945 54.9686 126.142 52.9522L129.258 45.04Z" fill="#FFB570"/>
<path id="Vector_50" opacity="0.2" d="M127.984 48.2661L126.136 52.9455C126.563 53.4256 126.971 53.925 127.296 54.4499C128.468 53.5857 129.475 51.2556 128.908 49.8473C128.621 49.1431 128.258 48.5158 127.984 48.2661Z" fill="black"/>
</g>
<g id="Group_12">
<path id="Vector_51" d="M114.914 39.5923C112.779 42.7098 118.196 48.6311 119.929 48.4518C123.166 48.119 117.565 35.7259 114.914 39.5923Z" fill="#263238"/>
<path id="Vector_52" d="M127.946 39.1638C130.17 43.1903 131.674 45.4308 130.986 48.6635C129.953 53.5285 124.071 54.8024 120.694 51.5313C117.654 48.5802 114.532 42.4989 117.329 38.5364C120.082 34.638 125.722 35.1373 127.94 39.1638H127.946Z" fill="#FFB570"/>
<path id="Vector_53" d="M124.154 34.5289L123.702 38.5873C123.702 38.5873 124.454 37.9792 125.511 38.8498C127.181 40.2197 128.481 45.6545 130.265 44.9375C133.452 43.6573 131.279 35.2266 129.074 33.2166C125.824 30.2591 124.154 34.5353 124.154 34.5353V34.5289Z" fill="#263238"/>
<path id="Vector_54" d="M132.4 42.3194C132.419 43.5613 131.865 44.6944 131.145 45.4113C130.062 46.4932 128.781 45.7058 128.456 44.2847C128.163 43.0108 128.379 40.9111 129.762 40.3606C131.126 39.8165 132.381 40.8983 132.4 42.313V42.3194Z" fill="#FFB570"/>
<path id="Vector_55" d="M122.784 43.9901C122.982 44.3038 122.982 44.6686 122.778 44.7967C122.574 44.9311 122.242 44.7775 122.045 44.4638C121.847 44.1501 121.847 43.7852 122.051 43.6572C122.255 43.5228 122.586 43.6764 122.784 43.9901Z" fill="#263238"/>
<path id="Vector_56" d="M119.241 46.2626C119.439 46.5762 119.439 46.9411 119.235 47.0691C119.031 47.2036 118.699 47.0499 118.502 46.7363C118.304 46.4226 118.304 46.0577 118.508 45.9297C118.712 45.7952 119.044 45.9489 119.241 46.2626Z" fill="#263238"/>
<path id="Vector_57" d="M120.465 45.6992C120.465 45.6992 120.905 47.9781 120.675 49.3544C121.561 49.5209 122.351 48.6759 122.351 48.6759L120.458 45.6992H120.465Z" fill="#FF8935"/>
<path id="Vector_58" d="M123.817 48.9703C123.766 48.9959 123.708 48.9767 123.677 48.9319C123.645 48.8807 123.657 48.8103 123.708 48.7783C125.085 47.8949 125.117 46.5186 125.117 46.5058C125.117 46.4482 125.168 46.397 125.225 46.397C125.282 46.397 125.333 46.4482 125.333 46.5058C125.333 46.5698 125.302 48.0165 123.823 48.9639C123.823 48.9639 123.817 48.9639 123.81 48.9703H123.817Z" fill="#263238"/>
<path id="Vector_59" d="M123.103 42.172C123.052 42.1976 122.988 42.204 122.931 42.1784C122.026 41.8391 121.382 42.3 121.357 42.3192C121.261 42.3896 121.121 42.3704 121.051 42.2744C120.981 42.1784 121 42.0376 121.096 41.9672C121.127 41.9415 121.949 41.3462 123.084 41.7687C123.198 41.8135 123.256 41.9351 123.211 42.0504C123.192 42.108 123.147 42.1464 123.103 42.172Z" fill="#263238"/>
<path id="Vector_60" d="M116.883 46.0516C116.883 46.0516 116.839 46.0708 116.813 46.0708C116.692 46.0836 116.584 46.0004 116.571 45.8788C116.431 44.6689 117.202 44.016 117.234 43.9904C117.33 43.9136 117.463 43.9264 117.54 44.016C117.616 44.112 117.604 44.2464 117.514 44.3233C117.489 44.3489 116.896 44.8674 117.005 45.8276C117.017 45.9236 116.966 46.0132 116.883 46.0516Z" fill="#263238"/>
<path id="Vector_61" d="M123.702 38.5874C123.702 38.5874 123.6 37.6656 122.122 37.9921C120.739 38.2994 117.304 42.8508 114.43 42.3643C111.55 41.8778 113.984 37.9921 113.984 37.9921C113.984 37.9921 114.411 38.6643 114.914 37.4864C115.418 36.3085 117.775 31.834 122.122 31.5779C126.468 31.3218 123.702 38.5874 123.702 38.5874Z" fill="#263238"/>
</g>
<path id="Vector_62" d="M120.464 96.3218L116.246 97.0772L112.556 99.2089L115.207 101.891L118.808 100.79C118.808 100.79 121.866 101.469 123.606 98.4343L120.471 96.3154L120.464 96.3218Z" fill="#FFB570"/>
<g id="Group_13">
<path id="Vector_63" d="M125.862 73.8911L125.543 73.8527C125.734 72.31 125.473 70.8761 125.473 70.8633L125.785 70.8057C125.798 70.8633 126.053 72.3036 125.862 73.8911Z" fill="#263238"/>
<g id="Group_14" opacity="0.2">
<path id="Vector_64" d="M125.862 73.8911L125.543 73.8527C125.734 72.31 125.473 70.8761 125.473 70.8633L125.785 70.8057C125.798 70.8633 126.053 72.3036 125.862 73.8911Z" fill="white"/>
</g>
<path id="Vector_65" d="M127.079 73.4492H124.466C124.259 73.4492 124.09 73.6183 124.09 73.8269V78.6408C124.09 78.8493 124.259 79.0184 124.466 79.0184H127.079C127.287 79.0184 127.455 78.8493 127.455 78.6408V73.8269C127.455 73.6183 127.287 73.4492 127.079 73.4492Z" fill="#007CFF"/>
<path id="Vector_66" opacity="0.7" d="M127.079 73.4492H124.466C124.259 73.4492 124.09 73.6183 124.09 73.8269V78.6408C124.09 78.8493 124.259 79.0184 124.466 79.0184H127.079C127.287 79.0184 127.455 78.8493 127.455 78.6408V73.8269C127.455 73.6183 127.287 73.4492 127.079 73.4492Z" fill="white"/>
<path id="Vector_67" d="M126.582 73.1104H124.97C124.857 73.1104 124.766 73.2021 124.766 73.3152V73.8273C124.766 73.9404 124.857 74.0322 124.97 74.0322H126.582C126.694 74.0322 126.786 73.9404 126.786 73.8273V73.3152C126.786 73.2021 126.694 73.1104 126.582 73.1104Z" fill="#263238"/>
<path id="Vector_68" opacity="0.4" d="M126.582 73.1104H124.97C124.857 73.1104 124.766 73.2021 124.766 73.3152V73.8273C124.766 73.9404 124.857 74.0322 124.97 74.0322H126.582C126.694 74.0322 126.786 73.9404 126.786 73.8273V73.3152C126.786 73.2021 126.694 73.1104 126.582 73.1104Z" fill="white"/>
<path id="Vector_69" d="M125.626 71.3177C126.133 71.3177 126.544 70.905 126.544 70.3959C126.544 69.8868 126.133 69.4741 125.626 69.4741C125.119 69.4741 124.708 69.8868 124.708 70.3959C124.708 70.905 125.119 71.3177 125.626 71.3177Z" fill="#263238"/>
<path id="Vector_70" opacity="0.4" d="M125.626 71.3177C126.133 71.3177 126.544 70.905 126.544 70.3959C126.544 69.8868 126.133 69.4741 125.626 69.4741C125.119 69.4741 124.708 69.8868 124.708 70.3959C124.708 70.905 125.119 71.3177 125.626 71.3177Z" fill="white"/>
<path id="Vector_71" opacity="0.2" d="M125.556 71.0232C125.901 71.0232 126.181 70.7424 126.181 70.3959C126.181 70.0494 125.901 69.7686 125.556 69.7686C125.211 69.7686 124.932 70.0494 124.932 70.3959C124.932 70.7424 125.211 71.0232 125.556 71.0232Z" fill="white"/>
</g>
<path id="Vector_72" opacity="0.2" d="M149.039 70.2039C147.344 75.9779 144.846 83.8068 143.061 86.201C141.041 88.9088 134.114 93.4154 129.972 95.9759C128.583 93.0953 127.411 90.3619 126.423 87.7949C129.737 85.9897 134.911 83.1091 135.077 82.5906C135.332 81.8352 136.236 67.9058 136.236 67.9058L146.356 58.1372C146.662 58.7773 146.872 59.4751 146.987 60.2177C147.503 63.668 148.223 67.0288 149.039 70.2039Z" fill="black"/>
<path id="Vector_73" d="M144.743 64.8843C144.629 68.4755 144.406 72.0347 144.055 75.6195C143.89 77.4183 143.673 79.2043 143.412 81.0415C143.271 81.9761 143.125 82.8659 142.87 83.9541L142.755 84.3894C142.698 84.575 142.66 84.7159 142.583 84.9335C142.475 85.2024 142.398 85.42 142.214 85.7529C142.048 86.0346 141.914 86.2138 141.787 86.3738C141.29 86.9884 140.907 87.3212 140.512 87.6861C138.97 89.0176 137.504 90.029 136 91.0725C134.49 92.0839 132.993 93.0633 131.463 93.9979C128.417 95.8863 125.327 97.6467 122.159 99.3175L120.343 96.5009C123.096 94.286 125.868 92.0839 128.621 89.9074C129.991 88.8064 131.368 87.7245 132.693 86.6171C134.019 85.5288 135.37 84.3894 136.427 83.314C136.676 83.0643 136.924 82.7762 136.969 82.6866C136.975 82.6738 136.969 82.6674 136.912 82.757C136.842 82.8979 136.822 82.8979 136.803 82.9619C136.797 82.9619 136.81 82.8915 136.816 82.8659L136.848 82.6546C136.95 82.0017 137.026 81.1311 137.096 80.3053C137.243 78.6153 137.319 76.8677 137.428 75.1202C137.6 71.625 137.785 68.085 138.001 64.5898L144.737 64.8907L144.743 64.8843Z" fill="#FFB570"/>
<path id="Vector_74" d="M145.725 56.6716C150.899 61.6263 145.476 73.4625 145.476 73.4625L136.619 72.4831C136.619 72.4831 135.765 67.2148 136.606 61.2678C137.485 55.0329 142.277 53.3813 145.719 56.6716H145.725Z" fill="#004FF1"/>
<path id="Vector_75" d="M109.924 94.6512L109.555 94.2415L106.693 91.0664L108.395 94.2799C108.318 94.3183 108.235 94.3567 108.159 94.4015L107.535 94.7344L107.942 95.1889C108.898 96.2451 109.809 97.3334 110.804 98.364C110.268 97.2694 109.682 96.2131 109.102 95.1505C109.179 95.1121 109.261 95.0801 109.332 95.0289L109.918 94.6576L109.924 94.6512Z" fill="#007CFF"/>
<path id="Vector_76" d="M106.375 97.3205L105.833 97.2373L101.615 96.6035L104.96 97.999C104.922 98.0822 104.89 98.1591 104.852 98.2423L104.578 98.8952L105.177 98.9848C106.585 99.1961 107.974 99.4521 109.396 99.6186C108.293 99.1129 107.172 98.6712 106.05 98.2167C106.088 98.1399 106.126 98.063 106.152 97.9798L106.369 97.3205H106.375Z" fill="#007CFF"/>
</g>
<g id="Group_15">
<g id="Group_16">
<path id="Vector_77" d="M86.5056 98.3638C91.9158 98.703 116.303 102.595 124.32 101.821V122.728C124.32 122.728 118.808 127.797 96.3574 122.03C73.9072 116.262 86.5056 98.3638 86.5056 98.3638Z" fill="#FF8B7B"/>
<path id="Vector_78" d="M230.223 118.708C225.457 116.141 225.756 116.397 223.029 115.04C220.684 113.881 220.314 113.311 218.447 112.357C216.886 111.557 216.045 113.01 215.49 114.905C215.274 115.628 215.07 116.505 214.757 117.542C214.579 118.144 214.834 118.772 215.395 119.079L212.833 121.684C212.833 121.684 218.664 122.094 219.142 122.126C224.775 122.491 228.063 121.422 229.522 121.979C232.294 123.035 232.135 119.732 230.236 118.708H230.223Z" fill="#FD897B"/>
<path id="Vector_79" d="M216.51 115.801L208.392 114.924L210.017 121.198L217.734 122.03L216.51 115.801Z" fill="#FD897B"/>
<path id="Vector_80" d="M171.463 109.464C145.03 103.677 134.758 98.9976 121.044 101.725L123.721 123.617C123.721 123.617 154.538 125.595 170.616 123.669C187.331 121.665 214.101 122.459 214.101 122.459L214.465 114.937C214.465 114.937 190.275 105.866 171.463 109.464Z" fill="#001C54"/>
<g id="Group_17">
<path id="Vector_81" d="M64.8135 104.528C68.6943 105.296 73.2506 106.007 76.252 104.093C78.4824 105.956 79.9481 109.201 78.903 112.895C77.7559 116.953 74.7991 115.257 73.3398 114.021C72.0207 111.678 69.6374 111.774 67.9997 111.691L64.8135 104.528Z" fill="#FF8B7B"/>
<path id="Vector_82" opacity="0.2" d="M66.2539 106.25C66.0117 106.193 65.7632 106.154 65.5146 106.109L67.9999 111.691C68.9813 111.743 70.2366 111.73 71.3582 112.216C70.6636 109.63 68.5862 106.769 66.2475 106.257L66.2539 106.25Z" fill="black"/>
</g>
<path id="Vector_83" d="M75.0732 103.075C69.4336 106.737 72.3012 118.163 79.2471 121.697C90.0867 127.215 100.926 124.155 100.926 124.155L92.744 98.8564C92.744 98.8564 88.8887 94.0938 75.0668 103.075H75.0732Z" fill="#263238"/>
<path id="Vector_84" opacity="0.7" d="M100.933 124.155C100.933 124.155 96.128 125.512 89.7173 124.789C86.4929 124.424 82.8733 123.54 79.2474 121.697C78.3489 121.236 77.5077 120.641 76.7557 119.949C71.696 115.321 70.1602 106.263 75.067 103.075C88.8889 94.0939 92.7442 98.8502 92.7442 98.8502L100.926 124.155H100.933Z" fill="white"/>
<path id="Vector_85" d="M123.663 101.872L126.161 123.156L124.269 123.22L121.866 102.006L123.663 101.872Z" fill="#263238"/>
<path id="Vector_86" d="M122.612 111.973H125.734L126.161 112.722H122.612V111.973Z" fill="#007CFF"/>
<path id="Vector_87" d="M104.24 123.713C104.24 123.713 100.544 125.736 99.4989 124.468C98.4538 123.201 96.8288 111.378 94.0823 106.442C91.3357 101.5 90.571 98.3187 91.1382 97.589C91.7053 96.8592 94.3244 97.5698 94.573 99.1573C94.8278 100.745 94.573 104.938 96.9499 108.862C99.3204 112.786 103.526 118.822 104.234 123.707L104.24 123.713Z" fill="#263238"/>
<path id="Vector_88" opacity="0.6" d="M104.24 123.713C104.24 123.713 100.544 125.736 99.4989 124.468C98.4538 123.201 96.8288 111.378 94.0823 106.442C91.3357 101.5 90.571 98.3187 91.1382 97.589C91.7053 96.8592 94.3244 97.5698 94.573 99.1573C94.8278 100.745 94.573 104.938 96.9499 108.862C99.3204 112.786 103.526 118.822 104.234 123.707L104.24 123.713Z" fill="white"/>
<path id="Vector_89" opacity="0.2" d="M89.7173 124.789C86.4928 124.424 82.8733 123.541 79.2473 121.697C78.3488 121.236 77.5077 120.641 76.7557 119.949C76.9724 118.253 76.692 115.91 75.29 112.722C75.29 112.722 85.1036 103.575 88.9462 108.869C95.5035 117.914 89.7173 124.789 89.7173 124.789Z" fill="black"/>
<path id="Vector_90" d="M77.5522 120.878C77.5522 120.878 79.2345 118.65 75.7743 115.424C72.314 112.197 67.9744 114.284 63.1122 114.687C58.25 115.091 54.726 110.034 51.0172 110.674C47.3085 111.314 42.2742 115.853 45.3776 120.878C48.481 125.903 74.9203 123.297 77.5458 120.878H77.5522Z" fill="#D6E3FF"/>
<g id="Group_18">
<path id="Vector_91" d="M50.622 107.351C50.622 107.351 46.8877 102.128 54.8788 96.1872C62.8699 90.2467 72.059 100.995 68.4713 106.493C64.8836 111.992 50.622 107.351 50.622 107.351Z" fill="#E0E0E0"/>
<path id="Vector_92" d="M63.5006 100.514C67.1967 104.221 69.5481 106.205 69.7902 109.956C70.1535 115.596 64.055 118.829 59.3203 116.294C55.0571 114.015 49.7297 108.337 51.5905 103.132C53.4258 98.0114 59.8046 96.8015 63.5006 100.508V100.514Z" fill="#FF8B7B"/>
<path id="Vector_93" opacity="0.2" d="M59.7666 106.487C59.7666 106.487 60.0024 105.188 60.9646 104.663C60.5122 105.783 59.7666 106.487 59.7666 106.487Z" fill="black"/>
<path id="Vector_94" opacity="0.2" d="M60.2188 106.743C60.2188 106.743 60.6776 105.629 61.678 105.412C61.0472 106.308 60.2188 106.743 60.2188 106.743Z" fill="black"/>
<path id="Vector_95" d="M63.6599 97.4034C62.7168 97.0961 61.8119 96.8913 59.5114 97.2369C59.5114 97.2369 59.0335 101.071 62.0604 102.441C63.9275 103.286 63.8574 106.442 63.8574 106.442C63.8574 106.442 65.4505 106.391 66.604 104.759C68.0059 100.15 64.5265 97.6914 63.6599 97.4098V97.4034Z" fill="#E0E0E0"/>
<path id="Vector_96" d="M58.5176 118.464C58.5176 118.464 62.1499 119.392 62.596 116.141C65.094 114.796 65.3297 111.877 64.3484 109.816C63.9087 111.512 61.2769 111.301 60.0024 113.228C59.7793 113.567 59.8622 113.99 59.8622 113.99C59.8622 113.99 59.4033 114.182 59.2122 114.463C58.2882 115.82 59.8877 116.717 58.5239 118.471L58.5176 118.464Z" fill="#E0E0E0"/>
<path id="Vector_97" d="M68.6496 102.704C69.1403 104.023 68.9683 105.45 68.4648 106.5C67.7065 108.075 66.0178 107.716 65.132 106.327C64.3355 105.072 63.7683 102.742 65.0556 101.622C66.3237 100.521 68.0889 101.193 68.6496 102.704Z" fill="#FF8B7B"/>
<path id="Vector_98" d="M57.1982 110.93C57.1982 110.93 58.2433 113.349 58.3198 114.937C59.3521 114.905 60.0404 113.778 60.0404 113.778L57.1982 110.93Z" fill="#FF5551"/>
<path id="Vector_99" d="M57.6063 105.258C57.6318 105.226 57.6445 105.181 57.6509 105.136C57.6636 105.002 57.5617 104.88 57.4215 104.867C56.0387 104.759 55.3186 105.661 55.2931 105.7C55.2102 105.809 55.2293 105.969 55.3377 106.052C55.446 106.135 55.6053 106.116 55.6882 106.007C55.6882 106.007 56.2808 105.277 57.3832 105.367C57.4788 105.373 57.5617 105.328 57.6126 105.258H57.6063Z" fill="#263238"/>
<path id="Vector_100" d="M53.139 111.775C53.1963 111.723 53.2345 111.64 53.2218 111.551C53.0625 110.462 53.7252 109.854 53.7571 109.829C53.859 109.739 53.8718 109.579 53.7762 109.477C53.687 109.374 53.5277 109.361 53.4257 109.457C53.3875 109.489 52.5272 110.264 52.7247 111.627C52.7439 111.762 52.8713 111.858 53.0115 111.839C53.0625 111.832 53.1071 111.807 53.1453 111.775H53.139Z" fill="#263238"/>
<path id="Vector_101" d="M58.2881 108.734C58.2881 108.734 59.244 108.798 59.4925 107.761L59.7665 108.126C59.7665 108.126 59.2057 109.233 58.2881 108.734Z" fill="#263238"/>
<path id="Vector_102" d="M55.7516 111.327C55.7516 111.327 55.7516 112.229 54.834 112.261L55.2354 112.543C55.2354 112.543 56.1212 112.165 55.7516 111.333V111.327Z" fill="#263238"/>
<path id="Vector_103" d="M56.0129 98.7413C54.4517 99.4903 54.713 101.961 53.8336 103.005C52.9605 104.048 51.5012 105.629 50.2968 102.851C49.0925 100.073 52.3297 97.1345 54.662 96.3472C56.9943 95.5598 56.0129 98.7349 56.0129 98.7349V98.7413Z" fill="#E0E0E0"/>
</g>
</g>
<g id="Group_19">
<path id="Vector_104" d="M140.293 134.814L42.2954 167.867L43.3826 171.12L141.38 138.067L140.293 134.814Z" fill="#263238"/>
<g id="Group_20" opacity="0.2">
<path id="Vector_105" d="M140.293 134.815L42.2954 167.868L43.3826 171.12L141.38 138.067L140.293 134.815Z" fill="white"/>
</g>
<path id="Vector_106" d="M139.052 134.802L137.964 138.054L235.962 171.107L237.049 167.855L139.052 134.802Z" fill="#263238"/>
<g id="Group_21" opacity="0.2">
<path id="Vector_107" d="M139.052 134.802L137.964 138.055L235.962 171.108L237.049 167.855L139.052 134.802Z" fill="white"/>
</g>
<g id="Group_22">
<g id="Group_23">
<path id="Vector_108" d="M237.813 134.288H233.219V192.714H237.813V134.288Z" fill="#263238"/>
<path id="Vector_109" opacity="0.3" d="M237.813 134.288H233.219V192.714H237.813V134.288Z" fill="white"/>
</g>
<g id="Group_24">
<path id="Vector_110" d="M46.1297 134.288H41.5352V192.714H46.1297V134.288Z" fill="#263238"/>
<path id="Vector_111" opacity="0.3" d="M46.1297 134.288H41.5352V192.714H46.1297V134.288Z" fill="white"/>
</g>
</g>
<g id="Group_25">
<path id="Vector_112" d="M241.395 134.327L37.8454 134.327V126.312C37.8454 123.515 40.1076 121.242 42.8924 121.242L236.348 121.242C239.132 121.242 241.395 123.515 241.395 126.312V134.327Z" fill="#007CFF"/>
<path id="Vector_113" opacity="0.7" d="M241.395 134.327L37.8454 134.327V126.312C37.8454 123.515 40.1076 121.242 42.8924 121.242L236.348 121.242C239.132 121.242 241.395 123.515 241.395 126.312V134.327Z" fill="white"/>
<path id="Vector_114" d="M242.541 140.376L36.6982 140.376C36.0036 140.376 35.4365 139.806 35.4365 139.109V133.744C35.4365 133.046 36.0036 132.477 36.6982 132.477L242.541 132.477C243.236 132.477 243.803 133.046 243.803 133.744V139.109C243.803 139.806 243.236 140.376 242.541 140.376Z" fill="#263238"/>
<path id="Vector_115" opacity="0.4" d="M242.541 140.376L36.6982 140.376C36.0036 140.376 35.4365 139.806 35.4365 139.109V133.744C35.4365 133.046 36.0036 132.477 36.6982 132.477L242.541 132.477C243.236 132.477 243.803 133.046 243.803 133.744V139.109C243.803 139.806 243.236 140.376 242.541 140.376Z" fill="white"/>
</g>
</g>
<g id="Group_26">
<g id="Group_27">
<path id="Vector_116" d="M64.9283 119.809L59.1357 118.586L60.4867 124.866C60.4867 124.866 65.3871 125.858 66.1072 122.856L64.9283 119.815V119.809Z" fill="#FF8B7B"/>
<path id="Vector_117" d="M55.8283 120.916L56.0003 123.573C56.0641 124.52 56.8925 125.231 57.8356 125.135L60.4802 124.866L59.1292 118.586L57.0263 119.194C56.2743 119.412 55.7709 120.129 55.8219 120.916H55.8283Z" fill="#FF8B7B"/>
</g>
<path id="Vector_118" d="M83.7586 109.125C84.2939 109.791 84.7144 110.367 85.1541 111.013C85.5811 111.647 86.0017 112.287 86.3904 112.959C87.1806 114.297 87.9134 115.699 88.5252 117.338C88.8247 118.17 89.1051 119.047 89.2771 120.148C89.3663 120.699 89.4109 121.313 89.36 122.056C89.3026 122.785 89.1369 123.707 88.6016 124.661C88.3595 125.103 87.907 125.685 87.4928 126.031C87.085 126.383 86.6772 126.639 86.3203 126.812C85.6002 127.17 85.0076 127.324 84.4723 127.439C83.4081 127.65 82.5351 127.67 81.6875 127.663C80.0179 127.644 78.514 127.458 77.0293 127.209C75.5508 126.972 74.117 126.658 72.7024 126.313C69.8666 125.608 67.1328 124.789 64.399 123.752C63.3667 123.361 62.8505 122.209 63.2392 121.172C63.5642 120.308 64.4245 119.802 65.2976 119.886H65.3422C68.0887 120.161 70.8862 120.462 73.6136 120.667C74.9773 120.769 76.3347 120.852 77.6665 120.897C78.9856 120.929 80.2983 120.929 81.4517 120.814C82.0125 120.756 82.5542 120.66 82.8601 120.545C83.0066 120.5 83.0958 120.436 83.0002 120.462C82.962 120.474 82.8473 120.526 82.7008 120.654C82.5478 120.763 82.312 121.063 82.2419 121.191C82.038 121.518 82.0125 121.729 81.987 121.755C81.9679 121.793 81.9361 121.697 81.8914 121.556C81.8022 121.268 81.6111 120.801 81.3753 120.321C80.4194 118.356 78.8199 116.051 77.4307 114.022L77.3606 113.919C76.1116 112.095 76.5704 109.598 78.3866 108.337C80.1135 107.14 82.4586 107.512 83.7586 109.125Z" fill="#FF8B7B"/>
<path id="Vector_119" d="M73.1233 107.473C70.8802 113.145 78.2977 118.586 78.2977 118.586L91.1382 115.36C91.1382 115.36 91.1382 110.93 86.5054 105.412C85.3839 104.074 76.2776 99.4969 73.1233 107.473Z" fill="#263238"/>
<g id="Group_28" opacity="0.7">
<path id="Vector_120" d="M73.1233 107.473C70.8802 113.145 78.2977 118.586 78.2977 118.586L91.1382 115.36C91.1382 115.36 91.1382 110.93 86.5054 105.412C85.3839 104.074 76.2776 99.4969 73.1233 107.473Z" fill="white"/>
</g>
</g>
</g>
</g>
<defs>
<clipPath id="clip0_200_3179">
<rect width="247.111" height="199.564" fill="white" transform="translate(0.0439453 0.0957031)"/>
</clipPath>
</defs>
</svg>
