<svg width="58" height="60" viewBox="0 0 58 60" fill="none" xmlns="http://www.w3.org/2000/svg">
<path d="M35.4783 18.2609C35.4783 22.0082 32.443 25.0435 28.6957 25.0435C24.9484 25.0435 21.9131 22.0082 21.9131 18.2609C21.9131 14.5136 24.9484 11.4783 28.6957 11.4783C32.443 11.4783 35.4783 14.5136 35.4783 18.2609Z" fill="#004FF1"/>
<path d="M57.3913 18.2791C57.3913 22.1677 56.6145 25.8706 55.1964 29.2391C55.0731 29.5363 54.9375 29.8335 54.8018 30.1308C51.8671 36.4962 46.651 41.5861 40.2019 44.3478C38.7345 40.9546 36.5766 37.9328 33.9131 35.456C41.398 33.3135 46.873 26.4403 46.873 18.2667C46.873 16.471 46.614 14.7372 46.1085 13.1025C45.8002 12.087 45.3686 11.1086 45.3686 11.1086C45.3069 10.9724 45.1713 10.6628 44.974 10.2541C44.0369 8.37172 43.482 8.01258 43.112 6.83608C43.038 6.5884 42.8654 5.98157 42.8654 5.2509C42.8654 2.34061 45.2083 0 48.0938 0C49.1049 0 50.0421 0.284837 50.8436 0.780205C52.5329 2.68737 54.8512 5.82058 56.2199 10.217C56.4295 10.8981 57.379 14.0313 57.379 18.2667L57.3913 18.2791Z" fill="#004FF1"/>
<path d="M37.0435 55.1678C37.0435 56.8358 36.8433 58.4547 36.4805 60H25.4963C26.2219 58.5405 26.6348 56.8971 26.6348 55.1678C26.6348 52.028 25.2962 49.1949 23.1569 47.1835C23.0193 47.0485 22.8816 46.9259 22.744 46.8155C22.6064 46.6929 22.4688 46.5825 22.3312 46.4844C22.0559 46.2636 21.7682 46.0674 21.4805 45.8834C20.0668 44.9758 18.4279 44.3871 16.6764 44.1909C16.3011 44.1418 15.9008 44.1173 15.513 44.1173C15.4629 44.1173 15.4129 44.1173 15.3628 44.1173C12.523 44.1173 9.94582 45.1353 7.95666 46.8278H7.81904C7.56883 46.9627 7.31862 47.0853 7.04339 47.1835C6.46791 47.392 5.8549 47.5023 5.20435 47.5023C4.55381 47.5023 3.9408 47.3797 3.36532 47.1712C3.07757 47.0608 2.80234 46.9382 2.55214 46.7787C1.30109 46.0551 0.387824 44.8286 0.100084 43.3937C0.0375313 43.0748 0 42.7314 0 42.388C0 42.0446 0.0375313 41.7012 0.100084 41.3823C0.312761 40.3643 0.825691 39.4445 1.56381 38.7454C1.87657 38.5001 2.17682 38.2548 2.50209 38.034C3.60301 37.2368 4.79151 36.5377 6.04255 35.9613C8.85741 34.649 12.01 33.9131 15.3378 33.9131C15.3879 33.9131 15.4379 33.9131 15.488 33.9131C17.2895 33.9131 19.0409 34.1461 20.7173 34.5631C22.0059 35.0169 23.2945 35.483 24.5831 35.9368C25.7215 36.4641 26.8099 37.0896 27.8358 37.801C30.9008 39.9228 33.3779 42.805 34.9793 46.1655C35.0919 46.3863 35.1919 46.607 35.292 46.8278C35.3421 46.9504 35.3921 47.0731 35.4421 47.1957C36.4555 49.6609 37.0185 52.3592 37.0185 55.18L37.0435 55.1678Z" fill="#004FF1"/>
</svg>
