<?xml version="1.0" encoding="UTF-8"?>
<svg id="Capa_2" data-name="Capa 2" xmlns="http://www.w3.org/2000/svg" viewBox="0 0 514.29 587.17">
  <defs>
    <style>
      .cls-1 {
        fill: #3F63A7;
      }
    </style>
  </defs>
  <g id="cabeza">
    <path class="cls-1" d="M294.24,99.75c0,20.23-16.4,36.64-36.64,36.64s-36.64-16.4-36.64-36.64,16.4-36.63,36.64-36.63,36.64,16.4,36.64,36.63Z"/>
  </g>
  <g id="texto">
    <g>
      <path class="cls-1" d="M32.54,557.38c1.48,1.77,2.23,4.04,2.23,6.81,0,3.57-1.32,6.32-3.95,8.24-2.63,1.93-6.52,2.89-11.67,2.89H.03v-41.66H17.96c4.63,0,8.22,.93,10.78,2.8s3.83,4.5,3.83,7.92c0,2.3-.56,4.26-1.69,5.86s-2.68,2.81-4.66,3.6c2.73,.6,4.84,1.78,6.32,3.54Zm-28.11-20.09v15.12h13.24c3.36,0,5.96-.64,7.78-1.93,1.82-1.29,2.73-3.16,2.73-5.62s-.91-4.33-2.73-5.62c-1.82-1.29-4.41-1.93-7.78-1.93H4.43Zm23.1,32.5c1.9-1.27,2.85-3.25,2.85-5.95,0-5.2-3.76-7.8-11.28-7.8H4.43v15.65h14.66c3.72,0,6.53-.64,8.43-1.91Z"/>
      <path class="cls-1" d="M62.64,570.83c1.64-.69,3.04-1.72,4.19-3.07l2.37,2.74c-1.39,1.67-3.11,2.94-5.17,3.81-2.06,.87-4.33,1.31-6.83,1.31-3.21,0-6.06-.68-8.55-2.05-2.49-1.37-4.43-3.26-5.82-5.69-1.39-2.42-2.08-5.16-2.08-8.21s.66-5.79,1.99-8.21c1.33-2.42,3.16-4.3,5.49-5.65,2.33-1.35,4.99-2.03,7.96-2.03,2.77,0,5.27,.64,7.51,1.9,2.23,1.27,4.02,3.04,5.34,5.3,1.33,2.26,2.03,4.84,2.11,7.74l-25.65,5c.79,2.54,2.23,4.53,4.3,5.98s4.56,2.17,7.45,2.17c1.94,0,3.73-.35,5.37-1.04Zm-12.29-21.9c-1.72,1.01-3.07,2.42-4.04,4.23-.97,1.81-1.45,3.88-1.45,6.22,0,.6,.02,1.03,.06,1.31l22.03-4.29c-.47-2.62-1.68-4.77-3.62-6.46-1.94-1.69-4.32-2.53-7.12-2.53-2.18,0-4.13,.5-5.85,1.52Z"/>
      <path class="cls-1" d="M127.92,544.02v17.32c0,4.64-1.11,8.18-3.32,10.63-2.22,2.44-5.48,3.66-9.8,3.66-2.73,0-5.02-.53-6.86-1.58-1.84-1.05-3.26-2.73-4.25-5.03-.99,2.26-2.39,3.93-4.21,5-1.82,1.07-4.12,1.61-6.89,1.61-4.31,0-7.58-1.22-9.8-3.66-2.22-2.44-3.32-5.98-3.32-10.63v-17.32h4.21v16.96c0,3.69,.71,6.42,2.14,8.18,1.42,1.77,3.68,2.65,6.77,2.65s5.31-.89,6.8-2.68c1.48-1.79,2.23-4.54,2.23-8.27v-16.84h4.22v16.84c0,3.73,.73,6.49,2.2,8.27,1.46,1.79,3.74,2.68,6.83,2.68s5.23-.88,6.68-2.65c1.44-1.76,2.17-4.49,2.17-8.18v-16.96h4.22Z"/>
      <path class="cls-1" d="M158.11,570.83c1.64-.69,3.04-1.72,4.19-3.07l2.37,2.74c-1.39,1.67-3.11,2.94-5.17,3.81-2.06,.87-4.33,1.31-6.83,1.31-3.21,0-6.06-.68-8.55-2.05-2.49-1.37-4.43-3.26-5.82-5.69-1.39-2.42-2.08-5.16-2.08-8.21s.66-5.79,1.99-8.21c1.33-2.42,3.16-4.3,5.49-5.65,2.33-1.35,4.99-2.03,7.96-2.03,2.77,0,5.27,.64,7.51,1.9,2.23,1.27,4.02,3.04,5.34,5.3,1.33,2.26,2.03,4.84,2.11,7.74l-25.65,5c.79,2.54,2.23,4.53,4.3,5.98s4.56,2.17,7.45,2.17c1.94,0,3.73-.35,5.37-1.04Zm-12.29-21.9c-1.72,1.01-3.07,2.42-4.04,4.23-.97,1.81-1.45,3.88-1.45,6.22,0,.6,.02,1.03,.06,1.31l22.03-4.29c-.47-2.62-1.68-4.77-3.62-6.46-1.94-1.69-4.32-2.53-7.12-2.53-2.18,0-4.13,.5-5.85,1.52Z"/>
      <path class="cls-1" d="M204.15,544.02v27.5c0,5.32-1.3,9.25-3.89,11.82-2.59,2.56-6.5,3.84-11.72,3.84-2.89,0-5.63-.43-8.22-1.28-2.59-.85-4.7-2.04-6.32-3.54l2.14-3.22c1.5,1.35,3.33,2.4,5.49,3.15s4.42,1.13,6.8,1.13c3.96,0,6.87-.92,8.73-2.77,1.86-1.84,2.79-4.71,2.79-8.6v-3.99c-1.31,1.98-3.02,3.49-5.14,4.52s-4.46,1.55-7.03,1.55c-2.93,0-5.59-.64-7.99-1.93-2.4-1.29-4.27-3.1-5.64-5.42s-2.05-4.95-2.05-7.89,.68-5.55,2.05-7.86c1.37-2.3,3.24-4.09,5.61-5.36,2.37-1.27,5.05-1.9,8.01-1.9,2.65,0,5.05,.54,7.18,1.61,2.14,1.07,3.86,2.62,5.17,4.64v-6.01h4.04Zm-9.85,24.91c1.82-.97,3.24-2.33,4.24-4.08,1.01-1.74,1.51-3.73,1.51-5.95s-.5-4.2-1.51-5.92c-1.01-1.72-2.41-3.07-4.21-4.05s-3.85-1.46-6.14-1.46-4.28,.48-6.09,1.43-3.2,2.3-4.21,4.05c-1.01,1.75-1.51,3.73-1.51,5.95s.5,4.21,1.51,5.95c1.01,1.75,2.41,3.11,4.21,4.08,1.8,.97,3.83,1.46,6.09,1.46s4.29-.49,6.12-1.46Z"/>
      <path class="cls-1" d="M244.1,544.02v31.31h-4.04v-5.71c-1.11,1.9-2.63,3.38-4.57,4.43-1.94,1.05-4.16,1.58-6.65,1.58-4.08,0-7.29-1.14-9.65-3.42-2.35-2.28-3.53-5.62-3.53-10.03v-18.15h4.21v17.74c0,3.29,.81,5.8,2.44,7.5,1.62,1.71,3.94,2.56,6.95,2.56,3.28,0,5.88-1,7.78-3.01,1.9-2,2.85-4.79,2.85-8.36v-16.43h4.22Z"/>
      <path class="cls-1" d="M281.18,547.2c2.32,2.28,3.47,5.61,3.47,9.97v18.15h-4.21v-17.74c0-3.26-.81-5.73-2.44-7.44-1.62-1.71-3.94-2.56-6.95-2.56-3.37,0-6.03,1-7.99,3.01-1.96,2-2.94,4.77-2.94,8.3v16.43h-4.22v-31.31h4.04v5.77c1.15-1.9,2.74-3.38,4.78-4.43,2.04-1.05,4.4-1.58,7.09-1.58,3.92,0,7.03,1.14,9.35,3.42Z"/>
      <path class="cls-1" d="M325.14,544.02v27.5c0,5.32-1.3,9.25-3.89,11.82-2.59,2.56-6.5,3.84-11.72,3.84-2.89,0-5.63-.43-8.22-1.28-2.59-.85-4.7-2.04-6.32-3.54l2.14-3.22c1.5,1.35,3.33,2.4,5.49,3.15s4.42,1.13,6.8,1.13c3.96,0,6.87-.92,8.73-2.77,1.86-1.84,2.79-4.71,2.79-8.6v-3.99c-1.31,1.98-3.02,3.49-5.14,4.52s-4.46,1.55-7.03,1.55c-2.93,0-5.59-.64-7.99-1.93-2.4-1.29-4.27-3.1-5.64-5.42s-2.05-4.95-2.05-7.89,.68-5.55,2.05-7.86c1.37-2.3,3.24-4.09,5.61-5.36,2.37-1.27,5.05-1.9,8.01-1.9,2.65,0,5.05,.54,7.18,1.61,2.14,1.07,3.86,2.62,5.17,4.64v-6.01h4.04Zm-9.85,24.91c1.82-.97,3.24-2.33,4.24-4.08,1.01-1.74,1.51-3.73,1.51-5.95s-.5-4.2-1.51-5.92c-1.01-1.72-2.41-3.07-4.21-4.05-1.8-.97-3.85-1.46-6.14-1.46s-4.28,.48-6.09,1.43-3.2,2.3-4.21,4.05c-1.01,1.75-1.51,3.73-1.51,5.95s.5,4.21,1.51,5.95c1.01,1.75,2.41,3.11,4.21,4.08,1.8,.97,3.83,1.46,6.09,1.46s4.29-.49,6.12-1.46Z"/>
      <path class="cls-1" d="M338.05,574.52c-2.32-.73-4.13-1.66-5.43-2.77l1.9-3.33c1.31,1.03,2.95,1.88,4.93,2.53,1.98,.65,4.04,.98,6.17,.98,2.85,0,4.96-.45,6.32-1.34,1.37-.89,2.05-2.15,2.05-3.78,0-1.15-.38-2.05-1.13-2.71-.75-.65-1.7-1.15-2.85-1.49s-2.67-.66-4.57-.98c-2.53-.48-4.57-.96-6.11-1.46-1.54-.5-2.86-1.34-3.95-2.53-1.09-1.19-1.63-2.84-1.63-4.94,0-2.62,1.09-4.76,3.27-6.43s5.2-2.5,9.08-2.5c2.02,0,4.04,.27,6.06,.8,2.02,.54,3.68,1.24,4.99,2.11l-1.84,3.39c-2.57-1.79-5.64-2.68-9.2-2.68-2.69,0-4.72,.47-6.09,1.43-1.36,.95-2.05,2.2-2.05,3.75,0,1.19,.38,2.14,1.16,2.86,.77,.71,1.73,1.24,2.88,1.58,1.15,.34,2.73,.68,4.75,1.04,2.49,.48,4.49,.95,6,1.43,1.5,.47,2.79,1.29,3.86,2.44s1.6,2.74,1.6,4.76c0,2.74-1.14,4.91-3.41,6.52-2.28,1.61-5.43,2.41-9.47,2.41-2.53,0-4.96-.37-7.27-1.1Z"/>
      <path class="cls-1" d="M414.14,544.02v17.32c0,4.64-1.11,8.18-3.32,10.63-2.22,2.44-5.48,3.66-9.8,3.66-2.73,0-5.02-.53-6.86-1.58-1.84-1.05-3.26-2.73-4.25-5.03-.99,2.26-2.39,3.93-4.21,5-1.82,1.07-4.12,1.61-6.89,1.61-4.31,0-7.58-1.22-9.8-3.66-2.22-2.44-3.32-5.98-3.32-10.63v-17.32h4.21v16.96c0,3.69,.71,6.42,2.14,8.18,1.42,1.77,3.68,2.65,6.77,2.65s5.31-.89,6.8-2.68c1.48-1.79,2.23-4.54,2.23-8.27v-16.84h4.22v16.84c0,3.73,.73,6.49,2.2,8.27,1.46,1.79,3.74,2.68,6.83,2.68s5.23-.88,6.68-2.65c1.44-1.76,2.17-4.49,2.17-8.18v-16.96h4.22Z"/>
      <path class="cls-1" d="M444.32,570.83c1.64-.69,3.04-1.72,4.19-3.07l2.37,2.74c-1.39,1.67-3.11,2.94-5.17,3.81-2.06,.87-4.33,1.31-6.83,1.31-3.21,0-6.06-.68-8.55-2.05-2.49-1.37-4.43-3.26-5.82-5.69-1.39-2.42-2.08-5.16-2.08-8.21s.66-5.79,1.99-8.21c1.33-2.42,3.16-4.3,5.49-5.65,2.33-1.35,4.99-2.03,7.96-2.03,2.77,0,5.27,.64,7.51,1.9,2.23,1.27,4.02,3.04,5.34,5.3,1.33,2.26,2.03,4.84,2.11,7.74l-25.65,5c.79,2.54,2.23,4.53,4.3,5.98,2.08,1.45,4.56,2.17,7.45,2.17,1.94,0,3.73-.35,5.37-1.04Zm-12.29-21.9c-1.72,1.01-3.07,2.42-4.04,4.23-.97,1.81-1.45,3.88-1.45,6.22,0,.6,.02,1.03,.06,1.31l22.03-4.29c-.47-2.62-1.68-4.77-3.62-6.46-1.94-1.69-4.32-2.53-7.12-2.53-2.18,0-4.13,.5-5.85,1.52Z"/>
      <path class="cls-1" d="M469.91,545.39c1.96-1.07,4.38-1.61,7.27-1.61v4.11l-1.01-.06c-3.29,0-5.86,1.01-7.72,3.04-1.86,2.02-2.79,4.86-2.79,8.51v15.95h-4.22v-31.31h4.04v6.13c.99-2.1,2.46-3.69,4.42-4.76Z"/>
      <path class="cls-1" d="M496.36,559.61l-7.36,6.78v8.93h-4.22v-44.16h4.22v29.94l18.64-17.08h5.22l-13.36,12.79,14.61,18.51h-5.17l-12.59-15.71Z"/>
    </g>
    <g>
      <path class="cls-1" d="M65.63,412.61c7.04,5.95,10.57,14.13,10.57,24.53s-3.52,18.56-10.57,24.46c-7.05,5.9-16.78,8.85-29.2,8.85H10.29v30.81H0v-97.57H36.43c12.42,0,22.15,2.98,29.2,8.92Zm-7.37,42.44c5.1-4.23,7.65-10.2,7.65-17.91s-2.55-13.96-7.65-18.19c-5.1-4.23-12.47-6.34-22.11-6.34H10.29v48.79h25.86c9.64,0,17.01-2.11,22.11-6.34Z"/>
      <path class="cls-1" d="M166.44,435.4c5.42,5.35,8.13,13.13,8.13,23.35v42.51h-9.87v-41.54c0-7.62-1.9-13.43-5.7-17.42-3.8-3.99-9.22-5.99-16.27-5.99-7.88,0-14.11,2.35-18.7,7.04-4.59,4.69-6.88,11.17-6.88,19.44v38.47h-9.87v-103.43h9.87v42.93c2.69-4.27,6.39-7.57,11.12-9.89,4.73-2.32,10.15-3.48,16.27-3.48,9.18,0,16.48,2.67,21.9,8.01Z"/>
      <path class="cls-1" d="M272.26,427.95v66.23c0,12.81-2.83,22.29-8.48,28.46-5.66,6.16-14.18,9.25-25.58,9.25-6.39,0-12.44-1.03-18.14-3.08-5.7-2.06-10.31-4.9-13.83-8.53l5-7.74c3.15,3.25,7.05,5.78,11.68,7.6,4.63,1.82,9.6,2.73,14.88,2.73,8.43,0,14.65-2.22,18.63-6.67,3.98-4.44,5.98-11.35,5.98-20.71v-8.75c-2.6,4.4-6.14,7.79-10.64,10.18-4.5,2.39-9.57,3.58-15.22,3.58-9.55,0-17.08-2.74-22.59-8.24-5.52-5.49-8.27-13.55-8.27-24.16v-40.14h9.87v39.14c0,7.93,1.9,13.95,5.7,18.06,3.8,4.11,9.22,6.16,16.27,6.16,7.7,0,13.77-2.41,18.22-7.24,4.45-4.83,6.67-11.54,6.67-20.14v-35.98h9.87Z"/>
      <path class="cls-1" d="M316.07,499.38c-5.42-1.72-9.66-3.88-12.72-6.48l4.45-7.8c3.06,2.42,6.9,4.39,11.54,5.92,4.63,1.53,9.46,2.3,14.46,2.3,6.68,0,11.61-1.04,14.81-3.13,3.2-2.09,4.8-5.04,4.8-8.85,0-2.7-.88-4.81-2.64-6.34-1.76-1.53-3.99-2.7-6.67-3.48-2.69-.79-6.26-1.55-10.71-2.3-5.93-1.12-10.71-2.25-14.32-3.42-3.61-1.16-6.7-3.14-9.25-5.93-2.55-2.79-3.82-6.64-3.82-11.57,0-6.13,2.55-11.15,7.65-15.06,5.1-3.9,12.19-5.85,21.27-5.85,4.73,0,9.46,.63,14.18,1.88,4.73,1.25,8.62,2.9,11.68,4.95l-4.31,7.94c-6.03-4.18-13.21-6.27-21.55-6.27-6.3,0-11.05,1.12-14.25,3.35-3.2,2.23-4.8,5.16-4.8,8.78,0,2.79,.9,5.02,2.71,6.69,1.81,1.67,4.05,2.91,6.74,3.69,2.69,.79,6.4,1.6,11.13,2.44,5.84,1.11,10.52,2.23,14.04,3.35,3.52,1.11,6.53,3.02,9.04,5.71,2.5,2.7,3.75,6.41,3.75,11.15,0,6.41-2.67,11.5-7.99,15.26-5.33,3.76-12.72,5.64-22.18,5.64-5.93,0-11.61-.86-17.03-2.58Z"/>
      <path class="cls-1" d="M396.45,409.83c-1.39-1.39-2.09-3.07-2.09-5.02s.7-3.48,2.09-4.88c1.39-1.39,3.1-2.09,5.14-2.09s3.75,.67,5.15,2.02,2.08,2.95,2.08,4.81c0,2.04-.69,3.76-2.08,5.16-1.39,1.39-3.11,2.09-5.15,2.09s-3.75-.7-5.14-2.09Zm.14,18.12h9.87v73.32h-9.87v-73.32Z"/>
      <path class="cls-1" d="M458.12,497.16c-5.66-3.21-10.11-7.64-13.35-13.31-3.25-5.67-4.87-12.08-4.87-19.24s1.62-13.57,4.87-19.24c3.24-5.67,7.69-10.08,13.35-13.24,5.65-3.16,12-4.74,19.05-4.74s13.39,1.58,19.05,4.74c5.65,3.16,10.08,7.57,13.28,13.24,3.2,5.67,4.79,12.08,4.79,19.24s-1.6,13.57-4.79,19.24c-3.2,5.67-7.63,10.11-13.28,13.31-5.66,3.2-12.01,4.81-19.05,4.81s-13.4-1.6-19.05-4.81Zm33.02-7.53c4.12-2.37,7.34-5.74,9.66-10.1,2.31-4.37,3.48-9.34,3.48-14.92s-1.16-10.54-3.48-14.92c-2.32-4.36-5.54-7.73-9.66-10.1-4.13-2.37-8.78-3.55-13.97-3.55s-9.85,1.18-13.98,3.55c-4.12,2.37-7.37,5.74-9.73,10.1-2.37,4.37-3.55,9.34-3.55,14.92s1.18,10.55,3.55,14.92c2.36,4.37,5.61,7.73,9.73,10.1,4.13,2.37,8.78,3.55,13.98,3.55s9.85-1.18,13.97-3.55Z"/>
    </g>
  </g>
  <g id="cuerpo">
    <path class="cls-1" d="M301.71,300.52c0,9.16-1.06,18.07-3.04,26.63h-59.31c13.72-26.57,3.34-62.5-21.71-77.75h-.02c-21.52-14.78-54.16-12.19-72.96,5.19h-.73c-28.29,16.27-57.12-21.52-33.82-44.44,1.65-1.35,3.37-2.7,5.13-3.98,27.3-20.48,64.9-27.89,98.38-19.13l.02,.02c50.79,13.08,88.71,60.29,88.06,113.46Z"/>
  </g>
  <g id="mano">
    <path class="cls-1" d="M412.8,99.75c.37,61.61-37.77,118.36-94.14,142.16-8.06-18.48-19.84-34.94-34.4-48.47,69.51-21.1,90.45-97.96,50.41-156-8.58-23.93,20.84-47.46,42.37-33,20.3,24.26,34.84,48.85,35.76,95.32Z"/>
  </g>
</svg>