<?xml version="1.0" encoding="UTF-8"?>
<svg id="Capa_2" data-name="Capa 2" xmlns="http://www.w3.org/2000/svg" viewBox="0 0 311.22 327.15">
  <defs>
    <style>
      .cls-1 {
        fill: #fff;
      }
    </style>
  </defs>
  <g id="cabeza">
    <path class="cls-1" d="M192.65,99.75c0,20.23-16.4,36.64-36.64,36.64s-36.64-16.4-36.64-36.64,16.4-36.63,36.64-36.63,36.64,16.4,36.64,36.63Z"/>
  </g>
  <g id="cuerpo">
    <path class="cls-1" d="M200.12,300.52c0,9.16-1.06,18.07-3.04,26.63h-59.31c13.72-26.57,3.34-62.5-21.71-77.75h-.02c-21.52-14.78-54.16-12.19-72.96,5.19h-.73c-28.29,16.27-57.12-21.52-33.82-44.44,1.65-1.35,3.37-2.7,5.13-3.98,27.3-20.48,64.9-27.89,98.38-19.13l.02,.02c50.79,13.08,88.71,60.29,88.06,113.46Z"/>
  </g>
  <g id="mano">
    <path class="cls-1" d="M311.21,99.75c.37,61.61-37.77,118.36-94.14,142.16-8.06-18.48-19.84-34.94-34.4-48.47,69.51-21.1,90.45-97.96,50.41-156-8.58-23.93,20.84-47.46,42.37-33,20.3,24.26,34.84,48.85,35.76,95.32Z"/>
  </g>
</svg>