<svg width="23" height="29" viewBox="0 0 23 29" fill="none" xmlns="http://www.w3.org/2000/svg">
<g id="user icon">
<path id="Vector" d="M17.3483 6.53977C17.3483 3.06977 14.5283 0.259766 11.0683 0.259766C7.60832 0.259766 4.77832 3.06977 4.77832 6.53977C4.77832 10.0098 7.59832 12.8198 11.0683 12.8198C14.5383 12.8198 17.3483 9.99977 17.3483 6.53977Z" fill="#E2097F"/>
<path id="Vector_2" d="M12.508 15.1895H9.62795C5.74795 15.1895 2.18795 17.3095 0.337952 20.7195C-0.292048 21.8895 -0.0220487 23.3995 0.987951 24.3095C3.74795 26.8195 7.32795 28.1995 11.068 28.1995C14.808 28.1995 18.388 26.8195 21.148 24.3095C22.158 23.3995 22.428 21.8895 21.798 20.7195C19.938 17.3095 16.378 15.1895 12.508 15.1895Z" fill="#E2097F"/>
</g>
</svg>
