<?xml version="1.0" standalone="no"?>
<!DOCTYPE svg PUBLIC "-//W3C//DTD SVG 20010904//EN"
 "http://www.w3.org/TR/2001/REC-SVG-20010904/DTD/svg10.dtd">
<svg version="1.0" xmlns="http://www.w3.org/2000/svg"
 width="960.000000pt" height="960.000000pt" viewBox="0 0 960.000000 960.000000"
 preserveAspectRatio="xMidYMid meet">
<metadata>
Created by potrace 1.14, written by Peter Selinger 2001-2017
</metadata>
<g transform="translate(0.000000,960.000000) scale(0.100000,-0.100000)"
fill="#000000" stroke="none">
<path d="M7749 9596 c-2 -2 -20 -7 -39 -10 -120 -19 -277 -89 -370 -164 -59
-47 -159 -154 -160 -169 0 -7 -4 -13 -9 -13 -13 0 -113 -199 -105 -211 3 -5 1
-9 -4 -9 -5 0 -9 -6 -10 -12 0 -7 -7 -42 -15 -78 -14 -62 -17 -258 -4 -320 2
-14 8 -41 11 -60 4 -19 12 -40 18 -47 6 -7 7 -13 3 -13 -4 0 -1 -7 6 -17 8 -9
12 -18 11 -20 -6 -7 49 -114 90 -176 21 -32 38 -63 38 -68 0 -5 5 -9 10 -9 6
0 10 -6 10 -14 0 -8 3 -16 8 -18 4 -1 17 -21 28 -43 12 -22 40 -72 62 -112 22
-39 37 -74 34 -77 -3 -3 0 -6 6 -6 7 0 11 -3 10 -7 -1 -5 7 -28 19 -53 27 -58
54 -122 57 -135 1 -5 10 -27 19 -49 9 -21 17 -42 17 -47 0 -5 4 -17 9 -27 9
-16 40 -107 45 -135 2 -7 6 -19 9 -27 4 -8 8 -27 11 -42 3 -15 7 -31 10 -36 3
-5 7 -19 10 -33 2 -13 10 -49 16 -79 7 -30 13 -71 14 -90 0 -19 4 -37 8 -40 3
-3 9 -32 12 -65 3 -33 9 -85 13 -115 15 -120 8 -522 -12 -650 -2 -14 -7 -45
-10 -70 -6 -41 -32 -174 -41 -210 -31 -125 -49 -186 -57 -191 -5 -3 -8 -9 -7
-13 2 -10 -12 -68 -20 -86 -5 -8 -23 -53 -40 -100 -50 -131 -151 -333 -230
-460 -40 -63 -76 -116 -81 -118 -5 -2 -9 -10 -9 -18 0 -8 -4 -14 -10 -14 -5 0
-10 -4 -10 -10 0 -11 1 -10 -111 -145 -45 -55 -97 -115 -116 -133 -18 -18 -33
-35 -33 -37 0 -5 -107 -107 -220 -208 -26 -23 -136 -106 -225 -169 -130 -93
-495 -288 -538 -288 -9 0 -18 -4 -21 -8 -3 -5 -64 -28 -136 -52 l-131 -44 91
-89 c49 -50 90 -94 90 -99 0 -4 7 -8 15 -8 8 0 15 -4 15 -9 0 -5 12 -22 28
-39 52 -56 130 -147 178 -207 27 -33 52 -62 56 -63 4 -2 8 -10 8 -17 0 -7 4
-15 8 -17 12 -4 189 -256 204 -291 7 -15 16 -27 20 -27 5 0 8 -7 8 -15 0 -8 4
-15 9 -15 5 0 11 -8 14 -18 8 -23 40 -75 52 -84 6 -4 6 -8 1 -8 -5 0 -3 -8 5
-17 8 -10 21 -31 29 -48 8 -16 27 -52 42 -78 16 -26 28 -54 28 -62 0 -8 5 -15
10 -15 6 0 10 -4 10 -9 0 -17 83 -181 91 -181 5 0 39 14 76 32 38 17 70 32 73
33 3 0 48 23 100 50 52 27 104 53 115 58 11 4 22 11 25 15 3 4 24 16 47 27 24
11 43 23 43 28 0 4 5 7 11 7 13 0 170 97 247 153 28 20 52 34 52 30 0 -4 5 0
11 10 5 9 14 17 19 17 6 0 18 6 27 14 10 8 63 50 119 93 157 121 175 136 313
262 99 90 84 76 196 192 50 52 117 125 150 164 33 38 66 76 72 83 7 7 34 41
60 75 26 34 51 67 56 72 4 6 33 44 63 85 30 41 58 80 62 85 21 28 124 189 163
255 24 42 52 89 62 105 35 59 121 230 119 238 -1 4 3 7 9 7 5 0 7 5 4 10 -3 6
-1 10 4 10 6 0 11 4 11 10 0 5 18 49 39 97 55 124 74 166 76 178 3 9 32 86 50
130 5 11 9 22 10 25 0 3 20 65 44 138 23 73 44 140 46 150 2 9 13 53 25 97 23
86 28 105 35 147 3 16 12 56 20 90 7 35 16 81 20 103 3 23 7 52 10 65 10 53
23 156 40 320 23 231 18 676 -9 885 -5 35 -13 100 -21 170 -3 28 -8 57 -10 65
-2 8 -7 35 -10 60 -3 25 -8 52 -11 61 -2 9 -7 32 -9 50 -3 19 -7 43 -10 54 -5
22 -34 150 -40 178 -2 9 -6 21 -9 25 -3 5 -8 24 -11 42 -3 18 -9 38 -13 44 -3
6 -8 20 -9 31 -4 28 -71 221 -94 272 -10 24 -19 49 -19 56 0 7 -4 17 -8 23 -4
5 -19 36 -32 69 -13 33 -28 63 -33 66 -5 3 -7 8 -5 11 4 6 -45 112 -55 116 -4
2 -5 8 -1 13 3 5 0 9 -7 9 -7 0 -9 3 -6 7 4 3 3 11 -2 17 -4 6 -28 47 -51 91
-63 116 -162 279 -172 283 -4 2 -8 9 -8 15 -1 7 -14 28 -30 47 -17 19 -30 38
-30 42 0 8 -173 240 -200 269 -16 16 -92 107 -100 119 -20 30 -174 97 -275
121 -48 11 -277 23 -286 15z"/>
<path d="M4680 7760 c0 -3 -17 -5 -38 -6 -50 -1 -112 -11 -145 -23 -15 -6 -27
-9 -27 -6 0 2 -31 -7 -70 -20 -100 -34 -224 -101 -305 -164 -65 -51 -205 -189
-205 -202 0 -3 -11 -19 -25 -35 -14 -16 -25 -35 -25 -41 0 -7 -4 -13 -8 -13
-9 0 -30 -40 -80 -150 -28 -63 -60 -168 -67 -220 -2 -14 -4 -25 -5 -25 -8 0
-13 -276 -6 -325 3 -14 5 -25 6 -25 2 0 4 -12 14 -70 14 -86 93 -269 161 -370
60 -90 220 -242 316 -302 78 -48 224 -114 284 -128 6 -2 28 -7 50 -13 96 -25
303 -34 400 -18 91 16 152 30 177 43 15 7 29 12 30 11 6 -6 128 47 128 54 0 5
9 8 20 8 11 0 20 5 20 10 0 6 5 10 11 10 12 0 103 60 107 72 2 4 8 8 13 8 21
0 130 108 196 195 29 38 60 79 68 90 8 10 15 24 15 31 0 6 7 17 15 24 8 7 13
16 10 20 -3 4 3 18 13 31 29 39 90 232 99 314 11 104 5 324 -11 365 -3 8 -8
26 -10 40 -10 49 -14 66 -37 125 -12 33 -29 70 -37 83 -8 12 -11 22 -7 22 3 0
-3 12 -14 26 -12 15 -21 31 -21 36 0 11 -51 81 -63 86 -4 2 -5 7 -2 12 5 9
-163 183 -213 220 -98 73 -275 164 -342 176 -14 3 -43 10 -65 16 -53 15 -60
16 -130 24 -75 8 -195 11 -195 4z"/>
<path d="M2487 4174 c-1 -1 -45 -5 -97 -8 -52 -4 -115 -9 -140 -11 -25 -3 -65
-7 -90 -10 -25 -2 -67 -9 -95 -14 -27 -5 -53 -7 -57 -5 -5 3 -8 0 -8 -6 0 -6
-3 -9 -7 -7 -10 6 -118 -15 -228 -43 -44 -11 -90 -23 -102 -25 -34 -8 -265
-83 -288 -94 -11 -6 -51 -22 -90 -37 -38 -15 -100 -42 -138 -60 -37 -18 -67
-30 -67 -27 0 3 -6 1 -13 -5 -6 -5 -50 -30 -97 -54 -107 -56 -294 -168 -298
-180 -2 -4 -8 -8 -13 -8 -8 0 -136 -89 -165 -115 -7 -5 -24 -19 -39 -30 -68
-49 -145 -140 -195 -230 -24 -43 -70 -157 -76 -190 -2 -11 -8 -42 -13 -70 -10
-49 -8 -240 3 -280 25 -98 38 -141 48 -152 6 -7 8 -13 5 -13 -3 0 10 -27 29
-61 18 -33 34 -65 34 -71 0 -5 4 -6 10 -3 5 3 10 -1 10 -9 0 -14 135 -157 180
-191 109 -83 280 -147 428 -161 37 -3 70 -8 74 -10 5 -3 8 -2 8 3 0 4 30 9 68
10 55 1 112 12 197 37 19 6 50 19 102 42 28 13 55 24 59 24 5 0 102 69 145
104 8 7 31 21 50 32 18 10 39 24 46 30 10 10 207 109 268 135 30 13 196 67
225 73 87 19 134 28 208 41 88 14 260 20 384 11 92 -6 123 -11 248 -36 113
-24 112 -24 128 -33 6 -5 12 -6 12 -3 0 12 240 -81 251 -97 3 -5 9 -7 12 -5
18 10 295 -164 384 -242 15 -14 43 -37 60 -51 18 -15 29 -30 26 -33 -4 -3 1
-6 10 -6 9 0 17 -3 17 -7 0 -5 26 -36 58 -69 69 -74 78 -85 122 -149 19 -27
37 -52 40 -55 26 -24 141 -236 133 -244 -4 -3 -1 -6 5 -6 7 0 12 -4 12 -9 0
-5 8 -26 17 -47 9 -22 18 -43 19 -49 1 -5 11 -35 23 -65 11 -30 22 -64 24 -75
1 -11 5 -24 8 -30 8 -12 36 -157 48 -245 24 -176 -1 -531 -46 -650 -3 -8 -8
-24 -10 -35 -6 -32 -39 -123 -76 -212 l-35 -83 873 0 c893 0 885 0 891 35 1 6
9 48 19 95 9 47 19 103 21 125 3 22 7 51 9 65 13 90 19 152 19 202 1 32 3 58
6 58 8 0 5 274 -3 288 -5 7 -3 12 3 12 6 0 9 4 5 10 -3 5 -7 47 -10 92 -3 78
-12 175 -20 225 -2 12 -9 57 -15 100 -7 43 -14 87 -17 98 -2 11 -11 49 -18 85
-28 137 -141 504 -165 535 -4 6 -11 21 -15 35 -29 98 -236 477 -330 606 -16
23 -37 52 -45 64 -17 25 -119 159 -135 176 -5 7 -28 34 -50 60 -135 163 -413
417 -600 548 -38 28 -72 52 -75 55 -3 3 -14 11 -25 18 -11 6 -58 36 -105 65
-96 60 -96 60 -245 137 -60 31 -153 72 -205 91 -52 18 -101 38 -107 43 -7 5
-13 7 -13 3 0 -5 -52 12 -105 34 -26 11 -165 60 -185 65 -8 2 -17 4 -20 5 -3
1 -8 2 -12 1 -5 0 -8 4 -8 10 0 5 -4 8 -8 5 -5 -3 -20 1 -34 8 -14 7 -42 17
-64 21 -21 5 -41 9 -44 10 -39 10 -107 24 -145 30 -16 3 -55 9 -85 15 -57 10
-169 24 -207 24 -13 1 -23 3 -23 6 0 3 -24 6 -53 7 -103 3 -409 8 -410 7z"/>
</g>
</svg>
